  0
SECTION
  2
HEADER
  9
$ACADVER
  1
AC1014
  9
$HANDSEED
  5
FFFF
  9
$INSUNITS
 70
     4
  9
$MEASUREMENT
 70
     1
  0
ENDSEC
  0
SECTION
  2
TABLES
  0
TABLE
  2
VPORT
  5
8
330
0
100
AcDbSymbolTable
 70
     4
  0
VPORT
  5
2E
330
8
100
AcDbSymbolTableRecord
100
AcDbViewportTableRecord
  2
*ACTIVE
 70
     0
 10
0.0
 20
0.0
 11
1.0
 21
1.0
 12
210.0
 22
148.5
 13
0.0
 23
0.0
 14
10.0
 24
10.0
 15
10.0
 25
10.0
 16
0.0
 26
0.0
 36
1.0
 17
0.0
 27
0.0
 37
0.0
 40
341.0
 41
1.24
 42
50.0
 43
0.0
 44
0.0
 50
0.0
 51
0.0
 71
     0
 72
   100
 73
     1
 74
     3
 75
     0
 76
     0
 77
     0
 78
     0
  0
ENDTAB
  0
TABLE
  2
LTYPE
  5
5
330
0
100
AcDbSymbolTable
 70
     1
  0
LTYPE
  5
14
330
5
100
AcDbSymbolTableRecord
100
AcDbLinetypeTableRecord
  2
BYBLOCK
 70
     0
  3

 72
    65
 73
     0
 40
0.0
  0
LTYPE
  5
15
330
5
100
AcDbSymbolTableRecord
100
AcDbLinetypeTableRecord
  2
BYLAYER
 70
     0
  3

 72
    65
 73
     0
 40
0.0
  0
LTYPE
  5
16
330
5
100
AcDbSymbolTableRecord
100
AcDbLinetypeTableRecord
  2
CONTINUOUS
 70
     0
  3
Solid line
 72
    65
 73
     0
 40
0.0
  0
ENDTAB
  0
TABLE
  2
LAYER
  5
2
100
AcDbSymbolTable
 70
2
  0
LAYER
  5
50
100
AcDbSymbolTableRecord
100
AcDbLayerTableRecord
  2
0
 70
0
  6
CONTINUOUS
  0
LAYER
  5
51
100
AcDbSymbolTableRecord
100
AcDbLayerTableRecord
  2
Layer_1
 70
0
  6
CONTINUOUS
  0
ENDTAB
  0
TABLE
  2
STYLE
  5
3
330
0
100
AcDbSymbolTable
 70
     1
  0
STYLE
  5
11
330
3
100
AcDbSymbolTableRecord
100
AcDbTextStyleTableRecord
  2
STANDARD
 70
     0
 40
0.0
 41
1.0
 50
0.0
 71
     0
 42
2.5
  3
txt
  4

  0
ENDTAB
  0
TABLE
  2
VIEW
  5
6
330
0
100
AcDbSymbolTable
 70
     0
  0
ENDTAB
  0
TABLE
  2
UCS
  5
7
330
0
100
AcDbSymbolTable
 70
     0
  0
ENDTAB
  0
TABLE
  2
APPID
  5
9
330
0
100
AcDbSymbolTable
 70
     2
  0
APPID
  5
12
330
9
100
AcDbSymbolTableRecord
100
AcDbRegAppTableRecord
  2
ACAD
 70
     0
  0
ENDTAB
  0
TABLE
  2
DIMSTYLE
  5
A
330
0
100
AcDbSymbolTable
 70
     1
  0
DIMSTYLE
105
27
330
A
100
AcDbSymbolTableRecord
100
AcDbDimStyleTableRecord
  2
ISO-25
 70
     0
  3

  4

  5

  6

  7

 40
1.0
 41
2.5
 42
0.625
 43
3.75
 44
1.25
 45
0.0
 46
0.0
 47
0.0
 48
0.0
140
2.5
141
2.5
142
0.0
143
0.03937007874016
144
1.0
145
0.0
146
1.0
147
0.625
 71
     0
 72
     0
 73
     0
 74
     0
 75
     0
 76
     0
 77
     1
 78
     8
170
     0
171
     3
172
     1
173
     0
174
     0
175
     0
176
     0
177
     0
178
     0
270
     2
271
     2
272
     2
273
     2
274
     3
340
11
275
     0
280
     0
281
     0
282
     0
283
     0
284
     8
285
     0
286
     0
287
     3
288
     0
  0
ENDTAB
  0
TABLE
  2
BLOCK_RECORD
  5
1
330
0
100
AcDbSymbolTable
 70
     1
  0
BLOCK_RECORD
  5
1F
330
1
100
AcDbSymbolTableRecord
100
AcDbBlockTableRecord
  2
*MODEL_SPACE
  0
BLOCK_RECORD
  5
1B
330
1
100
AcDbSymbolTableRecord
100
AcDbBlockTableRecord
  2
*PAPER_SPACE
  0
ENDTAB
  0
ENDSEC
  0
SECTION
  2
BLOCKS
  0
BLOCK
  5
20
330
1F
100
AcDbEntity
  8
0
100
AcDbBlockBegin
  2
*MODEL_SPACE
 70
     0
 10
0.0
 20
0.0
 30
0.0
  3
*MODEL_SPACE
  1

  0
ENDBLK
  5
21
330
1F
100
AcDbEntity
  8
0
100
AcDbBlockEnd
  0
BLOCK
  5
1C
330
1B
100
AcDbEntity
 67
     1
  8
0
100
AcDbBlockBegin
  2
*PAPER_SPACE
  1

  0
ENDBLK
  5
1D
330
1B
100
AcDbEntity
 67
     1
  8
0
100
AcDbBlockEnd
  0
ENDSEC
  0
SECTION
  2
ENTITIES
  0
LWPOLYLINE
  5
100
100
AcDbEntity
  8
Layer_1
 62
7
100
AcDbPolyline
 90
4
 70
1
 10
-0.000161
 20
191.847740
 30
0.0
 10
191.542789
 20
191.847740
 30
0.0
 10
191.542789
 20
0.000720
 30
0.0
 10
-0.000161
 20
0.000720
 30
0.0
  0
LWPOLYLINE
  5
101
100
AcDbEntity
  8
Layer_1
 62
7
100
AcDbPolyline
 90
10
 70
1
 10
38.373103
 20
144.410111
 30
0.0
 10
38.373103
 20
145.634955
 30
0.0
 10
33.740428
 20
145.634955
 30
0.0
 10
33.740428
 20
138.601983
 30
0.0
 10
35.113439
 20
138.601983
 30
0.0
 10
35.113439
 20
141.456660
 30
0.0
 10
37.889090
 20
141.456660
 30
0.0
 10
37.889090
 20
142.681504
 30
0.0
 10
35.113439
 20
142.681504
 30
0.0
 10
35.113439
 20
144.410111
 30
0.0
  0
LWPOLYLINE
  5
102
100
AcDbEntity
  8
Layer_1
 62
7
100
AcDbPolyline
 90
12
 70
1
 10
38.887535
 20
151.991905
 30
0.0
 10
36.388458
 20
156.229469
 30
0.0
 10
38.719611
 20
159.024877
 30
0.0
 10
37.050271
 20
159.024877
 30
0.0
 10
34.570950
 20
155.962769
 30
0.0
 10
34.570950
 20
159.024877
 30
0.0
 10
33.197940
 20
159.024877
 30
0.0
 10
33.197940
 20
151.991905
 30
0.0
 10
34.570950
 20
151.991905
 30
0.0
 10
34.570950
 20
154.105749
 30
0.0
 10
35.479704
 20
155.192303
 30
0.0
 10
37.287335
 20
151.991905
 30
0.0
  0
LWPOLYLINE
  5
103
100
AcDbEntity
  8
Layer_1
 62
7
100
AcDbPolyline
 90
12
 70
1
 10
38.887293
 20
125.340237
 30
0.0
 10
36.388216
 20
129.577801
 30
0.0
 10
38.719370
 20
132.373209
 30
0.0
 10
37.050029
 20
132.373209
 30
0.0
 10
34.570708
 20
129.311101
 30
0.0
 10
34.570708
 20
132.373209
 30
0.0
 10
33.197698
 20
132.373209
 30
0.0
 10
33.197698
 20
125.340237
 30
0.0
 10
34.570708
 20
125.340237
 30
0.0
 10
34.570708
 20
127.454081
 30
0.0
 10
35.479462
 20
128.540635
 30
0.0
 10
37.287093
 20
125.340237
 30
0.0
  0
LWPOLYLINE
  5
104
100
AcDbEntity
  8
Layer_1
 62
7
100
AcDbPolyline
 90
8
 70
1
 10
38.308320
 20
117.967633
 30
0.0
 10
38.308320
 20
119.192477
 30
0.0
 10
33.260779
 20
119.192477
 30
0.0
 10
33.260779
 20
117.967633
 30
0.0
 10
35.098045
 20
117.967633
 30
0.0
 10
35.098045
 20
112.159505
 30
0.0
 10
36.471056
 20
112.159505
 30
0.0
 10
36.471056
 20
117.967633
 30
0.0
  0
LWPOLYLINE
  5
105
100
AcDbEntity
  8
Layer_1
 62
7
100
AcDbPolyline
 90
12
 70
1
 10
38.297675
 20
85.591177
 30
0.0
 10
38.297675
 20
86.816021
 30
0.0
 10
35.038011
 20
86.816021
 30
0.0
 10
35.038011
 20
88.524875
 30
0.0
 10
37.813662
 20
88.524875
 30
0.0
 10
37.813662
 20
89.749718
 30
0.0
 10
35.038011
 20
89.749718
 30
0.0
 10
35.038011
 20
91.399305
 30
0.0
 10
38.297675
 20
91.399305
 30
0.0
 10
38.297675
 20
92.624149
 30
0.0
 10
33.665001
 20
92.624149
 30
0.0
 10
33.665001
 20
85.591177
 30
0.0
  0
LWPOLYLINE
  5
106
100
AcDbEntity
  8
Layer_1
 62
7
100
AcDbPolyline
 90
8
 70
1
 10
38.281325
 20
78.278805
 30
0.0
 10
38.281325
 20
79.503649
 30
0.0
 10
33.233784
 20
79.503649
 30
0.0
 10
33.233784
 20
78.278805
 30
0.0
 10
35.071051
 20
78.278805
 30
0.0
 10
35.071051
 20
72.470677
 30
0.0
 10
36.444061
 20
72.470677
 30
0.0
 10
36.444061
 20
78.278805
 30
0.0
  0
SPLINE
  5
107
100
AcDbEntity
  8
Layer_1
 62
7
100
AcDbSpline
 70
8
 71
3
 72
8
 73
4
 74
0
 40
0
 40
0
 40
0
 40
0
 40
1
 40
1
 40
1
 40
1
 10
38.270881
 20
47.984841
 30
0.0
 10
38.270881
 20
48.607138
 30
0.0
 10
38.102958
 20
49.120784
 30
0.0
 10
37.727602
 20
49.476381
 30
0.0
  0
SPLINE
  5
108
100
AcDbEntity
  8
Layer_1
 62
7
100
AcDbSpline
 70
8
 71
3
 72
8
 73
4
 74
0
 40
0
 40
0
 40
0
 40
0
 40
1
 40
1
 40
1
 40
1
 10
37.727602
 20
49.476381
 30
0.0
 10
37.431271
 20
49.752961
 30
0.0
 10
37.026281
 20
49.930761
 30
0.0
 10
36.384228
 20
50.019661
 30
0.0
  0
LWPOLYLINE
  5
109
100
AcDbEntity
  8
Layer_1
 62
7
100
AcDbPolyline
 90
10
 70
1
 10
38.347655
 20
64.990057
 30
0.0
 10
38.347655
 20
66.214901
 30
0.0
 10
33.714981
 20
66.214901
 30
0.0
 10
33.714981
 20
59.181929
 30
0.0
 10
35.087991
 20
59.181929
 30
0.0
 10
35.087991
 20
62.036606
 30
0.0
 10
37.863642
 20
62.036606
 30
0.0
 10
37.863642
 20
63.261450
 30
0.0
 10
35.087991
 20
63.261450
 30
0.0
 10
35.087991
 20
64.990057
 30
0.0
  0
SPLINE
  5
10a
100
AcDbEntity
  8
Layer_1
 62
7
100
AcDbSpline
 70
8
 71
3
 72
8
 73
4
 74
0
 40
0
 40
0
 40
0
 40
0
 40
1
 40
1
 40
1
 40
1
 10
35.554494
 20
50.138194
 30
0.0
 10
35.268038
 20
50.177704
 30
0.0
 10
35.040851
 20
50.286361
 30
0.0
 10
34.902561
 20
50.414771
 30
0.0
  0
SPLINE
  5
10b
100
AcDbEntity
  8
Layer_1
 62
7
100
AcDbSpline
 70
8
 71
3
 72
8
 73
4
 74
0
 40
0
 40
0
 40
0
 40
0
 40
1
 40
1
 40
1
 40
1
 10
34.902561
 20
50.414771
 30
0.0
 10
34.754394
 20
50.553058
 30
0.0
 10
34.695128
 20
50.740738
 30
0.0
 10
34.695128
 20
50.918538
 30
0.0
  0
SPLINE
  5
10c
100
AcDbEntity
  8
Layer_1
 62
7
100
AcDbSpline
 70
8
 71
3
 72
8
 73
4
 74
0
 40
0
 40
0
 40
0
 40
0
 40
1
 40
1
 40
1
 40
1
 10
34.695128
 20
50.918538
 30
0.0
 10
34.695128
 20
51.402548
 30
0.0
 10
35.050728
 20
51.807535
 30
0.0
 10
35.781681
 20
51.807535
 30
0.0
  0
SPLINE
  5
10d
100
AcDbEntity
  8
Layer_1
 62
7
100
AcDbSpline
 70
8
 71
3
 72
8
 73
4
 74
0
 40
0
 40
0
 40
0
 40
0
 40
1
 40
1
 40
1
 40
1
 10
35.781681
 20
51.807535
 30
0.0
 10
36.245938
 20
51.807535
 30
0.0
 10
36.779338
 20
51.748268
 30
0.0
 10
37.223838
 20
51.323525
 30
0.0
  0
LWPOLYLINE
  5
10e
100
AcDbEntity
  8
Layer_1
 62
7
100
AcDbPolyline
 90
2
 70
0
 10
36.384228
 20
50.019661
 30
0.0
 10
35.554494
 20
50.138194
 30
0.0
  0
SPLINE
  5
10f
100
AcDbEntity
  8
Layer_1
 62
7
100
AcDbSpline
 70
8
 71
3
 72
8
 73
4
 74
0
 40
0
 40
0
 40
0
 40
0
 40
1
 40
1
 40
1
 40
1
 10
38.093081
 20
52.182892
 30
0.0
 10
37.490538
 20
52.765679
 30
0.0
 10
36.789215
 20
53.002745
 30
0.0
 10
35.821194
 20
53.002745
 30
0.0
  0
SPLINE
  5
110
100
AcDbEntity
  8
Layer_1
 62
7
100
AcDbSpline
 70
8
 71
3
 72
8
 73
4
 74
0
 40
0
 40
0
 40
0
 40
0
 40
1
 40
1
 40
1
 40
1
 10
35.821194
 20
53.002745
 30
0.0
 10
34.300017
 20
53.002745
 30
0.0
 10
33.371507
 20
52.123625
 30
0.0
 10
33.371507
 20
50.869148
 30
0.0
  0
SPLINE
  5
111
100
AcDbEntity
  8
Layer_1
 62
7
100
AcDbSpline
 70
8
 71
3
 72
8
 73
4
 74
0
 40
0
 40
0
 40
0
 40
0
 40
1
 40
1
 40
1
 40
1
 10
33.371507
 20
50.869148
 30
0.0
 10
33.371507
 20
50.276481
 30
0.0
 10
33.539430
 20
49.822105
 30
0.0
 10
33.875274
 20
49.486261
 30
0.0
  0
SPLINE
  5
112
100
AcDbEntity
  8
Layer_1
 62
7
100
AcDbSpline
 70
8
 71
3
 72
8
 73
4
 74
0
 40
0
 40
0
 40
0
 40
0
 40
1
 40
1
 40
1
 40
1
 10
33.875274
 20
49.486261
 30
0.0
 10
34.191361
 20
49.180051
 30
0.0
 10
34.635861
 20
48.992371
 30
0.0
 10
35.238405
 20
48.903471
 30
0.0
  0
LWPOLYLINE
  5
113
100
AcDbEntity
  8
Layer_1
 62
7
100
AcDbPolyline
 90
2
 70
0
 10
37.223838
 20
51.323525
 30
0.0
 10
38.093081
 20
52.182892
 30
0.0
  0
SPLINE
  5
114
100
AcDbEntity
  8
Layer_1
 62
7
100
AcDbSpline
 70
8
 71
3
 72
8
 73
4
 74
0
 40
0
 40
0
 40
0
 40
0
 40
1
 40
1
 40
1
 40
1
 10
36.087894
 20
48.784938
 30
0.0
 10
36.413861
 20
48.735551
 30
0.0
 10
36.571905
 20
48.666405
 30
0.0
 10
36.710192
 20
48.537994
 30
0.0
  0
SPLINE
  5
115
100
AcDbEntity
  8
Layer_1
 62
7
100
AcDbSpline
 70
8
 71
3
 72
8
 73
4
 74
0
 40
0
 40
0
 40
0
 40
0
 40
1
 40
1
 40
1
 40
1
 10
36.710192
 20
48.537994
 30
0.0
 10
36.858358
 20
48.399705
 30
0.0
 10
36.927505
 20
48.192274
 30
0.0
 10
36.927505
 20
47.945328
 30
0.0
  0
SPLINE
  5
116
100
AcDbEntity
  8
Layer_1
 62
7
100
AcDbSpline
 70
8
 71
3
 72
8
 73
4
 74
0
 40
0
 40
0
 40
0
 40
0
 40
1
 40
1
 40
1
 40
1
 10
36.927505
 20
47.945328
 30
0.0
 10
36.927505
 20
47.382294
 30
0.0
 10
36.492881
 20
47.076084
 30
0.0
 10
35.682905
 20
47.076084
 30
0.0
  0
SPLINE
  5
117
100
AcDbEntity
  8
Layer_1
 62
7
100
AcDbSpline
 70
8
 71
3
 72
8
 73
4
 74
0
 40
0
 40
0
 40
0
 40
0
 40
1
 40
1
 40
1
 40
1
 10
35.682905
 20
47.076084
 30
0.0
 10
35.030971
 20
47.076084
 30
0.0
 10
34.428428
 20
47.224251
 30
0.0
 10
33.983928
 20
47.668751
 30
0.0
  0
LWPOLYLINE
  5
118
100
AcDbEntity
  8
Layer_1
 62
7
100
AcDbPolyline
 90
2
 70
0
 10
35.238405
 20
48.903471
 30
0.0
 10
36.087894
 20
48.784938
 30
0.0
  0
SPLINE
  5
119
100
AcDbEntity
  8
Layer_1
 62
7
100
AcDbSpline
 70
8
 71
3
 72
8
 73
4
 74
0
 40
0
 40
0
 40
0
 40
0
 40
1
 40
1
 40
1
 40
1
 10
33.094930
 20
46.779751
 30
0.0
 10
33.786374
 20
46.078430
 30
0.0
 10
34.596351
 20
45.851241
 30
0.0
 10
35.663148
 20
45.851241
 30
0.0
  0
SPLINE
  5
11a
100
AcDbEntity
  8
Layer_1
 62
7
100
AcDbSpline
 70
8
 71
3
 72
8
 73
4
 74
0
 40
0
 40
0
 40
0
 40
0
 40
1
 40
1
 40
1
 40
1
 10
35.663148
 20
45.851241
 30
0.0
 10
37.134938
 20
45.851241
 30
0.0
 10
38.270881
 20
46.621707
 30
0.0
 10
38.270881
 20
47.984841
 30
0.0
  0
LWPOLYLINE
  5
11b
100
AcDbEntity
  8
Layer_1
 62
7
100
AcDbPolyline
 90
2
 70
0
 10
33.983928
 20
47.668751
 30
0.0
 10
33.094930
 20
46.779751
 30
0.0
  0
LWPOLYLINE
  5
11c
100
AcDbEntity
  8
Layer_1
 62
7
100
AcDbPolyline
 90
1
 70
1
 10
38.270881
 20
47.984841
 30
0.0
  0
LWPOLYLINE
  5
11d
100
AcDbEntity
  8
Layer_1
 62
7
100
AcDbPolyline
 90
8
 70
1
 10
38.271453
 20
38.612115
 30
0.0
 10
38.271453
 20
39.836959
 30
0.0
 10
33.223912
 20
39.836959
 30
0.0
 10
33.223912
 20
38.612115
 30
0.0
 10
35.061179
 20
38.612115
 30
0.0
 10
35.061179
 20
32.803987
 30
0.0
 10
36.434189
 20
32.803987
 30
0.0
 10
36.434189
 20
38.612115
 30
0.0
  0
SPLINE
  5
11e
100
AcDbEntity
  8
Layer_1
 62
7
100
AcDbSpline
 70
8
 71
3
 72
8
 73
4
 74
0
 40
0
 40
0
 40
0
 40
0
 40
1
 40
1
 40
1
 40
1
 10
59.867107
 20
39.837316
 30
0.0
 10
59.067007
 20
39.837316
 30
0.0
 10
58.454650
 20
39.560707
 30
0.0
 10
57.960763
 20
39.066820
 30
0.0
  0
SPLINE
  5
11f
100
AcDbEntity
  8
Layer_1
 62
7
100
AcDbSpline
 70
8
 71
3
 72
8
 73
4
 74
0
 40
0
 40
0
 40
0
 40
0
 40
1
 40
1
 40
1
 40
1
 10
57.960763
 20
39.066820
 30
0.0
 10
57.249563
 20
38.355620
 30
0.0
 10
57.269333
 20
37.476785
 30
0.0
 10
57.269333
 20
36.261824
 30
0.0
  0
SPLINE
  5
120
100
AcDbEntity
  8
Layer_1
 62
7
100
AcDbSpline
 70
8
 71
3
 72
8
 73
4
 74
0
 40
0
 40
0
 40
0
 40
0
 40
1
 40
1
 40
1
 40
1
 10
57.269333
 20
36.261824
 30
0.0
 10
57.269333
 20
35.157607
 30
0.0
 10
57.255151
 20
34.331241
 30
0.0
 10
57.786096
 20
33.655781
 30
0.0
  0
LWPOLYLINE
  5
121
100
AcDbEntity
  8
Layer_1
 62
7
100
AcDbPolyline
 90
4
 70
1
 10
48.484993
 20
32.804477
 30
0.0
 10
48.484993
 20
39.837449
 30
0.0
 10
47.111983
 20
39.837449
 30
0.0
 10
47.111983
 20
32.804477
 30
0.0
  0
SPLINE
  5
122
100
AcDbEntity
  8
Layer_1
 62
7
100
AcDbSpline
 70
8
 71
3
 72
8
 73
4
 74
0
 40
0
 40
0
 40
0
 40
0
 40
1
 40
1
 40
1
 40
1
 10
58.673381
 20
35.193156
 30
0.0
 10
58.651659
 20
35.456440
 30
0.0
 10
58.642375
 20
35.794988
 30
0.0
 10
58.642375
 20
36.261824
 30
0.0
  0
SPLINE
  5
123
100
AcDbEntity
  8
Layer_1
 62
7
100
AcDbSpline
 70
8
 71
3
 72
8
 73
4
 74
0
 40
0
 40
0
 40
0
 40
0
 40
1
 40
1
 40
1
 40
1
 10
58.642375
 20
36.261824
 30
0.0
 10
58.642375
 20
37.615075
 30
0.0
 10
58.711571
 20
37.941081
 30
0.0
 10
58.978271
 20
38.237415
 30
0.0
  0
SPLINE
  5
124
100
AcDbEntity
  8
Layer_1
 62
7
100
AcDbSpline
 70
8
 71
3
 72
8
 73
4
 74
0
 40
0
 40
0
 40
0
 40
0
 40
1
 40
1
 40
1
 40
1
 10
58.978271
 20
38.237415
 30
0.0
 10
59.175828
 20
38.464599
 30
0.0
 10
59.491751
 20
38.612583
 30
0.0
 10
59.867107
 20
38.612583
 30
0.0
  0
SPLINE
  5
125
100
AcDbEntity
  8
Layer_1
 62
7
100
AcDbSpline
 70
8
 71
3
 72
8
 73
4
 74
0
 40
0
 40
0
 40
0
 40
0
 40
1
 40
1
 40
1
 40
1
 10
59.867107
 20
38.612583
 30
0.0
 10
60.128317
 20
38.612583
 30
0.0
 10
60.355391
 20
38.540037
 30
0.0
 10
60.536318
 20
38.419832
 30
0.0
  0
LWPOLYLINE
  5
126
100
AcDbEntity
  8
Layer_1
 62
7
100
AcDbPolyline
 90
2
 70
0
 10
57.786096
 20
33.655781
 30
0.0
 10
58.673381
 20
35.193156
 30
0.0
  0
SPLINE
  5
127
100
AcDbEntity
  8
Layer_1
 62
7
100
AcDbSpline
 70
8
 71
3
 72
8
 73
4
 74
0
 40
0
 40
0
 40
0
 40
0
 40
1
 40
1
 40
1
 40
1
 10
61.171421
 20
39.519506
 30
0.0
 10
60.800705
 20
39.726146
 30
0.0
 10
60.373607
 20
39.837316
 30
0.0
 10
59.867107
 20
39.837316
 30
0.0
  0
LWPOLYLINE
  5
128
100
AcDbEntity
  8
Layer_1
 62
7
100
AcDbPolyline
 90
2
 70
0
 10
60.536318
 20
38.419832
 30
0.0
 10
61.171421
 20
39.519506
 30
0.0
  0
LWPOLYLINE
  5
129
100
AcDbEntity
  8
Layer_1
 62
7
100
AcDbPolyline
 90
1
 70
1
 10
59.867107
 20
39.837316
 30
0.0
  0
SPLINE
  5
12a
100
AcDbEntity
  8
Layer_1
 62
7
100
AcDbSpline
 70
8
 71
3
 72
8
 73
4
 74
0
 40
0
 40
0
 40
0
 40
0
 40
1
 40
1
 40
1
 40
1
 10
61.043778
 20
37.479320
 30
0.0
 10
61.078216
 20
37.200753
 30
0.0
 10
61.092356
 20
36.819436
 30
0.0
 10
61.092356
 20
36.261824
 30
0.0
  0
SPLINE
  5
12b
100
AcDbEntity
  8
Layer_1
 62
7
100
AcDbSpline
 70
8
 71
3
 72
8
 73
4
 74
0
 40
0
 40
0
 40
0
 40
0
 40
1
 40
1
 40
1
 40
1
 10
61.092356
 20
36.261824
 30
0.0
 10
61.092356
 20
34.908570
 30
0.0
 10
61.013340
 20
34.582566
 30
0.0
 10
60.746640
 20
34.286233
 30
0.0
  0
SPLINE
  5
12c
100
AcDbEntity
  8
Layer_1
 62
7
100
AcDbSpline
 70
8
 71
3
 72
8
 73
4
 74
0
 40
0
 40
0
 40
0
 40
0
 40
1
 40
1
 40
1
 40
1
 10
60.746640
 20
34.286233
 30
0.0
 10
60.549084
 20
34.059043
 30
0.0
 10
60.242461
 20
33.910546
 30
0.0
 10
59.867107
 20
33.910546
 30
0.0
  0
SPLINE
  5
12d
100
AcDbEntity
  8
Layer_1
 62
7
100
AcDbSpline
 70
8
 71
3
 72
8
 73
4
 74
0
 40
0
 40
0
 40
0
 40
0
 40
1
 40
1
 40
1
 40
1
 10
59.867107
 20
33.910546
 30
0.0
 10
59.572634
 20
33.910546
 30
0.0
 10
59.315869
 20
34.002878
 30
0.0
 10
59.122967
 20
34.151875
 30
0.0
  0
LWPOLYLINE
  5
12e
100
AcDbEntity
  8
Layer_1
 62
7
100
AcDbPolyline
 90
2
 70
0
 10
61.884555
 20
38.935563
 30
0.0
 10
61.043778
 20
37.479320
 30
0.0
  0
SPLINE
  5
12f
100
AcDbEntity
  8
Layer_1
 62
7
100
AcDbSpline
 70
8
 71
3
 72
8
 73
4
 74
0
 40
0
 40
0
 40
0
 40
0
 40
1
 40
1
 40
1
 40
1
 10
58.484247
 20
33.045483
 30
0.0
 10
58.874245
 20
32.812210
 30
0.0
 10
59.327680
 20
32.685814
 30
0.0
 10
59.867107
 20
32.685814
 30
0.0
  0
SPLINE
  5
130
100
AcDbEntity
  8
Layer_1
 62
7
100
AcDbSpline
 70
8
 71
3
 72
8
 73
4
 74
0
 40
0
 40
0
 40
0
 40
0
 40
1
 40
1
 40
1
 40
1
 10
59.867107
 20
32.685814
 30
0.0
 10
60.667205
 20
32.685814
 30
0.0
 10
61.269746
 20
32.962422
 30
0.0
 10
61.763633
 20
33.456309
 30
0.0
  0
SPLINE
  5
131
100
AcDbEntity
  8
Layer_1
 62
7
100
AcDbSpline
 70
8
 71
3
 72
8
 73
4
 74
0
 40
0
 40
0
 40
0
 40
0
 40
1
 40
1
 40
1
 40
1
 10
61.763633
 20
33.456309
 30
0.0
 10
62.474830
 20
34.167509
 30
0.0
 10
62.465398
 20
35.046857
 30
0.0
 10
62.465398
 20
36.261824
 30
0.0
  0
SPLINE
  5
132
100
AcDbEntity
  8
Layer_1
 62
7
100
AcDbSpline
 70
8
 71
3
 72
8
 73
4
 74
0
 40
0
 40
0
 40
0
 40
0
 40
1
 40
1
 40
1
 40
1
 10
62.465398
 20
36.261824
 30
0.0
 10
62.465398
 20
37.403258
 30
0.0
 10
62.473229
 20
38.247731
 30
0.0
 10
61.884555
 20
38.935563
 30
0.0
  0
LWPOLYLINE
  5
133
100
AcDbEntity
  8
Layer_1
 62
7
100
AcDbPolyline
 90
2
 70
0
 10
59.122967
 20
34.151875
 30
0.0
 10
58.484247
 20
33.045483
 30
0.0
  0
LWPOLYLINE
  5
134
100
AcDbEntity
  8
Layer_1
 62
7
100
AcDbPolyline
 90
1
 70
1
 10
61.884555
 20
38.935563
 30
0.0
  0
LWPOLYLINE
  5
135
100
AcDbEntity
  8
Layer_1
 62
7
100
AcDbPolyline
 90
12
 70
1
 10
74.381799
 20
32.804477
 30
0.0
 10
74.381799
 20
34.029321
 30
0.0
 10
71.122135
 20
34.029321
 30
0.0
 10
71.122135
 20
35.738175
 30
0.0
 10
73.897786
 20
35.738175
 30
0.0
 10
73.897786
 20
36.963018
 30
0.0
 10
71.122135
 20
36.963018
 30
0.0
 10
71.122135
 20
38.612605
 30
0.0
 10
74.381799
 20
38.612605
 30
0.0
 10
74.381799
 20
39.837449
 30
0.0
 10
69.749125
 20
39.837449
 30
0.0
 10
69.749125
 20
32.804477
 30
0.0
  0
LWPOLYLINE
  5
136
100
AcDbEntity
  8
Layer_1
 62
7
100
AcDbPolyline
 90
6
 70
1
 10
86.444805
 20
32.804477
 30
0.0
 10
86.444805
 20
34.029321
 30
0.0
 10
83.254287
 20
34.029321
 30
0.0
 10
83.254287
 20
39.837449
 30
0.0
 10
81.881277
 20
39.837449
 30
0.0
 10
81.881277
 20
32.804477
 30
0.0
  0
LWPOLYLINE
  5
137
100
AcDbEntity
  8
Layer_1
 62
7
100
AcDbPolyline
 90
7
 70
1
 10
98.809310
 20
39.837449
 30
0.0
 10
97.377033
 20
39.837449
 30
0.0
 10
95.964513
 20
35.254164
 30
0.0
 10
94.551992
 20
39.837449
 30
0.0
 10
93.129592
 20
39.837449
 30
0.0
 10
95.450869
 20
32.804477
 30
0.0
 10
96.478156
 20
32.804477
 30
0.0
  0
LWPOLYLINE
  5
138
100
AcDbEntity
  8
Layer_1
 62
7
100
AcDbPolyline
 90
15
 70
1
 10
107.445082
 20
39.837316
 30
0.0
 10
104.886582
 20
32.804670
 30
0.0
 10
106.312334
 20
32.804670
 30
0.0
 10
107.130371
 20
35.204523
 30
0.0
 10
107.128783
 20
35.204523
 30
0.0
 10
107.207846
 20
35.432417
 30
0.0
 10
107.216630
 20
35.457737
 30
0.0
 10
108.018130
 20
37.763023
 30
0.0
 10
108.877510
 20
35.204523
 30
0.0
 10
107.648128
 20
35.204523
 30
0.0
 10
107.648128
 20
34.049037
 30
0.0
 10
109.242862
 20
34.049037
 30
0.0
 10
109.657824
 20
32.804670
 30
0.0
 10
111.089778
 20
32.804670
 30
0.0
 10
108.521460
 20
39.837316
 30
0.0
  0
SPLINE
  5
139
100
AcDbEntity
  8
Layer_1
 62
7
100
AcDbSpline
 70
8
 71
3
 72
8
 73
4
 74
0
 40
0
 40
0
 40
0
 40
0
 40
1
 40
1
 40
1
 40
1
 10
132.191891
 20
39.837316
 30
0.0
 10
131.391793
 20
39.837316
 30
0.0
 10
130.779434
 20
39.560707
 30
0.0
 10
130.285547
 20
39.066820
 30
0.0
  0
SPLINE
  5
13a
100
AcDbEntity
  8
Layer_1
 62
7
100
AcDbSpline
 70
8
 71
3
 72
8
 73
4
 74
0
 40
0
 40
0
 40
0
 40
0
 40
1
 40
1
 40
1
 40
1
 10
130.285547
 20
39.066820
 30
0.0
 10
129.574349
 20
38.355620
 30
0.0
 10
129.594116
 20
37.476785
 30
0.0
 10
129.594116
 20
36.261824
 30
0.0
  0
SPLINE
  5
13b
100
AcDbEntity
  8
Layer_1
 62
7
100
AcDbSpline
 70
8
 71
3
 72
8
 73
4
 74
0
 40
0
 40
0
 40
0
 40
0
 40
1
 40
1
 40
1
 40
1
 10
129.594116
 20
36.261824
 30
0.0
 10
129.594116
 20
35.157368
 30
0.0
 10
129.580120
 20
34.330805
 30
0.0
 10
130.111398
 20
33.655265
 30
0.0
  0
LWPOLYLINE
  5
13c
100
AcDbEntity
  8
Layer_1
 62
7
100
AcDbPolyline
 90
8
 70
1
 10
122.629927
 20
38.612605
 30
0.0
 10
122.629927
 20
39.837449
 30
0.0
 10
117.582386
 20
39.837449
 30
0.0
 10
117.582386
 20
38.612605
 30
0.0
 10
119.419653
 20
38.612605
 30
0.0
 10
119.419653
 20
32.804477
 30
0.0
 10
120.792663
 20
32.804477
 30
0.0
 10
120.792663
 20
38.612605
 30
0.0
  0
SPLINE
  5
13d
100
AcDbEntity
  8
Layer_1
 62
7
100
AcDbSpline
 70
8
 71
3
 72
8
 73
4
 74
0
 40
0
 40
0
 40
0
 40
0
 40
1
 40
1
 40
1
 40
1
 10
130.998165
 20
35.191606
 30
0.0
 10
130.976337
 20
35.455075
 30
0.0
 10
130.967161
 20
35.794128
 30
0.0
 10
130.967161
 20
36.261824
 30
0.0
  0
SPLINE
  5
13e
100
AcDbEntity
  8
Layer_1
 62
7
100
AcDbSpline
 70
8
 71
3
 72
8
 73
4
 74
0
 40
0
 40
0
 40
0
 40
0
 40
1
 40
1
 40
1
 40
1
 10
130.967161
 20
36.261824
 30
0.0
 10
130.967161
 20
37.615075
 30
0.0
 10
131.036357
 20
37.941081
 30
0.0
 10
131.303057
 20
38.237415
 30
0.0
  0
SPLINE
  5
13f
100
AcDbEntity
  8
Layer_1
 62
7
100
AcDbSpline
 70
8
 71
3
 72
8
 73
4
 74
0
 40
0
 40
0
 40
0
 40
0
 40
1
 40
1
 40
1
 40
1
 10
131.303057
 20
38.237415
 30
0.0
 10
131.500614
 20
38.464599
 30
0.0
 10
131.816534
 20
38.612583
 30
0.0
 10
132.191891
 20
38.612583
 30
0.0
  0
SPLINE
  5
140
100
AcDbEntity
  8
Layer_1
 62
7
100
AcDbSpline
 70
8
 71
3
 72
8
 73
4
 74
0
 40
0
 40
0
 40
0
 40
0
 40
1
 40
1
 40
1
 40
1
 10
132.191891
 20
38.612583
 30
0.0
 10
132.453389
 20
38.612583
 30
0.0
 10
132.680597
 20
38.539759
 30
0.0
 10
132.861617
 20
38.419316
 30
0.0
  0
LWPOLYLINE
  5
141
100
AcDbEntity
  8
Layer_1
 62
7
100
AcDbPolyline
 90
2
 70
0
 10
130.111398
 20
33.655265
 30
0.0
 10
130.998165
 20
35.191606
 30
0.0
  0
SPLINE
  5
142
100
AcDbEntity
  8
Layer_1
 62
7
100
AcDbSpline
 70
8
 71
3
 72
8
 73
4
 74
0
 40
0
 40
0
 40
0
 40
0
 40
1
 40
1
 40
1
 40
1
 10
133.497239
 20
39.519506
 30
0.0
 10
133.126423
 20
39.726305
 30
0.0
 10
132.698592
 20
39.837316
 30
0.0
 10
132.191891
 20
39.837316
 30
0.0
  0
LWPOLYLINE
  5
143
100
AcDbEntity
  8
Layer_1
 62
7
100
AcDbPolyline
 90
2
 70
0
 10
132.861617
 20
38.419316
 30
0.0
 10
133.497239
 20
39.519506
 30
0.0
  0
LWPOLYLINE
  5
144
100
AcDbEntity
  8
Layer_1
 62
7
100
AcDbPolyline
 90
1
 70
1
 10
132.191891
 20
39.837316
 30
0.0
  0
SPLINE
  5
145
100
AcDbEntity
  8
Layer_1
 62
7
100
AcDbSpline
 70
8
 71
3
 72
8
 73
4
 74
0
 40
0
 40
0
 40
0
 40
0
 40
1
 40
1
 40
1
 40
1
 10
133.369080
 20
37.477254
 30
0.0
 10
133.403328
 20
37.198859
 30
0.0
 10
133.417139
 20
36.818050
 30
0.0
 10
133.417139
 20
36.261824
 30
0.0
  0
SPLINE
  5
146
100
AcDbEntity
  8
Layer_1
 62
7
100
AcDbSpline
 70
8
 71
3
 72
8
 73
4
 74
0
 40
0
 40
0
 40
0
 40
0
 40
1
 40
1
 40
1
 40
1
 10
133.417139
 20
36.261824
 30
0.0
 10
133.417139
 20
34.908570
 30
0.0
 10
133.338124
 20
34.582566
 30
0.0
 10
133.071424
 20
34.286233
 30
0.0
  0
SPLINE
  5
147
100
AcDbEntity
  8
Layer_1
 62
7
100
AcDbSpline
 70
8
 71
3
 72
8
 73
4
 74
0
 40
0
 40
0
 40
0
 40
0
 40
1
 40
1
 40
1
 40
1
 10
133.071424
 20
34.286233
 30
0.0
 10
132.873867
 20
34.059043
 30
0.0
 10
132.567244
 20
33.910546
 30
0.0
 10
132.191891
 20
33.910546
 30
0.0
  0
SPLINE
  5
148
100
AcDbEntity
  8
Layer_1
 62
7
100
AcDbSpline
 70
8
 71
3
 72
8
 73
4
 74
0
 40
0
 40
0
 40
0
 40
0
 40
1
 40
1
 40
1
 40
1
 10
132.191891
 20
33.910546
 30
0.0
 10
131.897875
 20
33.910546
 30
0.0
 10
131.641589
 20
34.002769
 30
0.0
 10
131.448785
 20
34.151359
 30
0.0
  0
LWPOLYLINE
  5
149
100
AcDbEntity
  8
Layer_1
 62
7
100
AcDbPolyline
 90
2
 70
0
 10
134.210373
 20
38.935044
 30
0.0
 10
133.369080
 20
37.477254
 30
0.0
  0
SPLINE
  5
14a
100
AcDbEntity
  8
Layer_1
 62
7
100
AcDbSpline
 70
8
 71
3
 72
8
 73
4
 74
0
 40
0
 40
0
 40
0
 40
0
 40
1
 40
1
 40
1
 40
1
 10
130.810064
 20
33.044964
 30
0.0
 10
131.199841
 20
32.812073
 30
0.0
 10
131.652921
 20
32.685814
 30
0.0
 10
132.191891
 20
32.685814
 30
0.0
  0
SPLINE
  5
14b
100
AcDbEntity
  8
Layer_1
 62
7
100
AcDbSpline
 70
8
 71
3
 72
8
 73
4
 74
0
 40
0
 40
0
 40
0
 40
0
 40
1
 40
1
 40
1
 40
1
 10
132.191891
 20
32.685814
 30
0.0
 10
132.991988
 20
32.685814
 30
0.0
 10
133.595047
 20
32.962422
 30
0.0
 10
134.088932
 20
33.456309
 30
0.0
  0
SPLINE
  5
14c
100
AcDbEntity
  8
Layer_1
 62
7
100
AcDbSpline
 70
8
 71
3
 72
8
 73
4
 74
0
 40
0
 40
0
 40
0
 40
0
 40
1
 40
1
 40
1
 40
1
 10
134.088932
 20
33.456309
 30
0.0
 10
134.800132
 20
34.167509
 30
0.0
 10
134.790181
 20
35.046857
 30
0.0
 10
134.790181
 20
36.261824
 30
0.0
  0
SPLINE
  5
14d
100
AcDbEntity
  8
Layer_1
 62
7
100
AcDbSpline
 70
8
 71
3
 72
8
 73
4
 74
0
 40
0
 40
0
 40
0
 40
0
 40
1
 40
1
 40
1
 40
1
 10
134.790181
 20
36.261824
 30
0.0
 10
134.790181
 20
37.402956
 30
0.0
 10
134.798568
 20
38.247313
 30
0.0
 10
134.210373
 20
38.935044
 30
0.0
  0
LWPOLYLINE
  5
14e
100
AcDbEntity
  8
Layer_1
 62
7
100
AcDbPolyline
 90
2
 70
0
 10
131.448785
 20
34.151359
 30
0.0
 10
130.810064
 20
33.044964
 30
0.0
  0
LWPOLYLINE
  5
14f
100
AcDbEntity
  8
Layer_1
 62
7
100
AcDbPolyline
 90
1
 70
1
 10
134.210373
 20
38.935044
 30
0.0
  0
LWPOLYLINE
  5
150
100
AcDbEntity
  8
Layer_1
 62
7
100
AcDbPolyline
 90
6
 70
1
 10
146.676226
 20
32.804477
 30
0.0
 10
146.676226
 20
34.029321
 30
0.0
 10
143.485708
 20
34.029321
 30
0.0
 10
143.485708
 20
39.837449
 30
0.0
 10
142.112698
 20
39.837449
 30
0.0
 10
142.112698
 20
32.804477
 30
0.0
  0
LWPOLYLINE
  5
151
100
AcDbEntity
  8
Layer_1
 62
7
100
AcDbPolyline
 90
7
 70
1
 10
159.068172
 20
39.837449
 30
0.0
 10
157.635895
 20
39.837449
 30
0.0
 10
156.223375
 20
35.254164
 30
0.0
 10
154.810854
 20
39.837449
 30
0.0
 10
153.388454
 20
39.837449
 30
0.0
 10
155.709731
 20
32.804477
 30
0.0
 10
156.737018
 20
32.804477
 30
0.0
  0
SPLINE
  5
152
100
AcDbEntity
  8
Layer_1
 62
7
100
AcDbSpline
 70
8
 71
3
 72
8
 73
4
 74
0
 40
0
 40
0
 40
0
 40
0
 40
1
 40
1
 40
1
 40
1
 10
48.218217
 20
48.340144
 30
0.0
 10
48.218217
 20
47.530164
 30
0.0
 10
47.783594
 20
47.135054
 30
0.0
 10
47.111907
 20
47.135054
 30
0.0
  0
SPLINE
  5
153
100
AcDbEntity
  8
Layer_1
 62
7
100
AcDbSpline
 70
8
 71
3
 72
8
 73
4
 74
0
 40
0
 40
0
 40
0
 40
0
 40
1
 40
1
 40
1
 40
1
 10
47.111907
 20
47.135054
 30
0.0
 10
46.657530
 20
47.135054
 30
0.0
 10
46.440217
 20
47.302977
 30
0.0
 10
46.213030
 20
47.530164
 30
0.0
  0
LWPOLYLINE
  5
154
100
AcDbEntity
  8
Layer_1
 62
7
100
AcDbPolyline
 90
4
 70
0
 10
49.591227
 20
48.280877
 30
0.0
 10
49.591227
 20
53.002449
 30
0.0
 10
48.218217
 20
53.002449
 30
0.0
 10
48.218217
 20
48.340144
 30
0.0
  0
SPLINE
  5
155
100
AcDbEntity
  8
Layer_1
 62
7
100
AcDbSpline
 70
8
 71
3
 72
8
 73
4
 74
0
 40
0
 40
0
 40
0
 40
0
 40
1
 40
1
 40
1
 40
1
 10
45.304273
 20
46.631287
 30
0.0
 10
45.827797
 20
46.107767
 30
0.0
 10
46.351317
 20
45.910211
 30
0.0
 10
47.111907
 20
45.910211
 30
0.0
  0
SPLINE
  5
156
100
AcDbEntity
  8
Layer_1
 62
7
100
AcDbSpline
 70
8
 71
3
 72
8
 73
4
 74
0
 40
0
 40
0
 40
0
 40
0
 40
1
 40
1
 40
1
 40
1
 10
47.111907
 20
45.910211
 30
0.0
 10
48.415771
 20
45.910211
 30
0.0
 10
49.591227
 20
46.730067
 30
0.0
 10
49.591227
 20
48.280877
 30
0.0
  0
LWPOLYLINE
  5
157
100
AcDbEntity
  8
Layer_1
 62
7
100
AcDbPolyline
 90
2
 70
0
 10
46.213030
 20
47.530164
 30
0.0
 10
45.304273
 20
46.631287
 30
0.0
  0
LWPOLYLINE
  5
158
100
AcDbEntity
  8
Layer_1
 62
7
100
AcDbPolyline
 90
1
 70
1
 10
49.591227
 20
48.280877
 30
0.0
  0
SPLINE
  5
159
100
AcDbEntity
  8
Layer_1
 62
7
100
AcDbSpline
 70
8
 71
3
 72
8
 73
4
 74
0
 40
0
 40
0
 40
0
 40
0
 40
1
 40
1
 40
1
 40
1
 10
61.041806
 20
48.429044
 30
0.0
 10
61.041806
 20
47.619064
 30
0.0
 10
60.557794
 20
47.135054
 30
0.0
 10
59.816963
 20
47.135054
 30
0.0
  0
SPLINE
  5
15a
100
AcDbEntity
  8
Layer_1
 62
7
100
AcDbSpline
 70
8
 71
3
 72
8
 73
4
 74
0
 40
0
 40
0
 40
0
 40
0
 40
1
 40
1
 40
1
 40
1
 10
59.816963
 20
47.135054
 30
0.0
 10
59.076130
 20
47.135054
 30
0.0
 10
58.601996
 20
47.619064
 30
0.0
 10
58.601996
 20
48.429044
 30
0.0
  0
LWPOLYLINE
  5
15b
100
AcDbEntity
  8
Layer_1
 62
7
100
AcDbPolyline
 90
4
 70
0
 10
62.404937
 20
48.379654
 30
0.0
 10
62.404937
 20
53.002449
 30
0.0
 10
61.041806
 20
53.002449
 30
0.0
 10
61.041806
 20
48.429044
 30
0.0
  0
SPLINE
  5
15c
100
AcDbEntity
  8
Layer_1
 62
7
100
AcDbSpline
 70
8
 71
3
 72
8
 73
4
 74
0
 40
0
 40
0
 40
0
 40
0
 40
1
 40
1
 40
1
 40
1
 10
57.228986
 20
48.379654
 30
0.0
 10
57.228986
 20
46.888111
 30
0.0
 10
58.374807
 20
45.910211
 30
0.0
 10
59.816963
 20
45.910211
 30
0.0
  0
SPLINE
  5
15d
100
AcDbEntity
  8
Layer_1
 62
7
100
AcDbSpline
 70
8
 71
3
 72
8
 73
4
 74
0
 40
0
 40
0
 40
0
 40
0
 40
1
 40
1
 40
1
 40
1
 10
59.816963
 20
45.910211
 30
0.0
 10
61.259117
 20
45.910211
 30
0.0
 10
62.404937
 20
46.888111
 30
0.0
 10
62.404937
 20
48.379654
 30
0.0
  0
LWPOLYLINE
  5
15e
100
AcDbEntity
  8
Layer_1
 62
7
100
AcDbPolyline
 90
4
 70
0
 10
58.601996
 20
48.429044
 30
0.0
 10
58.601996
 20
53.002449
 30
0.0
 10
57.228986
 20
53.002449
 30
0.0
 10
57.228986
 20
48.379654
 30
0.0
  0
LWPOLYLINE
  5
15f
100
AcDbEntity
  8
Layer_1
 62
7
100
AcDbPolyline
 90
1
 70
1
 10
62.404937
 20
48.379654
 30
0.0
  0
LWPOLYLINE
  5
160
100
AcDbEntity
  8
Layer_1
 62
7
100
AcDbPolyline
 90
8
 70
1
 10
86.249365
 20
51.777605
 30
0.0
 10
86.249365
 20
53.002449
 30
0.0
 10
81.201824
 20
53.002449
 30
0.0
 10
81.201824
 20
51.777605
 30
0.0
 10
83.039091
 20
51.777605
 30
0.0
 10
83.039091
 20
45.969477
 30
0.0
 10
84.412101
 20
45.969477
 30
0.0
 10
84.412101
 20
51.777605
 30
0.0
  0
LWPOLYLINE
  5
161
100
AcDbEntity
  8
Layer_1
 62
7
100
AcDbPolyline
 90
8
 70
1
 10
98.272826
 20
51.777605
 30
0.0
 10
98.272826
 20
53.002449
 30
0.0
 10
93.225285
 20
53.002449
 30
0.0
 10
93.225285
 20
51.777605
 30
0.0
 10
95.062552
 20
51.777605
 30
0.0
 10
95.062552
 20
45.969477
 30
0.0
 10
96.435562
 20
45.969477
 30
0.0
 10
96.435562
 20
51.777605
 30
0.0
  0
LWPOLYLINE
  5
162
100
AcDbEntity
  8
Layer_1
 62
7
100
AcDbPolyline
 90
13
 70
1
 10
107.277649
 20
53.002404
 30
0.0
 10
104.719150
 20
45.969242
 30
0.0
 10
106.145418
 20
45.969242
 30
0.0
 10
106.963973
 20
48.369610
 30
0.0
 10
106.961327
 20
48.369610
 30
0.0
 10
107.850160
 20
50.928113
 30
0.0
 10
108.709540
 20
48.369610
 30
0.0
 10
107.481191
 20
48.369610
 30
0.0
 10
107.481191
 20
47.214127
 30
0.0
 10
109.075408
 20
47.214127
 30
0.0
 10
109.490370
 20
45.969242
 30
0.0
 10
110.922324
 20
45.969242
 30
0.0
 10
108.354006
 20
53.002404
 30
0.0
  0
LWPOLYLINE
  5
163
100
AcDbEntity
  8
Layer_1
 62
7
100
AcDbPolyline
 90
4
 70
1
 10
120.735685
 20
45.969477
 30
0.0
 10
120.735685
 20
53.002449
 30
0.0
 10
119.362675
 20
53.002449
 30
0.0
 10
119.362675
 20
45.969477
 30
0.0
  0
LWPOLYLINE
  5
164
100
AcDbEntity
  8
Layer_1
 62
7
100
AcDbPolyline
 90
10
 70
1
 10
134.856591
 20
45.969477
 30
0.0
 10
134.856591
 20
53.002449
 30
0.0
 10
133.483581
 20
53.002449
 30
0.0
 10
133.483581
 20
48.695741
 30
0.0
 10
130.698050
 20
53.002449
 30
0.0
 10
129.473207
 20
53.002449
 30
0.0
 10
129.473207
 20
45.969477
 30
0.0
 10
130.846217
 20
45.969477
 30
0.0
 10
130.846217
 20
50.286064
 30
0.0
 10
133.631747
 20
45.969477
 30
0.0
  0
SPLINE
  5
165
100
AcDbEntity
  8
Layer_1
 62
7
100
AcDbSpline
 70
8
 71
3
 72
8
 73
4
 74
0
 40
0
 40
0
 40
0
 40
0
 40
1
 40
1
 40
1
 40
1
 10
156.340804
 20
53.002403
 30
0.0
 10
155.540706
 20
53.002403
 30
0.0
 10
154.928347
 20
52.725794
 30
0.0
 10
154.434462
 20
52.231907
 30
0.0
  0
SPLINE
  5
166
100
AcDbEntity
  8
Layer_1
 62
7
100
AcDbSpline
 70
8
 71
3
 72
8
 73
4
 74
0
 40
0
 40
0
 40
0
 40
0
 40
1
 40
1
 40
1
 40
1
 10
154.434462
 20
52.231907
 30
0.0
 10
153.723262
 20
51.520710
 30
0.0
 10
153.743029
 20
50.641875
 30
0.0
 10
153.743029
 20
49.426911
 30
0.0
  0
SPLINE
  5
167
100
AcDbEntity
  8
Layer_1
 62
7
100
AcDbSpline
 70
8
 71
3
 72
8
 73
4
 74
0
 40
0
 40
0
 40
0
 40
0
 40
1
 40
1
 40
1
 40
1
 10
153.743029
 20
49.426911
 30
0.0
 10
153.743029
 20
48.322146
 30
0.0
 10
153.729086
 20
47.495482
 30
0.0
 10
154.260830
 20
46.819834
 30
0.0
  0
LWPOLYLINE
  5
168
100
AcDbEntity
  8
Layer_1
 62
7
100
AcDbPolyline
 90
4
 70
1
 10
144.902258
 20
45.969477
 30
0.0
 10
144.902258
 20
53.002449
 30
0.0
 10
143.529248
 20
53.002449
 30
0.0
 10
143.529248
 20
45.969477
 30
0.0
  0
SPLINE
  5
169
100
AcDbEntity
  8
Layer_1
 62
7
100
AcDbSpline
 70
8
 71
3
 72
8
 73
4
 74
0
 40
0
 40
0
 40
0
 40
0
 40
1
 40
1
 40
1
 40
1
 10
155.147078
 20
48.355142
 30
0.0
 10
155.125197
 20
48.618749
 30
0.0
 10
155.116074
 20
48.958578
 30
0.0
 10
155.116074
 20
49.426911
 30
0.0
  0
SPLINE
  5
16a
100
AcDbEntity
  8
Layer_1
 62
7
100
AcDbSpline
 70
8
 71
3
 72
8
 73
4
 74
0
 40
0
 40
0
 40
0
 40
0
 40
1
 40
1
 40
1
 40
1
 10
155.116074
 20
49.426911
 30
0.0
 10
155.116074
 20
50.780165
 30
0.0
 10
155.185271
 20
51.106169
 30
0.0
 10
155.451971
 20
51.402502
 30
0.0
  0
SPLINE
  5
16b
100
AcDbEntity
  8
Layer_1
 62
7
100
AcDbSpline
 70
8
 71
3
 72
8
 73
4
 74
0
 40
0
 40
0
 40
0
 40
0
 40
1
 40
1
 40
1
 40
1
 10
155.451971
 20
51.402502
 30
0.0
 10
155.649527
 20
51.629689
 30
0.0
 10
155.965447
 20
51.777673
 30
0.0
 10
156.340804
 20
51.777673
 30
0.0
  0
SPLINE
  5
16c
100
AcDbEntity
  8
Layer_1
 62
7
100
AcDbSpline
 70
8
 71
3
 72
8
 73
4
 74
0
 40
0
 40
0
 40
0
 40
0
 40
1
 40
1
 40
1
 40
1
 10
156.340804
 20
51.777673
 30
0.0
 10
156.602636
 20
51.777673
 30
0.0
 10
156.829915
 20
51.704090
 30
0.0
 10
157.011049
 20
51.583369
 30
0.0
  0
LWPOLYLINE
  5
16d
100
AcDbEntity
  8
Layer_1
 62
7
100
AcDbPolyline
 90
2
 70
0
 10
154.260830
 20
46.819834
 30
0.0
 10
155.147078
 20
48.355142
 30
0.0
  0
SPLINE
  5
16e
100
AcDbEntity
  8
Layer_1
 62
7
100
AcDbSpline
 70
8
 71
3
 72
8
 73
4
 74
0
 40
0
 40
0
 40
0
 40
0
 40
1
 40
1
 40
1
 40
1
 10
157.646668
 20
52.684078
 30
0.0
 10
157.275717
 20
52.891085
 30
0.0
 10
156.847772
 20
53.002403
 30
0.0
 10
156.340804
 20
53.002403
 30
0.0
  0
LWPOLYLINE
  5
16f
100
AcDbEntity
  8
Layer_1
 62
7
100
AcDbPolyline
 90
2
 70
0
 10
157.011049
 20
51.583369
 30
0.0
 10
157.646668
 20
52.684078
 30
0.0
  0
LWPOLYLINE
  5
170
100
AcDbEntity
  8
Layer_1
 62
7
100
AcDbPolyline
 90
1
 70
1
 10
156.340804
 20
53.002403
 30
0.0
  0
SPLINE
  5
171
100
AcDbEntity
  8
Layer_1
 62
7
100
AcDbSpline
 70
8
 71
3
 72
8
 73
4
 74
0
 40
0
 40
0
 40
0
 40
0
 40
1
 40
1
 40
1
 40
1
 10
157.517993
 20
50.641306
 30
0.0
 10
157.552148
 20
50.362996
 30
0.0
 10
157.566052
 20
49.982465
 30
0.0
 10
157.566052
 20
49.426911
 30
0.0
  0
SPLINE
  5
172
100
AcDbEntity
  8
Layer_1
 62
7
100
AcDbSpline
 70
8
 71
3
 72
8
 73
4
 74
0
 40
0
 40
0
 40
0
 40
0
 40
1
 40
1
 40
1
 40
1
 10
157.566052
 20
49.426911
 30
0.0
 10
157.566052
 20
48.073660
 30
0.0
 10
157.487037
 20
47.747654
 30
0.0
 10
157.220337
 20
47.451320
 30
0.0
  0
SPLINE
  5
173
100
AcDbEntity
  8
Layer_1
 62
7
100
AcDbSpline
 70
8
 71
3
 72
8
 73
4
 74
0
 40
0
 40
0
 40
0
 40
0
 40
1
 40
1
 40
1
 40
1
 10
157.220337
 20
47.451320
 30
0.0
 10
157.022781
 20
47.224131
 30
0.0
 10
156.716158
 20
47.075633
 30
0.0
 10
156.340804
 20
47.075633
 30
0.0
  0
SPLINE
  5
174
100
AcDbEntity
  8
Layer_1
 62
7
100
AcDbSpline
 70
8
 71
3
 72
8
 73
4
 74
0
 40
0
 40
0
 40
0
 40
0
 40
1
 40
1
 40
1
 40
1
 10
156.340804
 20
47.075633
 30
0.0
 10
156.046921
 20
47.075633
 30
0.0
 10
155.790473
 20
47.167460
 30
0.0
 10
155.597698
 20
47.315928
 30
0.0
  0
LWPOLYLINE
  5
175
100
AcDbEntity
  8
Layer_1
 62
7
100
AcDbPolyline
 90
2
 70
0
 10
158.359802
 20
52.099616
 30
0.0
 10
157.517993
 20
50.641306
 30
0.0
  0
SPLINE
  5
176
100
AcDbEntity
  8
Layer_1
 62
7
100
AcDbSpline
 70
8
 71
3
 72
8
 73
4
 74
0
 40
0
 40
0
 40
0
 40
0
 40
1
 40
1
 40
1
 40
1
 10
154.958978
 20
46.209536
 30
0.0
 10
155.348706
 20
45.976729
 30
0.0
 10
155.801938
 20
45.850903
 30
0.0
 10
156.340804
 20
45.850903
 30
0.0
  0
SPLINE
  5
177
100
AcDbEntity
  8
Layer_1
 62
7
100
AcDbSpline
 70
8
 71
3
 72
8
 73
4
 74
0
 40
0
 40
0
 40
0
 40
0
 40
1
 40
1
 40
1
 40
1
 10
156.340804
 20
45.850903
 30
0.0
 10
157.140901
 20
45.850903
 30
0.0
 10
157.743442
 20
46.127512
 30
0.0
 10
158.237329
 20
46.621397
 30
0.0
  0
SPLINE
  5
178
100
AcDbEntity
  8
Layer_1
 62
7
100
AcDbSpline
 70
8
 71
3
 72
8
 73
4
 74
0
 40
0
 40
0
 40
0
 40
0
 40
1
 40
1
 40
1
 40
1
 10
158.237329
 20
46.621397
 30
0.0
 10
158.948529
 20
47.332597
 30
0.0
 10
158.939097
 20
48.211945
 30
0.0
 10
158.939097
 20
49.426911
 30
0.0
  0
SPLINE
  5
179
100
AcDbEntity
  8
Layer_1
 62
7
100
AcDbSpline
 70
8
 71
3
 72
8
 73
4
 74
0
 40
0
 40
0
 40
0
 40
0
 40
1
 40
1
 40
1
 40
1
 10
158.939097
 20
49.426911
 30
0.0
 10
158.939097
 20
50.567742
 30
0.0
 10
158.947537
 20
51.411982
 30
0.0
 10
158.359802
 20
52.099616
 30
0.0
  0
LWPOLYLINE
  5
17a
100
AcDbEntity
  8
Layer_1
 62
7
100
AcDbPolyline
 90
2
 70
0
 10
155.597698
 20
47.315928
 30
0.0
 10
154.958978
 20
46.209536
 30
0.0
  0
LWPOLYLINE
  5
17b
100
AcDbEntity
  8
Layer_1
 62
7
100
AcDbPolyline
 90
1
 70
1
 10
158.359802
 20
52.099616
 30
0.0
  0
LWPOLYLINE
  5
17c
100
AcDbEntity
  8
Layer_1
 62
7
100
AcDbPolyline
 90
4
 70
1
 10
71.029216
 20
54.944404
 30
0.0
 10
71.029216
 20
53.644741
 30
0.0
 10
72.329394
 20
53.644741
 30
0.0
 10
72.329394
 20
54.944404
 30
0.0
  0
LWPOLYLINE
  5
17d
100
AcDbEntity
  8
Layer_1
 62
7
100
AcDbPolyline
 90
13
 70
1
 10
71.143939
 20
52.944008
 30
0.0
 10
68.585437
 20
45.910846
 30
0.0
 10
70.012740
 20
45.910846
 30
0.0
 10
70.831294
 20
48.311218
 30
0.0
 10
70.827669
 20
48.311218
 30
0.0
 10
71.717021
 20
50.869201
 30
0.0
 10
72.576401
 20
48.311218
 30
0.0
 10
71.348568
 20
48.311218
 30
0.0
 10
71.348568
 20
47.155216
 30
0.0
 10
72.941754
 20
47.155216
 30
0.0
 10
73.356716
 20
45.910846
 30
0.0
 10
74.788670
 20
45.910846
 30
0.0
 10
72.220867
 20
52.944008
 30
0.0
  0
LWPOLYLINE
  5
17e
100
AcDbEntity
  8
Layer_1
 62
7
100
AcDbPolyline
 90
12
 70
1
 10
50.266033
 20
59.181477
 30
0.0
 10
50.266033
 20
60.406321
 30
0.0
 10
47.006369
 20
60.406321
 30
0.0
 10
47.006369
 20
62.115175
 30
0.0
 10
49.782020
 20
62.115175
 30
0.0
 10
49.782020
 20
63.340018
 30
0.0
 10
47.006369
 20
63.340018
 30
0.0
 10
47.006369
 20
64.989605
 30
0.0
 10
50.266033
 20
64.989605
 30
0.0
 10
50.266033
 20
66.214449
 30
0.0
 10
45.633359
 20
66.214449
 30
0.0
 10
45.633359
 20
59.181477
 30
0.0
  0
LWPOLYLINE
  5
17f
100
AcDbEntity
  8
Layer_1
 62
7
100
AcDbPolyline
 90
13
 70
1
 10
63.150093
 20
59.181477
 30
0.0
 10
63.150093
 20
66.214449
 30
0.0
 10
61.796836
 20
66.214449
 30
0.0
 10
59.969449
 20
62.411508
 30
0.0
 10
58.132185
 20
66.214449
 30
0.0
 10
56.778932
 20
66.214449
 30
0.0
 10
56.778932
 20
59.181477
 30
0.0
 10
58.151942
 20
59.181477
 30
0.0
 10
58.151942
 20
63.280751
 30
0.0
 10
59.505196
 20
60.613754
 30
0.0
 10
60.433706
 20
60.613754
 30
0.0
 10
61.777083
 20
63.280751
 30
0.0
 10
61.777083
 20
59.181477
 30
0.0
  0
LWPOLYLINE
  5
180
100
AcDbEntity
  8
Layer_1
 62
7
100
AcDbPolyline
 90
10
 70
1
 10
86.315513
 20
64.989605
 30
0.0
 10
86.315513
 20
66.214449
 30
0.0
 10
81.682839
 20
66.214449
 30
0.0
 10
81.682839
 20
59.181477
 30
0.0
 10
83.055849
 20
59.181477
 30
0.0
 10
83.055849
 20
62.036154
 30
0.0
 10
85.831500
 20
62.036154
 30
0.0
 10
85.831500
 20
63.260998
 30
0.0
 10
83.055849
 20
63.260998
 30
0.0
 10
83.055849
 20
64.989605
 30
0.0
  0
SPLINE
  5
181
100
AcDbEntity
  8
Layer_1
 62
7
100
AcDbSpline
 70
8
 71
3
 72
8
 73
4
 74
0
 40
0
 40
0
 40
0
 40
0
 40
1
 40
1
 40
1
 40
1
 10
107.988200
 20
66.214518
 30
0.0
 10
107.188100
 20
66.214518
 30
0.0
 10
106.575743
 20
65.937907
 30
0.0
 10
106.081856
 20
65.444022
 30
0.0
  0
SPLINE
  5
182
100
AcDbEntity
  8
Layer_1
 62
7
100
AcDbSpline
 70
8
 71
3
 72
8
 73
4
 74
0
 40
0
 40
0
 40
0
 40
0
 40
1
 40
1
 40
1
 40
1
 10
106.081856
 20
65.444022
 30
0.0
 10
105.370659
 20
64.732822
 30
0.0
 10
105.390426
 20
63.853472
 30
0.0
 10
105.390426
 20
62.638508
 30
0.0
  0
SPLINE
  5
183
100
AcDbEntity
  8
Layer_1
 62
7
100
AcDbSpline
 70
8
 71
3
 72
8
 73
4
 74
0
 40
0
 40
0
 40
0
 40
0
 40
1
 40
1
 40
1
 40
1
 10
105.390426
 20
62.638508
 30
0.0
 10
105.390426
 20
61.535402
 30
0.0
 10
105.376350
 20
60.710137
 30
0.0
 10
105.905641
 20
60.035050
 30
0.0
  0
LWPOLYLINE
  5
184
100
AcDbEntity
  8
Layer_1
 62
7
100
AcDbPolyline
 90
6
 70
1
 10
98.681783
 20
59.181477
 30
0.0
 10
98.681783
 20
60.406321
 30
0.0
 10
95.491265
 20
60.406321
 30
0.0
 10
95.491265
 20
66.214449
 30
0.0
 10
94.118255
 20
66.214449
 30
0.0
 10
94.118255
 20
59.181477
 30
0.0
  0
SPLINE
  5
185
100
AcDbEntity
  8
Layer_1
 62
7
100
AcDbSpline
 70
8
 71
3
 72
8
 73
4
 74
0
 40
0
 40
0
 40
0
 40
0
 40
1
 40
1
 40
1
 40
1
 10
106.794474
 20
61.574491
 30
0.0
 10
106.773017
 20
61.837230
 30
0.0
 10
106.763468
 20
62.174183
 30
0.0
 10
106.763468
 20
62.638508
 30
0.0
  0
SPLINE
  5
186
100
AcDbEntity
  8
Layer_1
 62
7
100
AcDbSpline
 70
8
 71
3
 72
8
 73
4
 74
0
 40
0
 40
0
 40
0
 40
0
 40
1
 40
1
 40
1
 40
1
 10
106.763468
 20
62.638508
 30
0.0
 10
106.763468
 20
63.991762
 30
0.0
 10
106.832667
 20
64.317765
 30
0.0
 10
107.099367
 20
64.614099
 30
0.0
  0
SPLINE
  5
187
100
AcDbEntity
  8
Layer_1
 62
7
100
AcDbSpline
 70
8
 71
3
 72
8
 73
4
 74
0
 40
0
 40
0
 40
0
 40
0
 40
1
 40
1
 40
1
 40
1
 10
107.099367
 20
64.614099
 30
0.0
 10
107.296923
 20
64.841286
 30
0.0
 10
107.612844
 20
64.989786
 30
0.0
 10
107.988200
 20
64.989786
 30
0.0
  0
SPLINE
  5
188
100
AcDbEntity
  8
Layer_1
 62
7
100
AcDbSpline
 70
8
 71
3
 72
8
 73
4
 74
0
 40
0
 40
0
 40
0
 40
0
 40
1
 40
1
 40
1
 40
1
 10
107.988200
 20
64.989786
 30
0.0
 10
108.248492
 20
64.989786
 30
0.0
 10
108.474727
 20
64.916994
 30
0.0
 10
108.655345
 20
64.797550
 30
0.0
  0
LWPOLYLINE
  5
189
100
AcDbEntity
  8
Layer_1
 62
7
100
AcDbPolyline
 90
2
 70
0
 10
105.905641
 20
60.035050
 30
0.0
 10
106.794474
 20
61.574491
 30
0.0
  0
SPLINE
  5
18a
100
AcDbEntity
  8
Layer_1
 62
7
100
AcDbSpline
 70
8
 71
3
 72
8
 73
4
 74
0
 40
0
 40
0
 40
0
 40
0
 40
1
 40
1
 40
1
 40
1
 10
109.290448
 20
65.897740
 30
0.0
 10
108.920206
 20
66.103652
 30
0.0
 10
108.493774
 20
66.214518
 30
0.0
 10
107.988200
 20
66.214518
 30
0.0
  0
LWPOLYLINE
  5
18b
100
AcDbEntity
  8
Layer_1
 62
7
100
AcDbPolyline
 90
2
 70
0
 10
108.655345
 20
64.797550
 30
0.0
 10
109.290448
 20
65.897740
 30
0.0
  0
LWPOLYLINE
  5
18c
100
AcDbEntity
  8
Layer_1
 62
7
100
AcDbPolyline
 90
1
 70
1
 10
107.988200
 20
66.214518
 30
0.0
  0
SPLINE
  5
18d
100
AcDbEntity
  8
Layer_1
 62
7
100
AcDbSpline
 70
8
 71
3
 72
8
 73
4
 74
0
 40
0
 40
0
 40
0
 40
0
 40
1
 40
1
 40
1
 40
1
 10
109.164355
 20
63.860139
 30
0.0
 10
109.199121
 20
63.581276
 30
0.0
 10
109.213449
 20
63.198514
 30
0.0
 10
109.213449
 20
62.638508
 30
0.0
  0
SPLINE
  5
18e
100
AcDbEntity
  8
Layer_1
 62
7
100
AcDbSpline
 70
8
 71
3
 72
8
 73
4
 74
0
 40
0
 40
0
 40
0
 40
0
 40
1
 40
1
 40
1
 40
1
 10
109.213449
 20
62.638508
 30
0.0
 10
109.213449
 20
61.285257
 30
0.0
 10
109.134433
 20
60.959250
 30
0.0
 10
108.867733
 20
60.662917
 30
0.0
  0
SPLINE
  5
18f
100
AcDbEntity
  8
Layer_1
 62
7
100
AcDbSpline
 70
8
 71
3
 72
8
 73
4
 74
0
 40
0
 40
0
 40
0
 40
0
 40
1
 40
1
 40
1
 40
1
 10
108.867733
 20
60.662917
 30
0.0
 10
108.670177
 20
60.435727
 30
0.0
 10
108.363554
 20
60.287748
 30
0.0
 10
107.988200
 20
60.287748
 30
0.0
  0
SPLINE
  5
190
100
AcDbEntity
  8
Layer_1
 62
7
100
AcDbSpline
 70
8
 71
3
 72
8
 73
4
 74
0
 40
0
 40
0
 40
0
 40
0
 40
1
 40
1
 40
1
 40
1
 10
107.988200
 20
60.287748
 30
0.0
 10
107.692719
 20
60.287748
 30
0.0
 10
107.435107
 20
60.380204
 30
0.0
 10
107.241993
 20
60.530109
 30
0.0
  0
LWPOLYLINE
  5
191
100
AcDbEntity
  8
Layer_1
 62
7
100
AcDbPolyline
 90
2
 70
0
 10
110.004098
 20
65.314313
 30
0.0
 10
109.164355
 20
63.860139
 30
0.0
  0
SPLINE
  5
192
100
AcDbEntity
  8
Layer_1
 62
7
100
AcDbSpline
 70
8
 71
3
 72
8
 73
4
 74
0
 40
0
 40
0
 40
0
 40
0
 40
1
 40
1
 40
1
 40
1
 10
106.603273
 20
59.423717
 30
0.0
 10
106.993716
 20
59.189685
 30
0.0
 10
107.447860
 20
59.063016
 30
0.0
 10
107.988200
 20
59.063016
 30
0.0
  0
SPLINE
  5
193
100
AcDbEntity
  8
Layer_1
 62
7
100
AcDbSpline
 70
8
 71
3
 72
8
 73
4
 74
0
 40
0
 40
0
 40
0
 40
0
 40
1
 40
1
 40
1
 40
1
 10
107.988200
 20
59.063016
 30
0.0
 10
108.788298
 20
59.063016
 30
0.0
 10
109.390839
 20
59.339625
 30
0.0
 10
109.884726
 20
59.833512
 30
0.0
  0
SPLINE
  5
194
100
AcDbEntity
  8
Layer_1
 62
7
100
AcDbSpline
 70
8
 71
3
 72
8
 73
4
 74
0
 40
0
 40
0
 40
0
 40
0
 40
1
 40
1
 40
1
 40
1
 10
109.884726
 20
59.833512
 30
0.0
 10
110.595926
 20
60.544712
 30
0.0
 10
110.586491
 20
61.423544
 30
0.0
 10
110.586491
 20
62.638508
 30
0.0
  0
SPLINE
  5
195
100
AcDbEntity
  8
Layer_1
 62
7
100
AcDbSpline
 70
8
 71
3
 72
8
 73
4
 74
0
 40
0
 40
0
 40
0
 40
0
 40
1
 40
1
 40
1
 40
1
 10
110.586491
 20
62.638508
 30
0.0
 10
110.586491
 20
63.780846
 30
0.0
 10
110.594190
 20
64.626187
 30
0.0
 10
110.004098
 20
65.314313
 30
0.0
  0
LWPOLYLINE
  5
196
100
AcDbEntity
  8
Layer_1
 62
7
100
AcDbPolyline
 90
2
 70
0
 10
107.241993
 20
60.530109
 30
0.0
 10
106.603273
 20
59.423717
 30
0.0
  0
LWPOLYLINE
  5
197
100
AcDbEntity
  8
Layer_1
 62
7
100
AcDbPolyline
 90
1
 70
1
 10
110.004098
 20
65.314313
 30
0.0
  0
SPLINE
  5
198
100
AcDbEntity
  8
Layer_1
 62
7
100
AcDbSpline
 70
8
 71
3
 72
8
 73
4
 74
0
 40
0
 40
0
 40
0
 40
0
 40
1
 40
1
 40
1
 40
1
 10
120.338867
 20
64.989798
 30
0.0
 10
120.941411
 20
64.989798
 30
0.0
 10
121.336222
 20
64.604451
 30
0.0
 10
121.336222
 20
64.061174
 30
0.0
  0
SPLINE
  5
199
100
AcDbEntity
  8
Layer_1
 62
7
100
AcDbSpline
 70
8
 71
3
 72
8
 73
4
 74
0
 40
0
 40
0
 40
0
 40
0
 40
1
 40
1
 40
1
 40
1
 10
121.336222
 20
64.061174
 30
0.0
 10
121.336222
 20
63.517897
 30
0.0
 10
120.941411
 20
63.132548
 30
0.0
 10
120.338867
 20
63.132548
 30
0.0
  0
LWPOLYLINE
  5
19a
100
AcDbEntity
  8
Layer_1
 62
7
100
AcDbPolyline
 90
5
 70
0
 10
117.671846
 20
66.214518
 30
0.0
 10
117.671846
 20
64.989269
 30
0.0
 10
119.044891
 20
64.989269
 30
0.0
 10
119.044891
 20
64.989798
 30
0.0
 10
120.338867
 20
64.989798
 30
0.0
  0
SPLINE
  5
19b
100
AcDbEntity
  8
Layer_1
 62
7
100
AcDbSpline
 70
8
 71
3
 72
8
 73
4
 74
0
 40
0
 40
0
 40
0
 40
0
 40
1
 40
1
 40
1
 40
1
 10
121.425106
 20
62.213740
 30
0.0
 10
122.106673
 20
62.460683
 30
0.0
 10
122.709267
 20
63.073397
 30
0.0
 10
122.709267
 20
64.061174
 30
0.0
  0
SPLINE
  5
19c
100
AcDbEntity
  8
Layer_1
 62
7
100
AcDbSpline
 70
8
 71
3
 72
8
 73
4
 74
0
 40
0
 40
0
 40
0
 40
0
 40
1
 40
1
 40
1
 40
1
 10
122.709267
 20
64.061174
 30
0.0
 10
122.709267
 20
65.236628
 30
0.0
 10
121.860026
 20
66.214531
 30
0.0
 10
120.427752
 20
66.214531
 30
0.0
  0
LWPOLYLINE
  5
19d
100
AcDbEntity
  8
Layer_1
 62
7
100
AcDbPolyline
 90
11
 70
0
 10
120.338867
 20
63.132548
 30
0.0
 10
119.286736
 20
63.132548
 30
0.0
 10
119.044891
 20
63.132548
 30
0.0
 10
117.671846
 20
63.132548
 30
0.0
 10
117.671846
 20
59.181369
 30
0.0
 10
119.044891
 20
59.181369
 30
0.0
 10
119.044891
 20
61.986881
 30
0.0
 10
120.032427
 20
61.986881
 30
0.0
 10
121.405469
 20
59.181369
 30
0.0
 10
122.996070
 20
59.181369
 30
0.0
 10
121.425106
 20
62.213740
 30
0.0
  0
SPLINE
  5
19e
100
AcDbEntity
  8
Layer_1
 62
7
100
AcDbSpline
 70
8
 71
3
 72
8
 73
4
 74
0
 40
0
 40
0
 40
0
 40
0
 40
1
 40
1
 40
1
 40
1
 10
134.546140
 20
61.196545
 30
0.0
 10
134.546140
 20
61.818842
 30
0.0
 10
134.378217
 20
62.332488
 30
0.0
 10
134.002860
 20
62.688085
 30
0.0
  0
SPLINE
  5
19f
100
AcDbEntity
  8
Layer_1
 62
7
100
AcDbSpline
 70
8
 71
3
 72
8
 73
4
 74
0
 40
0
 40
0
 40
0
 40
0
 40
1
 40
1
 40
1
 40
1
 10
134.002860
 20
62.688085
 30
0.0
 10
133.706529
 20
62.964665
 30
0.0
 10
133.301540
 20
63.142465
 30
0.0
 10
132.659486
 20
63.231365
 30
0.0
  0
LWPOLYLINE
  5
1a0
100
AcDbEntity
  8
Layer_1
 62
7
100
AcDbPolyline
 90
2
 70
0
 10
120.427752
 20
66.214531
 30
0.0
 10
117.671846
 20
66.214518
 30
0.0
  0
SPLINE
  5
1a1
100
AcDbEntity
  8
Layer_1
 62
7
100
AcDbSpline
 70
8
 71
3
 72
8
 73
4
 74
0
 40
0
 40
0
 40
0
 40
0
 40
1
 40
1
 40
1
 40
1
 10
131.829753
 20
63.349898
 30
0.0
 10
131.543296
 20
63.389408
 30
0.0
 10
131.316109
 20
63.498065
 30
0.0
 10
131.177819
 20
63.626475
 30
0.0
  0
SPLINE
  5
1a2
100
AcDbEntity
  8
Layer_1
 62
7
100
AcDbSpline
 70
8
 71
3
 72
8
 73
4
 74
0
 40
0
 40
0
 40
0
 40
0
 40
1
 40
1
 40
1
 40
1
 10
131.177819
 20
63.626475
 30
0.0
 10
131.029653
 20
63.764762
 30
0.0
 10
130.970386
 20
63.952442
 30
0.0
 10
130.970386
 20
64.130242
 30
0.0
  0
SPLINE
  5
1a3
100
AcDbEntity
  8
Layer_1
 62
7
100
AcDbSpline
 70
8
 71
3
 72
8
 73
4
 74
0
 40
0
 40
0
 40
0
 40
0
 40
1
 40
1
 40
1
 40
1
 10
130.970386
 20
64.130242
 30
0.0
 10
130.970386
 20
64.614252
 30
0.0
 10
131.325986
 20
65.019239
 30
0.0
 10
132.056940
 20
65.019239
 30
0.0
  0
SPLINE
  5
1a4
100
AcDbEntity
  8
Layer_1
 62
7
100
AcDbSpline
 70
8
 71
3
 72
8
 73
4
 74
0
 40
0
 40
0
 40
0
 40
0
 40
1
 40
1
 40
1
 40
1
 10
132.056940
 20
65.019239
 30
0.0
 10
132.521196
 20
65.019239
 30
0.0
 10
133.054596
 20
64.959972
 30
0.0
 10
133.499096
 20
64.535229
 30
0.0
  0
LWPOLYLINE
  5
1a5
100
AcDbEntity
  8
Layer_1
 62
7
100
AcDbPolyline
 90
2
 70
0
 10
132.659486
 20
63.231365
 30
0.0
 10
131.829753
 20
63.349898
 30
0.0
  0
SPLINE
  5
1a6
100
AcDbEntity
  8
Layer_1
 62
7
100
AcDbSpline
 70
8
 71
3
 72
8
 73
4
 74
0
 40
0
 40
0
 40
0
 40
0
 40
1
 40
1
 40
1
 40
1
 10
134.368340
 20
65.394596
 30
0.0
 10
133.765796
 20
65.977383
 30
0.0
 10
133.064473
 20
66.214449
 30
0.0
 10
132.096453
 20
66.214449
 30
0.0
  0
SPLINE
  5
1a7
100
AcDbEntity
  8
Layer_1
 62
7
100
AcDbSpline
 70
8
 71
3
 72
8
 73
4
 74
0
 40
0
 40
0
 40
0
 40
0
 40
1
 40
1
 40
1
 40
1
 10
132.096453
 20
66.214449
 30
0.0
 10
130.575276
 20
66.214449
 30
0.0
 10
129.646766
 20
65.335329
 30
0.0
 10
129.646766
 20
64.080852
 30
0.0
  0
SPLINE
  5
1a8
100
AcDbEntity
  8
Layer_1
 62
7
100
AcDbSpline
 70
8
 71
3
 72
8
 73
4
 74
0
 40
0
 40
0
 40
0
 40
0
 40
1
 40
1
 40
1
 40
1
 10
129.646766
 20
64.080852
 30
0.0
 10
129.646766
 20
63.488185
 30
0.0
 10
129.814689
 20
63.033809
 30
0.0
 10
130.150532
 20
62.697965
 30
0.0
  0
SPLINE
  5
1a9
100
AcDbEntity
  8
Layer_1
 62
7
100
AcDbSpline
 70
8
 71
3
 72
8
 73
4
 74
0
 40
0
 40
0
 40
0
 40
0
 40
1
 40
1
 40
1
 40
1
 10
130.150532
 20
62.697965
 30
0.0
 10
130.466619
 20
62.391755
 30
0.0
 10
130.911119
 20
62.204075
 30
0.0
 10
131.513663
 20
62.115175
 30
0.0
  0
LWPOLYLINE
  5
1aa
100
AcDbEntity
  8
Layer_1
 62
7
100
AcDbPolyline
 90
2
 70
0
 10
133.499096
 20
64.535229
 30
0.0
 10
134.368340
 20
65.394596
 30
0.0
  0
SPLINE
  5
1ab
100
AcDbEntity
  8
Layer_1
 62
7
100
AcDbSpline
 70
8
 71
3
 72
8
 73
4
 74
0
 40
0
 40
0
 40
0
 40
0
 40
1
 40
1
 40
1
 40
1
 10
132.363153
 20
61.996642
 30
0.0
 10
132.689119
 20
61.947255
 30
0.0
 10
132.847163
 20
61.878109
 30
0.0
 10
132.985450
 20
61.749698
 30
0.0
  0
SPLINE
  5
1ac
100
AcDbEntity
  8
Layer_1
 62
7
100
AcDbSpline
 70
8
 71
3
 72
8
 73
4
 74
0
 40
0
 40
0
 40
0
 40
0
 40
1
 40
1
 40
1
 40
1
 10
132.985450
 20
61.749698
 30
0.0
 10
133.133617
 20
61.611409
 30
0.0
 10
133.202763
 20
61.403978
 30
0.0
 10
133.202763
 20
61.157032
 30
0.0
  0
SPLINE
  5
1ad
100
AcDbEntity
  8
Layer_1
 62
7
100
AcDbSpline
 70
8
 71
3
 72
8
 73
4
 74
0
 40
0
 40
0
 40
0
 40
0
 40
1
 40
1
 40
1
 40
1
 10
133.202763
 20
61.157032
 30
0.0
 10
133.202763
 20
60.593998
 30
0.0
 10
132.768140
 20
60.287788
 30
0.0
 10
131.958163
 20
60.287788
 30
0.0
  0
SPLINE
  5
1ae
100
AcDbEntity
  8
Layer_1
 62
7
100
AcDbSpline
 70
8
 71
3
 72
8
 73
4
 74
0
 40
0
 40
0
 40
0
 40
0
 40
1
 40
1
 40
1
 40
1
 10
131.958163
 20
60.287788
 30
0.0
 10
131.306230
 20
60.287788
 30
0.0
 10
130.703686
 20
60.435955
 30
0.0
 10
130.259186
 20
60.880455
 30
0.0
  0
LWPOLYLINE
  5
1af
100
AcDbEntity
  8
Layer_1
 62
7
100
AcDbPolyline
 90
2
 70
0
 10
131.513663
 20
62.115175
 30
0.0
 10
132.363153
 20
61.996642
 30
0.0
  0
SPLINE
  5
1b0
100
AcDbEntity
  8
Layer_1
 62
7
100
AcDbSpline
 70
8
 71
3
 72
8
 73
4
 74
0
 40
0
 40
0
 40
0
 40
0
 40
1
 40
1
 40
1
 40
1
 10
129.370189
 20
59.991455
 30
0.0
 10
130.061632
 20
59.290134
 30
0.0
 10
130.871609
 20
59.062945
 30
0.0
 10
131.938406
 20
59.062945
 30
0.0
  0
SPLINE
  5
1b1
100
AcDbEntity
  8
Layer_1
 62
7
100
AcDbSpline
 70
8
 71
3
 72
8
 73
4
 74
0
 40
0
 40
0
 40
0
 40
0
 40
1
 40
1
 40
1
 40
1
 10
131.938406
 20
59.062945
 30
0.0
 10
133.410196
 20
59.062945
 30
0.0
 10
134.546140
 20
59.833411
 30
0.0
 10
134.546140
 20
61.196545
 30
0.0
  0
LWPOLYLINE
  5
1b2
100
AcDbEntity
  8
Layer_1
 62
7
100
AcDbPolyline
 90
2
 70
0
 10
130.259186
 20
60.880455
 30
0.0
 10
129.370189
 20
59.991455
 30
0.0
  0
LWPOLYLINE
  5
1b3
100
AcDbEntity
  8
Layer_1
 62
7
100
AcDbPolyline
 90
1
 70
1
 10
134.546140
 20
61.196545
 30
0.0
  0
LWPOLYLINE
  5
1b4
100
AcDbEntity
  8
Layer_1
 62
7
100
AcDbPolyline
 90
12
 70
1
 10
146.644292
 20
59.181477
 30
0.0
 10
146.644292
 20
60.406321
 30
0.0
 10
143.384628
 20
60.406321
 30
0.0
 10
143.384628
 20
62.115175
 30
0.0
 10
146.160279
 20
62.115175
 30
0.0
 10
146.160279
 20
63.340018
 30
0.0
 10
143.384628
 20
63.340018
 30
0.0
 10
143.384628
 20
64.989605
 30
0.0
 10
146.644292
 20
64.989605
 30
0.0
 10
146.644292
 20
66.214449
 30
0.0
 10
142.011618
 20
66.214449
 30
0.0
 10
142.011618
 20
59.181477
 30
0.0
  0
SPLINE
  5
1b5
100
AcDbEntity
  8
Layer_1
 62
7
100
AcDbSpline
 70
8
 71
3
 72
8
 73
4
 74
0
 40
0
 40
0
 40
0
 40
0
 40
1
 40
1
 40
1
 40
1
 10
74.320362
 20
61.196545
 30
0.0
 10
74.320362
 20
61.818842
 30
0.0
 10
74.152439
 20
62.332488
 30
0.0
 10
73.777082
 20
62.688085
 30
0.0
  0
SPLINE
  5
1b6
100
AcDbEntity
  8
Layer_1
 62
7
100
AcDbSpline
 70
8
 71
3
 72
8
 73
4
 74
0
 40
0
 40
0
 40
0
 40
0
 40
1
 40
1
 40
1
 40
1
 10
73.777082
 20
62.688085
 30
0.0
 10
73.480751
 20
62.964665
 30
0.0
 10
73.075762
 20
63.142465
 30
0.0
 10
72.433708
 20
63.231365
 30
0.0
  0
LWPOLYLINE
  5
1b7
100
AcDbEntity
  8
Layer_1
 62
7
100
AcDbPolyline
 90
12
 70
1
 10
159.133419
 20
59.181477
 30
0.0
 10
156.940555
 20
62.786864
 30
0.0
 10
158.985252
 20
66.214449
 30
0.0
 10
157.434442
 20
66.214449
 30
0.0
 10
156.199721
 20
63.942562
 30
0.0
 10
154.974878
 20
66.214449
 30
0.0
 10
153.414191
 20
66.214449
 30
0.0
 10
155.458888
 20
62.786864
 30
0.0
 10
153.275901
 20
59.181477
 30
0.0
 10
154.846468
 20
59.181477
 30
0.0
 10
156.199721
 20
61.631164
 30
0.0
 10
157.562852
 20
59.181477
 30
0.0
  0
SPLINE
  5
1b8
100
AcDbEntity
  8
Layer_1
 62
7
100
AcDbSpline
 70
8
 71
3
 72
8
 73
4
 74
0
 40
0
 40
0
 40
0
 40
0
 40
1
 40
1
 40
1
 40
1
 10
71.603975
 20
63.349898
 30
0.0
 10
71.317518
 20
63.389408
 30
0.0
 10
71.090331
 20
63.498065
 30
0.0
 10
70.952041
 20
63.626475
 30
0.0
  0
SPLINE
  5
1b9
100
AcDbEntity
  8
Layer_1
 62
7
100
AcDbSpline
 70
8
 71
3
 72
8
 73
4
 74
0
 40
0
 40
0
 40
0
 40
0
 40
1
 40
1
 40
1
 40
1
 10
70.952041
 20
63.626475
 30
0.0
 10
70.803875
 20
63.764762
 30
0.0
 10
70.744608
 20
63.952442
 30
0.0
 10
70.744608
 20
64.130242
 30
0.0
  0
SPLINE
  5
1ba
100
AcDbEntity
  8
Layer_1
 62
7
100
AcDbSpline
 70
8
 71
3
 72
8
 73
4
 74
0
 40
0
 40
0
 40
0
 40
0
 40
1
 40
1
 40
1
 40
1
 10
70.744608
 20
64.130242
 30
0.0
 10
70.744608
 20
64.614252
 30
0.0
 10
71.100208
 20
65.019239
 30
0.0
 10
71.831162
 20
65.019239
 30
0.0
  0
SPLINE
  5
1bb
100
AcDbEntity
  8
Layer_1
 62
7
100
AcDbSpline
 70
8
 71
3
 72
8
 73
4
 74
0
 40
0
 40
0
 40
0
 40
0
 40
1
 40
1
 40
1
 40
1
 10
71.831162
 20
65.019239
 30
0.0
 10
72.295418
 20
65.019239
 30
0.0
 10
72.828818
 20
64.959972
 30
0.0
 10
73.273318
 20
64.535229
 30
0.0
  0
LWPOLYLINE
  5
1bc
100
AcDbEntity
  8
Layer_1
 62
7
100
AcDbPolyline
 90
2
 70
0
 10
72.433708
 20
63.231365
 30
0.0
 10
71.603975
 20
63.349898
 30
0.0
  0
SPLINE
  5
1bd
100
AcDbEntity
  8
Layer_1
 62
7
100
AcDbSpline
 70
8
 71
3
 72
8
 73
4
 74
0
 40
0
 40
0
 40
0
 40
0
 40
1
 40
1
 40
1
 40
1
 10
74.142562
 20
65.394596
 30
0.0
 10
73.540018
 20
65.977383
 30
0.0
 10
72.838695
 20
66.214449
 30
0.0
 10
71.870675
 20
66.214449
 30
0.0
  0
SPLINE
  5
1be
100
AcDbEntity
  8
Layer_1
 62
7
100
AcDbSpline
 70
8
 71
3
 72
8
 73
4
 74
0
 40
0
 40
0
 40
0
 40
0
 40
1
 40
1
 40
1
 40
1
 10
71.870675
 20
66.214449
 30
0.0
 10
70.349498
 20
66.214449
 30
0.0
 10
69.420988
 20
65.335329
 30
0.0
 10
69.420988
 20
64.080852
 30
0.0
  0
SPLINE
  5
1bf
100
AcDbEntity
  8
Layer_1
 62
7
100
AcDbSpline
 70
8
 71
3
 72
8
 73
4
 74
0
 40
0
 40
0
 40
0
 40
0
 40
1
 40
1
 40
1
 40
1
 10
69.420988
 20
64.080852
 30
0.0
 10
69.420988
 20
63.488185
 30
0.0
 10
69.588911
 20
63.033809
 30
0.0
 10
69.924754
 20
62.697965
 30
0.0
  0
SPLINE
  5
1c0
100
AcDbEntity
  8
Layer_1
 62
7
100
AcDbSpline
 70
8
 71
3
 72
8
 73
4
 74
0
 40
0
 40
0
 40
0
 40
0
 40
1
 40
1
 40
1
 40
1
 10
69.924754
 20
62.697965
 30
0.0
 10
70.240841
 20
62.391755
 30
0.0
 10
70.685341
 20
62.204075
 30
0.0
 10
71.287885
 20
62.115175
 30
0.0
  0
LWPOLYLINE
  5
1c1
100
AcDbEntity
  8
Layer_1
 62
7
100
AcDbPolyline
 90
2
 70
0
 10
73.273318
 20
64.535229
 30
0.0
 10
74.142562
 20
65.394596
 30
0.0
  0
SPLINE
  5
1c2
100
AcDbEntity
  8
Layer_1
 62
7
100
AcDbSpline
 70
8
 71
3
 72
8
 73
4
 74
0
 40
0
 40
0
 40
0
 40
0
 40
1
 40
1
 40
1
 40
1
 10
72.137375
 20
61.996642
 30
0.0
 10
72.463341
 20
61.947255
 30
0.0
 10
72.621385
 20
61.878109
 30
0.0
 10
72.759672
 20
61.749698
 30
0.0
  0
SPLINE
  5
1c3
100
AcDbEntity
  8
Layer_1
 62
7
100
AcDbSpline
 70
8
 71
3
 72
8
 73
4
 74
0
 40
0
 40
0
 40
0
 40
0
 40
1
 40
1
 40
1
 40
1
 10
72.759672
 20
61.749698
 30
0.0
 10
72.907839
 20
61.611409
 30
0.0
 10
72.976985
 20
61.403978
 30
0.0
 10
72.976985
 20
61.157032
 30
0.0
  0
SPLINE
  5
1c4
100
AcDbEntity
  8
Layer_1
 62
7
100
AcDbSpline
 70
8
 71
3
 72
8
 73
4
 74
0
 40
0
 40
0
 40
0
 40
0
 40
1
 40
1
 40
1
 40
1
 10
72.976985
 20
61.157032
 30
0.0
 10
72.976985
 20
60.593998
 30
0.0
 10
72.542362
 20
60.287788
 30
0.0
 10
71.732385
 20
60.287788
 30
0.0
  0
SPLINE
  5
1c5
100
AcDbEntity
  8
Layer_1
 62
7
100
AcDbSpline
 70
8
 71
3
 72
8
 73
4
 74
0
 40
0
 40
0
 40
0
 40
0
 40
1
 40
1
 40
1
 40
1
 10
71.732385
 20
60.287788
 30
0.0
 10
71.080452
 20
60.287788
 30
0.0
 10
70.477908
 20
60.435955
 30
0.0
 10
70.033408
 20
60.880455
 30
0.0
  0
LWPOLYLINE
  5
1c6
100
AcDbEntity
  8
Layer_1
 62
7
100
AcDbPolyline
 90
2
 70
0
 10
71.287885
 20
62.115175
 30
0.0
 10
72.137375
 20
61.996642
 30
0.0
  0
SPLINE
  5
1c7
100
AcDbEntity
  8
Layer_1
 62
7
100
AcDbSpline
 70
8
 71
3
 72
8
 73
4
 74
0
 40
0
 40
0
 40
0
 40
0
 40
1
 40
1
 40
1
 40
1
 10
69.144411
 20
59.991455
 30
0.0
 10
69.835854
 20
59.290134
 30
0.0
 10
70.645831
 20
59.062945
 30
0.0
 10
71.712628
 20
59.062945
 30
0.0
  0
SPLINE
  5
1c8
100
AcDbEntity
  8
Layer_1
 62
7
100
AcDbSpline
 70
8
 71
3
 72
8
 73
4
 74
0
 40
0
 40
0
 40
0
 40
0
 40
1
 40
1
 40
1
 40
1
 10
71.712628
 20
59.062945
 30
0.0
 10
73.184418
 20
59.062945
 30
0.0
 10
74.320362
 20
59.833411
 30
0.0
 10
74.320362
 20
61.196545
 30
0.0
  0
LWPOLYLINE
  5
1c9
100
AcDbEntity
  8
Layer_1
 62
7
100
AcDbPolyline
 90
2
 70
0
 10
70.033408
 20
60.880455
 30
0.0
 10
69.144411
 20
59.991455
 30
0.0
  0
LWPOLYLINE
  5
1ca
100
AcDbEntity
  8
Layer_1
 62
7
100
AcDbPolyline
 90
1
 70
1
 10
74.320362
 20
61.196545
 30
0.0
  0
SPLINE
  5
1cb
100
AcDbEntity
  8
Layer_1
 62
7
100
AcDbSpline
 70
8
 71
3
 72
8
 73
4
 74
0
 40
0
 40
0
 40
0
 40
0
 40
1
 40
1
 40
1
 40
1
 10
48.195468
 20
78.278367
 30
0.0
 10
48.798012
 20
78.278367
 30
0.0
 10
49.193339
 20
77.893539
 30
0.0
 10
49.193339
 20
77.350259
 30
0.0
  0
SPLINE
  5
1cc
100
AcDbEntity
  8
Layer_1
 62
7
100
AcDbSpline
 70
8
 71
3
 72
8
 73
4
 74
0
 40
0
 40
0
 40
0
 40
0
 40
1
 40
1
 40
1
 40
1
 10
49.193339
 20
77.350259
 30
0.0
 10
49.193339
 20
76.806982
 30
0.0
 10
48.798012
 20
76.421632
 30
0.0
 10
48.195468
 20
76.421632
 30
0.0
  0
LWPOLYLINE
  5
1cd
100
AcDbEntity
  8
Layer_1
 62
7
100
AcDbPolyline
 90
5
 70
0
 10
45.528447
 20
79.503629
 30
0.0
 10
45.528447
 20
78.278896
 30
0.0
 10
47.229636
 20
78.278896
 30
0.0
 10
47.229636
 20
78.278367
 30
0.0
 10
48.195468
 20
78.278367
 30
0.0
  0
SPLINE
  5
1ce
100
AcDbEntity
  8
Layer_1
 62
7
100
AcDbSpline
 70
8
 71
3
 72
8
 73
4
 74
0
 40
0
 40
0
 40
0
 40
0
 40
1
 40
1
 40
1
 40
1
 10
49.282223
 20
75.502851
 30
0.0
 10
49.963790
 20
75.749792
 30
0.0
 10
50.566383
 20
76.362506
 30
0.0
 10
50.566383
 20
77.350283
 30
0.0
  0
SPLINE
  5
1cf
100
AcDbEntity
  8
Layer_1
 62
7
100
AcDbSpline
 70
8
 71
3
 72
8
 73
4
 74
0
 40
0
 40
0
 40
0
 40
0
 40
1
 40
1
 40
1
 40
1
 10
50.566383
 20
77.350283
 30
0.0
 10
50.566383
 20
78.525737
 30
0.0
 10
49.716626
 20
79.503639
 30
0.0
 10
48.284352
 20
79.503639
 30
0.0
  0
LWPOLYLINE
  5
1d0
100
AcDbEntity
  8
Layer_1
 62
7
100
AcDbPolyline
 90
11
 70
0
 10
48.195468
 20
76.421632
 30
0.0
 10
46.901489
 20
76.421632
 30
0.0
 10
46.901489
 20
76.422691
 30
0.0
 10
45.528447
 20
76.422691
 30
0.0
 10
45.528447
 20
72.470477
 30
0.0
 10
46.901489
 20
72.470477
 30
0.0
 10
46.901489
 20
75.275989
 30
0.0
 10
47.889028
 20
75.275989
 30
0.0
 10
49.262070
 20
72.470477
 30
0.0
 10
50.852670
 20
72.470477
 30
0.0
 10
49.282223
 20
75.502851
 30
0.0
  0
LWPOLYLINE
  5
1d1
100
AcDbEntity
  8
Layer_1
 62
7
100
AcDbPolyline
 90
2
 70
0
 10
48.284352
 20
79.503639
 30
0.0
 10
45.528447
 20
79.503629
 30
0.0
  0
LWPOLYLINE
  5
1d2
100
AcDbEntity
  8
Layer_1
 62
7
100
AcDbPolyline
 90
12
 70
1
 10
62.304576
 20
72.470477
 30
0.0
 10
62.304576
 20
73.695321
 30
0.0
 10
59.044912
 20
73.695321
 30
0.0
 10
59.044912
 20
75.404175
 30
0.0
 10
61.820563
 20
75.404175
 30
0.0
 10
61.820563
 20
76.629018
 30
0.0
 10
59.044912
 20
76.629018
 30
0.0
 10
59.044912
 20
78.278605
 30
0.0
 10
62.304576
 20
78.278605
 30
0.0
 10
62.304576
 20
79.503449
 30
0.0
 10
57.671902
 20
79.503449
 30
0.0
 10
57.671902
 20
72.470477
 30
0.0
  0
LWPOLYLINE
  5
1d3
100
AcDbEntity
  8
Layer_1
 62
7
100
AcDbPolyline
 90
13
 70
1
 10
75.023270
 20
72.470477
 30
0.0
 10
75.023270
 20
79.503449
 30
0.0
 10
73.670013
 20
79.503449
 30
0.0
 10
71.842626
 20
75.700508
 30
0.0
 10
70.005362
 20
79.503449
 30
0.0
 10
68.652109
 20
79.503449
 30
0.0
 10
68.652109
 20
72.470477
 30
0.0
 10
70.025119
 20
72.470477
 30
0.0
 10
70.025119
 20
76.569751
 30
0.0
 10
71.378373
 20
73.902754
 30
0.0
 10
72.306883
 20
73.902754
 30
0.0
 10
73.650260
 20
76.569751
 30
0.0
 10
73.650260
 20
72.470477
 30
0.0
  0
LWPOLYLINE
  5
1d4
100
AcDbEntity
  8
Layer_1
 62
7
100
AcDbPolyline
 90
9
 70
1
 10
86.615723
 20
79.503449
 30
0.0
 10
85.124180
 20
79.503449
 30
0.0
 10
83.830193
 20
76.668531
 30
0.0
 10
82.516449
 20
79.503449
 30
0.0
 10
81.024905
 20
79.503449
 30
0.0
 10
83.138749
 20
75.354787
 30
0.0
 10
83.138749
 20
72.470477
 30
0.0
 10
84.501882
 20
72.470477
 30
0.0
 10
84.501882
 20
75.354787
 30
0.0
  0
LWPOLYLINE
  5
1d5
100
AcDbEntity
  8
Layer_1
 62
7
100
AcDbPolyline
 90
12
 70
1
 10
99.374372
 20
72.470477
 30
0.0
 10
96.875295
 20
76.708041
 30
0.0
 10
99.206449
 20
79.503449
 30
0.0
 10
97.537108
 20
79.503449
 30
0.0
 10
95.057788
 20
76.441341
 30
0.0
 10
95.057788
 20
79.503449
 30
0.0
 10
93.684778
 20
79.503449
 30
0.0
 10
93.684778
 20
72.470477
 30
0.0
 10
95.057788
 20
72.470477
 30
0.0
 10
95.057788
 20
74.584321
 30
0.0
 10
95.966542
 20
75.670875
 30
0.0
 10
97.774172
 20
72.470477
 30
0.0
  0
LWPOLYLINE
  5
1d6
100
AcDbEntity
  8
Layer_1
 62
7
100
AcDbPolyline
 90
9
 70
1
 10
110.792022
 20
79.503449
 30
0.0
 10
109.300479
 20
79.503449
 30
0.0
 10
108.006492
 20
76.668531
 30
0.0
 10
106.692748
 20
79.503449
 30
0.0
 10
105.201204
 20
79.503449
 30
0.0
 10
107.315048
 20
75.354787
 30
0.0
 10
107.315048
 20
72.470477
 30
0.0
 10
108.678181
 20
72.470477
 30
0.0
 10
108.678181
 20
75.354787
 30
0.0
  0
LWPOLYLINE
  5
1d7
100
AcDbEntity
  8
Layer_1
 62
7
100
AcDbPolyline
 90
10
 70
1
 10
122.725260
 20
78.278605
 30
0.0
 10
122.725260
 20
79.503449
 30
0.0
 10
118.092586
 20
79.503449
 30
0.0
 10
118.092586
 20
72.470477
 30
0.0
 10
119.465596
 20
72.470477
 30
0.0
 10
119.465596
 20
75.325154
 30
0.0
 10
122.241247
 20
75.325154
 30
0.0
 10
122.241247
 20
76.549998
 30
0.0
 10
119.465596
 20
76.549998
 30
0.0
 10
119.465596
 20
78.278605
 30
0.0
  0
LWPOLYLINE
  5
1d8
100
AcDbEntity
  8
Layer_1
 62
7
100
AcDbPolyline
 90
9
 70
1
 10
134.968323
 20
79.503449
 30
0.0
 10
133.476780
 20
79.503449
 30
0.0
 10
132.182793
 20
76.668531
 30
0.0
 10
130.869049
 20
79.503449
 30
0.0
 10
129.377505
 20
79.503449
 30
0.0
 10
131.491349
 20
75.354787
 30
0.0
 10
131.491349
 20
72.470477
 30
0.0
 10
132.854482
 20
72.470477
 30
0.0
 10
132.854482
 20
75.354787
 30
0.0
  0
SPLINE
  5
1d9
100
AcDbEntity
  8
Layer_1
 62
7
100
AcDbSpline
 70
8
 71
3
 72
8
 73
4
 74
0
 40
0
 40
0
 40
0
 40
0
 40
1
 40
1
 40
1
 40
1
 10
144.538940
 20
78.278393
 30
0.0
 10
145.141484
 20
78.278393
 30
0.0
 10
145.536814
 20
77.893565
 30
0.0
 10
145.536814
 20
77.350285
 30
0.0
  0
SPLINE
  5
1da
100
AcDbEntity
  8
Layer_1
 62
7
100
AcDbSpline
 70
8
 71
3
 72
8
 73
4
 74
0
 40
0
 40
0
 40
0
 40
0
 40
1
 40
1
 40
1
 40
1
 10
145.536814
 20
77.350285
 30
0.0
 10
145.536814
 20
76.807009
 30
0.0
 10
145.141484
 20
76.421659
 30
0.0
 10
144.538940
 20
76.421659
 30
0.0
  0
LWPOLYLINE
  5
1db
100
AcDbEntity
  8
Layer_1
 62
7
100
AcDbPolyline
 90
5
 70
0
 10
141.871922
 20
79.503629
 30
0.0
 10
141.871922
 20
78.277864
 30
0.0
 10
143.244964
 20
78.277864
 30
0.0
 10
143.244964
 20
78.278393
 30
0.0
 10
144.538940
 20
78.278393
 30
0.0
  0
SPLINE
  5
1dc
100
AcDbEntity
  8
Layer_1
 62
7
100
AcDbSpline
 70
8
 71
3
 72
8
 73
4
 74
0
 40
0
 40
0
 40
0
 40
0
 40
1
 40
1
 40
1
 40
1
 10
145.625698
 20
75.502854
 30
0.0
 10
146.307262
 20
75.749794
 30
0.0
 10
146.909856
 20
76.362509
 30
0.0
 10
146.909856
 20
77.350285
 30
0.0
  0
SPLINE
  5
1dd
100
AcDbEntity
  8
Layer_1
 62
7
100
AcDbSpline
 70
8
 71
3
 72
8
 73
4
 74
0
 40
0
 40
0
 40
0
 40
0
 40
1
 40
1
 40
1
 40
1
 10
146.909856
 20
77.350285
 30
0.0
 10
146.909856
 20
78.525739
 30
0.0
 10
146.060101
 20
79.503642
 30
0.0
 10
144.627824
 20
79.503642
 30
0.0
  0
LWPOLYLINE
  5
1de
100
AcDbEntity
  8
Layer_1
 62
7
100
AcDbPolyline
 90
11
 70
0
 10
144.538940
 20
76.421659
 30
0.0
 10
143.571557
 20
76.421659
 30
0.0
 10
143.244964
 20
76.421659
 30
0.0
 10
141.871922
 20
76.421659
 30
0.0
 10
141.871922
 20
72.470480
 30
0.0
 10
143.244964
 20
72.470480
 30
0.0
 10
143.244964
 20
75.275992
 30
0.0
 10
144.233016
 20
75.275992
 30
0.0
 10
145.606060
 20
72.470480
 30
0.0
 10
147.196143
 20
72.470480
 30
0.0
 10
145.625698
 20
75.502854
 30
0.0
  0
LWPOLYLINE
  5
1df
100
AcDbEntity
  8
Layer_1
 62
7
100
AcDbPolyline
 90
2
 70
0
 10
144.627824
 20
79.503642
 30
0.0
 10
141.871922
 20
79.503629
 30
0.0
  0
LWPOLYLINE
  5
1e0
100
AcDbEntity
  8
Layer_1
 62
7
100
AcDbPolyline
 90
13
 70
1
 10
155.702083
 20
79.503629
 30
0.0
 10
153.143583
 20
72.470467
 30
0.0
 10
154.570886
 20
72.470467
 30
0.0
 10
155.388925
 20
74.870835
 30
0.0
 10
155.385829
 20
74.870835
 30
0.0
 10
156.274665
 20
77.429338
 30
0.0
 10
157.134042
 20
74.870835
 30
0.0
 10
155.906727
 20
74.870835
 30
0.0
 10
155.906727
 20
73.714834
 30
0.0
 10
157.499913
 20
73.714834
 30
0.0
 10
157.914357
 20
72.470467
 30
0.0
 10
159.346829
 20
72.470467
 30
0.0
 10
156.778508
 20
79.503629
 30
0.0
  0
LWPOLYLINE
  5
1e1
100
AcDbEntity
  8
Layer_1
 62
7
100
AcDbPolyline
 90
8
 70
1
 10
50.364081
 20
91.399605
 30
0.0
 10
50.364081
 20
92.624449
 30
0.0
 10
45.316540
 20
92.624449
 30
0.0
 10
45.316540
 20
91.399605
 30
0.0
 10
47.153807
 20
91.399605
 30
0.0
 10
47.153807
 20
85.591477
 30
0.0
 10
48.526817
 20
85.591477
 30
0.0
 10
48.526817
 20
91.399605
 30
0.0
  0
LWPOLYLINE
  5
1e2
100
AcDbEntity
  8
Layer_1
 62
7
100
AcDbPolyline
 90
8
 70
1
 10
62.322563
 20
91.399605
 30
0.0
 10
62.322563
 20
92.624449
 30
0.0
 10
57.275022
 20
92.624449
 30
0.0
 10
57.275022
 20
91.399605
 30
0.0
 10
59.112289
 20
91.399605
 30
0.0
 10
59.112289
 20
85.591477
 30
0.0
 10
60.485299
 20
85.591477
 30
0.0
 10
60.485299
 20
91.399605
 30
0.0
  0
SPLINE
  5
1e3
100
AcDbEntity
  8
Layer_1
 62
7
100
AcDbSpline
 70
8
 71
3
 72
8
 73
4
 74
0
 40
0
 40
0
 40
0
 40
0
 40
1
 40
1
 40
1
 40
1
 10
73.111304
 20
88.051044
 30
0.0
 10
73.111304
 20
87.241064
 30
0.0
 10
72.627292
 20
86.757054
 30
0.0
 10
71.886461
 20
86.757054
 30
0.0
  0
SPLINE
  5
1e4
100
AcDbEntity
  8
Layer_1
 62
7
100
AcDbSpline
 70
8
 71
3
 72
8
 73
4
 74
0
 40
0
 40
0
 40
0
 40
0
 40
1
 40
1
 40
1
 40
1
 10
71.886461
 20
86.757054
 30
0.0
 10
71.145628
 20
86.757054
 30
0.0
 10
70.671494
 20
87.241064
 30
0.0
 10
70.671494
 20
88.051044
 30
0.0
  0
LWPOLYLINE
  5
1e5
100
AcDbEntity
  8
Layer_1
 62
7
100
AcDbPolyline
 90
4
 70
0
 10
74.474435
 20
88.001654
 30
0.0
 10
74.474435
 20
92.624449
 30
0.0
 10
73.111304
 20
92.624449
 30
0.0
 10
73.111304
 20
88.051044
 30
0.0
  0
SPLINE
  5
1e6
100
AcDbEntity
  8
Layer_1
 62
7
100
AcDbSpline
 70
8
 71
3
 72
8
 73
4
 74
0
 40
0
 40
0
 40
0
 40
0
 40
1
 40
1
 40
1
 40
1
 10
69.298484
 20
88.001654
 30
0.0
 10
69.298484
 20
86.510111
 30
0.0
 10
70.444305
 20
85.532211
 30
0.0
 10
71.886461
 20
85.532211
 30
0.0
  0
SPLINE
  5
1e7
100
AcDbEntity
  8
Layer_1
 62
7
100
AcDbSpline
 70
8
 71
3
 72
8
 73
4
 74
0
 40
0
 40
0
 40
0
 40
0
 40
1
 40
1
 40
1
 40
1
 10
71.886461
 20
85.532211
 30
0.0
 10
73.328615
 20
85.532211
 30
0.0
 10
74.474435
 20
86.510111
 30
0.0
 10
74.474435
 20
88.001654
 30
0.0
  0
LWPOLYLINE
  5
1e8
100
AcDbEntity
  8
Layer_1
 62
7
100
AcDbPolyline
 90
4
 70
0
 10
70.671494
 20
88.051044
 30
0.0
 10
70.671494
 20
92.624449
 30
0.0
 10
69.298484
 20
92.624449
 30
0.0
 10
69.298484
 20
88.001654
 30
0.0
  0
LWPOLYLINE
  5
1e9
100
AcDbEntity
  8
Layer_1
 62
7
100
AcDbPolyline
 90
1
 70
1
 10
74.474435
 20
88.001654
 30
0.0
  0
LWPOLYLINE
  5
1ea
100
AcDbEntity
  8
Layer_1
 62
7
100
AcDbPolyline
 90
7
 70
1
 10
98.851819
 20
92.624449
 30
0.0
 10
97.419542
 20
92.624449
 30
0.0
 10
96.007022
 20
88.041164
 30
0.0
 10
94.594501
 20
92.624449
 30
0.0
 10
93.172101
 20
92.624449
 30
0.0
 10
95.493378
 20
85.591477
 30
0.0
 10
96.520665
 20
85.591477
 30
0.0
  0
LWPOLYLINE
  5
1eb
100
AcDbEntity
  8
Layer_1
 62
7
100
AcDbPolyline
 90
6
 70
1
 10
110.220705
 20
85.591477
 30
0.0
 10
110.220705
 20
86.816321
 30
0.0
 10
107.030187
 20
86.816321
 30
0.0
 10
107.030187
 20
92.624449
 30
0.0
 10
105.657177
 20
92.624449
 30
0.0
 10
105.657177
 20
85.591477
 30
0.0
  0
LWPOLYLINE
  5
1ec
100
AcDbEntity
  8
Layer_1
 62
7
100
AcDbPolyline
 90
12
 70
1
 10
123.050875
 20
85.591477
 30
0.0
 10
120.858011
 20
89.196864
 30
0.0
 10
122.902708
 20
92.624449
 30
0.0
 10
121.351898
 20
92.624449
 30
0.0
 10
120.117177
 20
90.352562
 30
0.0
 10
118.892334
 20
92.624449
 30
0.0
 10
117.331647
 20
92.624449
 30
0.0
 10
119.376344
 20
89.196864
 30
0.0
 10
117.193357
 20
85.591477
 30
0.0
 10
118.763924
 20
85.591477
 30
0.0
 10
120.117177
 20
88.041164
 30
0.0
 10
121.480308
 20
85.591477
 30
0.0
  0
LWPOLYLINE
  5
1ed
100
AcDbEntity
  8
Layer_1
 62
7
100
AcDbPolyline
 90
8
 70
1
 10
134.701536
 20
91.399605
 30
0.0
 10
134.701536
 20
92.624449
 30
0.0
 10
129.653995
 20
92.624449
 30
0.0
 10
129.653995
 20
91.399605
 30
0.0
 10
131.491262
 20
91.399605
 30
0.0
 10
131.491262
 20
85.591477
 30
0.0
 10
132.864272
 20
85.591477
 30
0.0
 10
132.864272
 20
91.399605
 30
0.0
  0
LWPOLYLINE
  5
1ee
100
AcDbEntity
  8
Layer_1
 62
7
100
AcDbPolyline
 90
7
 70
1
 10
147.090142
 20
92.624449
 30
0.0
 10
145.657865
 20
92.624449
 30
0.0
 10
144.245345
 20
88.041164
 30
0.0
 10
142.832824
 20
92.624449
 30
0.0
 10
141.410424
 20
92.624449
 30
0.0
 10
143.731701
 20
85.591477
 30
0.0
 10
144.758988
 20
85.591477
 30
0.0
  0
LWPOLYLINE
  5
1ef
100
AcDbEntity
  8
Layer_1
 62
7
100
AcDbPolyline
 90
4
 70
1
 10
155.688132
 20
94.622085
 30
0.0
 10
155.688132
 20
93.321906
 30
0.0
 10
156.988310
 20
93.321906
 30
0.0
 10
156.988310
 20
94.622085
 30
0.0
  0
SPLINE
  5
1f0
100
AcDbEntity
  8
Layer_1
 62
7
100
AcDbSpline
 70
8
 71
3
 72
8
 73
4
 74
0
 40
0
 40
0
 40
0
 40
0
 40
1
 40
1
 40
1
 40
1
 10
86.434485
 20
87.606545
 30
0.0
 10
86.434485
 20
88.228842
 30
0.0
 10
86.266562
 20
88.742488
 30
0.0
 10
85.891205
 20
89.098085
 30
0.0
  0
SPLINE
  5
1f1
100
AcDbEntity
  8
Layer_1
 62
7
100
AcDbSpline
 70
8
 71
3
 72
8
 73
4
 74
0
 40
0
 40
0
 40
0
 40
0
 40
1
 40
1
 40
1
 40
1
 10
85.891205
 20
89.098085
 30
0.0
 10
85.594874
 20
89.374665
 30
0.0
 10
85.189885
 20
89.552465
 30
0.0
 10
84.547831
 20
89.641365
 30
0.0
  0
LWPOLYLINE
  5
1f2
100
AcDbEntity
  8
Layer_1
 62
7
100
AcDbPolyline
 90
13
 70
1
 10
155.796651
 20
92.624793
 30
0.0
 10
153.238667
 20
85.592147
 30
0.0
 10
154.665454
 20
85.592147
 30
0.0
 10
155.484009
 20
87.991999
 30
0.0
 10
155.480913
 20
87.991999
 30
0.0
 10
156.369749
 20
90.550499
 30
0.0
 10
157.229129
 20
87.991999
 30
0.0
 10
156.001296
 20
87.991999
 30
0.0
 10
156.001296
 20
86.836514
 30
0.0
 10
157.594481
 20
86.836514
 30
0.0
 10
158.009441
 20
85.592147
 30
0.0
 10
159.441913
 20
85.592147
 30
0.0
 10
156.873595
 20
92.624793
 30
0.0
  0
SPLINE
  5
1f3
100
AcDbEntity
  8
Layer_1
 62
7
100
AcDbSpline
 70
8
 71
3
 72
8
 73
4
 74
0
 40
0
 40
0
 40
0
 40
0
 40
1
 40
1
 40
1
 40
1
 10
83.718098
 20
89.759898
 30
0.0
 10
83.431641
 20
89.799408
 30
0.0
 10
83.204454
 20
89.908065
 30
0.0
 10
83.066164
 20
90.036475
 30
0.0
  0
SPLINE
  5
1f4
100
AcDbEntity
  8
Layer_1
 62
7
100
AcDbSpline
 70
8
 71
3
 72
8
 73
4
 74
0
 40
0
 40
0
 40
0
 40
0
 40
1
 40
1
 40
1
 40
1
 10
83.066164
 20
90.036475
 30
0.0
 10
82.917998
 20
90.174762
 30
0.0
 10
82.858731
 20
90.362442
 30
0.0
 10
82.858731
 20
90.540242
 30
0.0
  0
SPLINE
  5
1f5
100
AcDbEntity
  8
Layer_1
 62
7
100
AcDbSpline
 70
8
 71
3
 72
8
 73
4
 74
0
 40
0
 40
0
 40
0
 40
0
 40
1
 40
1
 40
1
 40
1
 10
82.858731
 20
90.540242
 30
0.0
 10
82.858731
 20
91.024252
 30
0.0
 10
83.214331
 20
91.429239
 30
0.0
 10
83.945285
 20
91.429239
 30
0.0
  0
SPLINE
  5
1f6
100
AcDbEntity
  8
Layer_1
 62
7
100
AcDbSpline
 70
8
 71
3
 72
8
 73
4
 74
0
 40
0
 40
0
 40
0
 40
0
 40
1
 40
1
 40
1
 40
1
 10
83.945285
 20
91.429239
 30
0.0
 10
84.409541
 20
91.429239
 30
0.0
 10
84.942941
 20
91.369972
 30
0.0
 10
85.387441
 20
90.945229
 30
0.0
  0
LWPOLYLINE
  5
1f7
100
AcDbEntity
  8
Layer_1
 62
7
100
AcDbPolyline
 90
2
 70
0
 10
84.547831
 20
89.641365
 30
0.0
 10
83.718098
 20
89.759898
 30
0.0
  0
SPLINE
  5
1f8
100
AcDbEntity
  8
Layer_1
 62
7
100
AcDbSpline
 70
8
 71
3
 72
8
 73
4
 74
0
 40
0
 40
0
 40
0
 40
0
 40
1
 40
1
 40
1
 40
1
 10
86.256685
 20
91.804596
 30
0.0
 10
85.654141
 20
92.387383
 30
0.0
 10
84.952818
 20
92.624449
 30
0.0
 10
83.984798
 20
92.624449
 30
0.0
  0
SPLINE
  5
1f9
100
AcDbEntity
  8
Layer_1
 62
7
100
AcDbSpline
 70
8
 71
3
 72
8
 73
4
 74
0
 40
0
 40
0
 40
0
 40
0
 40
1
 40
1
 40
1
 40
1
 10
83.984798
 20
92.624449
 30
0.0
 10
82.463621
 20
92.624449
 30
0.0
 10
81.535111
 20
91.745329
 30
0.0
 10
81.535111
 20
90.490852
 30
0.0
  0
SPLINE
  5
1fa
100
AcDbEntity
  8
Layer_1
 62
7
100
AcDbSpline
 70
8
 71
3
 72
8
 73
4
 74
0
 40
0
 40
0
 40
0
 40
0
 40
1
 40
1
 40
1
 40
1
 10
81.535111
 20
90.490852
 30
0.0
 10
81.535111
 20
89.898185
 30
0.0
 10
81.703034
 20
89.443809
 30
0.0
 10
82.038877
 20
89.107965
 30
0.0
  0
SPLINE
  5
1fb
100
AcDbEntity
  8
Layer_1
 62
7
100
AcDbSpline
 70
8
 71
3
 72
8
 73
4
 74
0
 40
0
 40
0
 40
0
 40
0
 40
1
 40
1
 40
1
 40
1
 10
82.038877
 20
89.107965
 30
0.0
 10
82.354964
 20
88.801755
 30
0.0
 10
82.799464
 20
88.614075
 30
0.0
 10
83.402008
 20
88.525175
 30
0.0
  0
LWPOLYLINE
  5
1fc
100
AcDbEntity
  8
Layer_1
 62
7
100
AcDbPolyline
 90
2
 70
0
 10
85.387441
 20
90.945229
 30
0.0
 10
86.256685
 20
91.804596
 30
0.0
  0
SPLINE
  5
1fd
100
AcDbEntity
  8
Layer_1
 62
7
100
AcDbSpline
 70
8
 71
3
 72
8
 73
4
 74
0
 40
0
 40
0
 40
0
 40
0
 40
1
 40
1
 40
1
 40
1
 10
84.251498
 20
88.406642
 30
0.0
 10
84.577464
 20
88.357255
 30
0.0
 10
84.735508
 20
88.288109
 30
0.0
 10
84.873795
 20
88.159698
 30
0.0
  0
SPLINE
  5
1fe
100
AcDbEntity
  8
Layer_1
 62
7
100
AcDbSpline
 70
8
 71
3
 72
8
 73
4
 74
0
 40
0
 40
0
 40
0
 40
0
 40
1
 40
1
 40
1
 40
1
 10
84.873795
 20
88.159698
 30
0.0
 10
85.021962
 20
88.021409
 30
0.0
 10
85.091108
 20
87.813978
 30
0.0
 10
85.091108
 20
87.567032
 30
0.0
  0
SPLINE
  5
1ff
100
AcDbEntity
  8
Layer_1
 62
7
100
AcDbSpline
 70
8
 71
3
 72
8
 73
4
 74
0
 40
0
 40
0
 40
0
 40
0
 40
1
 40
1
 40
1
 40
1
 10
85.091108
 20
87.567032
 30
0.0
 10
85.091108
 20
87.003998
 30
0.0
 10
84.656485
 20
86.697788
 30
0.0
 10
83.846508
 20
86.697788
 30
0.0
  0
SPLINE
  5
200
100
AcDbEntity
  8
Layer_1
 62
7
100
AcDbSpline
 70
8
 71
3
 72
8
 73
4
 74
0
 40
0
 40
0
 40
0
 40
0
 40
1
 40
1
 40
1
 40
1
 10
83.846508
 20
86.697788
 30
0.0
 10
83.194575
 20
86.697788
 30
0.0
 10
82.592031
 20
86.845955
 30
0.0
 10
82.147531
 20
87.290455
 30
0.0
  0
LWPOLYLINE
  5
201
100
AcDbEntity
  8
Layer_1
 62
7
100
AcDbPolyline
 90
2
 70
0
 10
83.402008
 20
88.525175
 30
0.0
 10
84.251498
 20
88.406642
 30
0.0
  0
SPLINE
  5
202
100
AcDbEntity
  8
Layer_1
 62
7
100
AcDbSpline
 70
8
 71
3
 72
8
 73
4
 74
0
 40
0
 40
0
 40
0
 40
0
 40
1
 40
1
 40
1
 40
1
 10
81.258534
 20
86.401455
 30
0.0
 10
81.949977
 20
85.700134
 30
0.0
 10
82.759954
 20
85.472945
 30
0.0
 10
83.826751
 20
85.472945
 30
0.0
  0
SPLINE
  5
203
100
AcDbEntity
  8
Layer_1
 62
7
100
AcDbSpline
 70
8
 71
3
 72
8
 73
4
 74
0
 40
0
 40
0
 40
0
 40
0
 40
1
 40
1
 40
1
 40
1
 10
83.826751
 20
85.472945
 30
0.0
 10
85.298541
 20
85.472945
 30
0.0
 10
86.434485
 20
86.243411
 30
0.0
 10
86.434485
 20
87.606545
 30
0.0
  0
LWPOLYLINE
  5
204
100
AcDbEntity
  8
Layer_1
 62
7
100
AcDbPolyline
 90
2
 70
0
 10
82.147531
 20
87.290455
 30
0.0
 10
81.258534
 20
86.401455
 30
0.0
  0
LWPOLYLINE
  5
205
100
AcDbEntity
  8
Layer_1
 62
7
100
AcDbPolyline
 90
1
 70
1
 10
86.434485
 20
87.606545
 30
0.0
  0
LWPOLYLINE
  5
206
100
AcDbEntity
  8
Layer_1
 62
7
100
AcDbPolyline
 90
4
 70
1
 10
34.232496
 20
107.731881
 30
0.0
 10
34.232496
 20
106.497329
 30
0.0
 10
35.329070
 20
106.497329
 30
0.0
 10
35.329070
 20
107.731881
 30
0.0
  0
SPLINE
  5
207
100
AcDbEntity
  8
Layer_1
 62
7
100
AcDbSpline
 70
8
 71
3
 72
8
 73
4
 74
0
 40
0
 40
0
 40
0
 40
0
 40
1
 40
1
 40
1
 40
1
 10
35.872188
 20
105.854993
 30
0.0
 10
35.072090
 20
105.854993
 30
0.0
 10
34.459731
 20
105.578900
 30
0.0
 10
33.965846
 20
105.085013
 30
0.0
  0
SPLINE
  5
208
100
AcDbEntity
  8
Layer_1
 62
7
100
AcDbSpline
 70
8
 71
3
 72
8
 73
4
 74
0
 40
0
 40
0
 40
0
 40
0
 40
1
 40
1
 40
1
 40
1
 10
33.965846
 20
105.085013
 30
0.0
 10
33.254646
 20
104.373813
 30
0.0
 10
33.274416
 20
103.494462
 30
0.0
 10
33.274416
 20
102.279498
 30
0.0
  0
SPLINE
  5
209
100
AcDbEntity
  8
Layer_1
 62
7
100
AcDbSpline
 70
8
 71
3
 72
8
 73
4
 74
0
 40
0
 40
0
 40
0
 40
0
 40
1
 40
1
 40
1
 40
1
 10
33.274416
 20
102.279498
 30
0.0
 10
33.274416
 20
101.175358
 30
0.0
 10
33.259838
 20
100.348894
 30
0.0
 10
33.790663
 20
99.673456
 30
0.0
  0
LWPOLYLINE
  5
20a
100
AcDbEntity
  8
Layer_1
 62
7
100
AcDbPolyline
 90
4
 70
1
 10
36.415309
 20
107.731881
 30
0.0
 10
36.415309
 20
106.497329
 30
0.0
 10
37.511882
 20
106.497329
 30
0.0
 10
37.511882
 20
107.731881
 30
0.0
  0
SPLINE
  5
20b
100
AcDbEntity
  8
Layer_1
 62
7
100
AcDbSpline
 70
8
 71
3
 72
8
 73
4
 74
0
 40
0
 40
0
 40
0
 40
0
 40
1
 40
1
 40
1
 40
1
 10
34.677946
 20
101.210830
 30
0.0
 10
34.656197
 20
101.474130
 30
0.0
 10
34.647458
 20
101.812601
 30
0.0
 10
34.647458
 20
102.279498
 30
0.0
  0
SPLINE
  5
20c
100
AcDbEntity
  8
Layer_1
 62
7
100
AcDbSpline
 70
8
 71
3
 72
8
 73
4
 74
0
 40
0
 40
0
 40
0
 40
0
 40
1
 40
1
 40
1
 40
1
 10
34.647458
 20
102.279498
 30
0.0
 10
34.647458
 20
103.632752
 30
0.0
 10
34.716654
 20
103.958756
 30
0.0
 10
34.983354
 20
104.255089
 30
0.0
  0
SPLINE
  5
20d
100
AcDbEntity
  8
Layer_1
 62
7
100
AcDbSpline
 70
8
 71
3
 72
8
 73
4
 74
0
 40
0
 40
0
 40
0
 40
0
 40
1
 40
1
 40
1
 40
1
 10
34.983354
 20
104.255089
 30
0.0
 10
35.180911
 20
104.482276
 30
0.0
 10
35.496834
 20
104.630260
 30
0.0
 10
35.872188
 20
104.630260
 30
0.0
  0
SPLINE
  5
20e
100
AcDbEntity
  8
Layer_1
 62
7
100
AcDbSpline
 70
8
 71
3
 72
8
 73
4
 74
0
 40
0
 40
0
 40
0
 40
0
 40
1
 40
1
 40
1
 40
1
 10
35.872188
 20
104.630260
 30
0.0
 10
36.133324
 20
104.630260
 30
0.0
 10
36.359982
 20
104.557651
 30
0.0
 10
36.540882
 20
104.437506
 30
0.0
  0
LWPOLYLINE
  5
20f
100
AcDbEntity
  8
Layer_1
 62
7
100
AcDbPolyline
 90
2
 70
0
 10
33.790663
 20
99.673456
 30
0.0
 10
34.677946
 20
101.210830
 30
0.0
  0
SPLINE
  5
210
100
AcDbEntity
  8
Layer_1
 62
7
100
AcDbSpline
 70
8
 71
3
 72
8
 73
4
 74
0
 40
0
 40
0
 40
0
 40
0
 40
1
 40
1
 40
1
 40
1
 10
37.176502
 20
105.537699
 30
0.0
 10
36.805828
 20
105.744275
 30
0.0
 10
36.378608
 20
105.854993
 30
0.0
 10
35.872188
 20
105.854993
 30
0.0
  0
LWPOLYLINE
  5
211
100
AcDbEntity
  8
Layer_1
 62
7
100
AcDbPolyline
 90
2
 70
0
 10
36.540882
 20
104.437506
 30
0.0
 10
37.176502
 20
105.537699
 30
0.0
  0
LWPOLYLINE
  5
212
100
AcDbEntity
  8
Layer_1
 62
7
100
AcDbPolyline
 90
1
 70
1
 10
35.872188
 20
105.854993
 30
0.0
  0
SPLINE
  5
213
100
AcDbEntity
  8
Layer_1
 62
7
100
AcDbSpline
 70
8
 71
3
 72
8
 73
4
 74
0
 40
0
 40
0
 40
0
 40
0
 40
1
 40
1
 40
1
 40
1
 10
37.047827
 20
103.494928
 30
0.0
 10
37.082461
 20
103.216184
 30
0.0
 10
37.096920
 20
102.838539
 30
0.0
 10
37.096920
 20
102.279498
 30
0.0
  0
SPLINE
  5
214
100
AcDbEntity
  8
Layer_1
 62
7
100
AcDbSpline
 70
8
 71
3
 72
8
 73
4
 74
0
 40
0
 40
0
 40
0
 40
0
 40
1
 40
1
 40
1
 40
1
 10
37.096920
 20
102.279498
 30
0.0
 10
37.096920
 20
100.926247
 30
0.0
 10
37.017905
 20
100.600243
 30
0.0
 10
36.751205
 20
100.303910
 30
0.0
  0
SPLINE
  5
215
100
AcDbEntity
  8
Layer_1
 62
7
100
AcDbSpline
 70
8
 71
3
 72
8
 73
4
 74
0
 40
0
 40
0
 40
0
 40
0
 40
1
 40
1
 40
1
 40
1
 10
36.751205
 20
100.303910
 30
0.0
 10
36.553649
 20
100.076720
 30
0.0
 10
36.247542
 20
99.928739
 30
0.0
 10
35.872188
 20
99.928739
 30
0.0
  0
SPLINE
  5
216
100
AcDbEntity
  8
Layer_1
 62
7
100
AcDbSpline
 70
8
 71
3
 72
8
 73
4
 74
0
 40
0
 40
0
 40
0
 40
0
 40
1
 40
1
 40
1
 40
1
 10
35.872188
 20
99.928739
 30
0.0
 10
35.577752
 20
99.928739
 30
0.0
 10
35.320944
 20
100.020584
 30
0.0
 10
35.128047
 20
100.169549
 30
0.0
  0
LWPOLYLINE
  5
217
100
AcDbEntity
  8
Layer_1
 62
7
100
AcDbPolyline
 90
2
 70
0
 10
37.890154
 20
104.953756
 30
0.0
 10
37.047827
 20
103.494928
 30
0.0
  0
SPLINE
  5
218
100
AcDbEntity
  8
Layer_1
 62
7
100
AcDbSpline
 70
8
 71
3
 72
8
 73
4
 74
0
 40
0
 40
0
 40
0
 40
0
 40
1
 40
1
 40
1
 40
1
 10
34.488811
 20
99.063157
 30
0.0
 10
34.878818
 20
98.829874
 30
0.0
 10
35.332745
 20
98.703490
 30
0.0
 10
35.872188
 20
98.703490
 30
0.0
  0
SPLINE
  5
219
100
AcDbEntity
  8
Layer_1
 62
7
100
AcDbSpline
 70
8
 71
3
 72
8
 73
4
 74
0
 40
0
 40
0
 40
0
 40
0
 40
1
 40
1
 40
1
 40
1
 10
35.872188
 20
98.703490
 30
0.0
 10
36.672285
 20
98.703490
 30
0.0
 10
37.274829
 20
98.980099
 30
0.0
 10
37.768713
 20
99.473986
 30
0.0
  0
SPLINE
  5
21a
100
AcDbEntity
  8
Layer_1
 62
7
100
AcDbSpline
 70
8
 71
3
 72
8
 73
4
 74
0
 40
0
 40
0
 40
0
 40
0
 40
1
 40
1
 40
1
 40
1
 10
37.768713
 20
99.473986
 30
0.0
 10
38.479913
 20
100.185186
 30
0.0
 10
38.469962
 20
101.064534
 30
0.0
 10
38.469962
 20
102.279498
 30
0.0
  0
SPLINE
  5
21b
100
AcDbEntity
  8
Layer_1
 62
7
100
AcDbSpline
 70
8
 71
3
 72
8
 73
4
 74
0
 40
0
 40
0
 40
0
 40
0
 40
1
 40
1
 40
1
 40
1
 10
38.469962
 20
102.279498
 30
0.0
 10
38.469962
 20
103.420789
 30
0.0
 10
38.478588
 20
104.265971
 30
0.0
 10
37.890154
 20
104.953756
 30
0.0
  0
LWPOLYLINE
  5
21c
100
AcDbEntity
  8
Layer_1
 62
7
100
AcDbPolyline
 90
2
 70
0
 10
35.128047
 20
100.169549
 30
0.0
 10
34.488811
 20
99.063157
 30
0.0
  0
LWPOLYLINE
  5
21d
100
AcDbEntity
  8
Layer_1
 62
7
100
AcDbPolyline
 90
1
 70
1
 10
37.890154
 20
104.953756
 30
0.0
  0
LWPOLYLINE
  5
21e
100
AcDbEntity
  8
Layer_1
 62
7
100
AcDbPolyline
 90
7
 70
1
 10
50.721227
 20
105.796407
 30
0.0
 10
49.288950
 20
105.796407
 30
0.0
 10
47.876430
 20
101.213122
 30
0.0
 10
46.463909
 20
105.796407
 30
0.0
 10
45.041509
 20
105.796407
 30
0.0
 10
47.362786
 20
98.763435
 30
0.0
 10
48.390073
 20
98.763435
 30
0.0
  0
LWPOLYLINE
  5
21f
100
AcDbEntity
  8
Layer_1
 62
7
100
AcDbPolyline
 90
12
 70
1
 10
62.322771
 20
98.763477
 30
0.0
 10
62.322771
 20
99.988321
 30
0.0
 10
59.063107
 20
99.988321
 30
0.0
 10
59.063107
 20
101.697175
 30
0.0
 10
61.838758
 20
101.697175
 30
0.0
 10
61.838758
 20
102.922018
 30
0.0
 10
59.063107
 20
102.922018
 30
0.0
 10
59.063107
 20
104.571605
 30
0.0
 10
62.322771
 20
104.571605
 30
0.0
 10
62.322771
 20
105.796449
 30
0.0
 10
57.690097
 20
105.796449
 30
0.0
 10
57.690097
 20
98.763477
 30
0.0
  0
LWPOLYLINE
  5
220
100
AcDbEntity
  8
Layer_1
 62
7
100
AcDbPolyline
 90
12
 70
1
 10
87.350707
 20
98.763477
 30
0.0
 10
84.851630
 20
103.001041
 30
0.0
 10
87.182784
 20
105.796449
 30
0.0
 10
85.513443
 20
105.796449
 30
0.0
 10
83.034123
 20
102.734341
 30
0.0
 10
83.034123
 20
105.796449
 30
0.0
 10
81.661113
 20
105.796449
 30
0.0
 10
81.661113
 20
98.763477
 30
0.0
 10
83.034123
 20
98.763477
 30
0.0
 10
83.034123
 20
100.877321
 30
0.0
 10
83.942877
 20
101.963875
 30
0.0
 10
85.750507
 20
98.763477
 30
0.0
  0
LWPOLYLINE
  5
221
100
AcDbEntity
  8
Layer_1
 62
7
100
AcDbPolyline
 90
13
 70
1
 10
95.572938
 20
105.796597
 30
0.0
 10
93.014954
 20
98.763435
 30
0.0
 10
94.440706
 20
98.763435
 30
0.0
 10
95.259261
 20
101.163806
 30
0.0
 10
95.257144
 20
101.163806
 30
0.0
 10
96.145980
 20
103.722306
 30
0.0
 10
97.005357
 20
101.163806
 30
0.0
 10
95.775976
 20
101.163806
 30
0.0
 10
95.775976
 20
100.008321
 30
0.0
 10
97.370710
 20
100.008321
 30
0.0
 10
97.785672
 20
98.763435
 30
0.0
 10
99.218142
 20
98.763435
 30
0.0
 10
96.649824
 20
105.796597
 30
0.0
  0
LWPOLYLINE
  5
222
100
AcDbEntity
  8
Layer_1
 62
7
100
AcDbPolyline
 90
13
 70
1
 10
111.237527
 20
98.763477
 30
0.0
 10
111.237527
 20
105.796449
 30
0.0
 10
109.884270
 20
105.796449
 30
0.0
 10
108.056883
 20
101.993508
 30
0.0
 10
106.219619
 20
105.796449
 30
0.0
 10
104.866366
 20
105.796449
 30
0.0
 10
104.866366
 20
98.763477
 30
0.0
 10
106.239376
 20
98.763477
 30
0.0
 10
106.239376
 20
102.862751
 30
0.0
 10
107.592630
 20
100.195754
 30
0.0
 10
108.521140
 20
100.195754
 30
0.0
 10
109.864517
 20
102.862751
 30
0.0
 10
109.864517
 20
98.763477
 30
0.0
  0
LWPOLYLINE
  5
223
100
AcDbEntity
  8
Layer_1
 62
7
100
AcDbPolyline
 90
13
 70
1
 10
131.557306
 20
105.796597
 30
0.0
 10
128.998804
 20
98.763435
 30
0.0
 10
130.425074
 20
98.763435
 30
0.0
 10
131.243113
 20
101.163806
 30
0.0
 10
131.240996
 20
101.163806
 30
0.0
 10
132.129832
 20
103.722306
 30
0.0
 10
132.989210
 20
101.163806
 30
0.0
 10
131.760863
 20
101.163806
 30
0.0
 10
131.760863
 20
100.008321
 30
0.0
 10
133.354562
 20
100.008321
 30
0.0
 10
133.769524
 20
98.763435
 30
0.0
 10
135.201997
 20
98.763435
 30
0.0
 10
132.633676
 20
105.796597
 30
0.0
  0
LWPOLYLINE
  5
224
100
AcDbEntity
  8
Layer_1
 62
7
100
AcDbPolyline
 90
6
 70
1
 10
146.481936
 20
98.763477
 30
0.0
 10
146.481936
 20
99.988321
 30
0.0
 10
143.291418
 20
99.988321
 30
0.0
 10
143.291418
 20
105.796449
 30
0.0
 10
141.918408
 20
105.796449
 30
0.0
 10
141.918408
 20
98.763477
 30
0.0
  0
LWPOLYLINE
  5
225
100
AcDbEntity
  8
Layer_1
 62
7
100
AcDbPolyline
 90
7
 70
1
 10
159.010042
 20
105.796449
 30
0.0
 10
157.577765
 20
105.796449
 30
0.0
 10
156.165245
 20
101.213164
 30
0.0
 10
154.752724
 20
105.796449
 30
0.0
 10
153.330324
 20
105.796449
 30
0.0
 10
155.651601
 20
98.763477
 30
0.0
 10
156.678888
 20
98.763477
 30
0.0
  0
LWPOLYLINE
  5
226
100
AcDbEntity
  8
Layer_1
 62
7
100
AcDbPolyline
 90
12
 70
1
 10
122.844201
 20
98.763477
 30
0.0
 10
122.844201
 20
105.796449
 30
0.0
 10
121.471191
 20
105.796449
 30
0.0
 10
121.471191
 20
102.922018
 30
0.0
 10
119.090650
 20
102.922018
 30
0.0
 10
119.090650
 20
105.796449
 30
0.0
 10
117.717640
 20
105.796449
 30
0.0
 10
117.717640
 20
98.763477
 30
0.0
 10
119.090650
 20
98.763477
 30
0.0
 10
119.090650
 20
101.707054
 30
0.0
 10
121.471191
 20
101.707054
 30
0.0
 10
121.471191
 20
98.763477
 30
0.0
  0
SPLINE
  5
227
100
AcDbEntity
  8
Layer_1
 62
7
100
AcDbSpline
 70
8
 71
3
 72
8
 73
4
 74
0
 40
0
 40
0
 40
0
 40
0
 40
1
 40
1
 40
1
 40
1
 10
72.203822
 20
104.571335
 30
0.0
 10
72.806365
 20
104.571335
 30
0.0
 10
73.201692
 20
104.186507
 30
0.0
 10
73.201692
 20
103.643227
 30
0.0
  0
SPLINE
  5
228
100
AcDbEntity
  8
Layer_1
 62
7
100
AcDbSpline
 70
8
 71
3
 72
8
 73
4
 74
0
 40
0
 40
0
 40
0
 40
0
 40
1
 40
1
 40
1
 40
1
 10
73.201692
 20
103.643227
 30
0.0
 10
73.201692
 20
103.099950
 30
0.0
 10
72.806365
 20
102.714601
 30
0.0
 10
72.203822
 20
102.714601
 30
0.0
  0
LWPOLYLINE
  5
229
100
AcDbEntity
  8
Layer_1
 62
7
100
AcDbPolyline
 90
5
 70
0
 10
69.536801
 20
105.796597
 30
0.0
 10
69.536801
 20
104.571864
 30
0.0
 10
71.234372
 20
104.571864
 30
0.0
 10
71.234372
 20
104.571335
 30
0.0
 10
72.203822
 20
104.571335
 30
0.0
  0
SPLINE
  5
22a
100
AcDbEntity
  8
Layer_1
 62
7
100
AcDbSpline
 70
8
 71
3
 72
8
 73
4
 74
0
 40
0
 40
0
 40
0
 40
0
 40
1
 40
1
 40
1
 40
1
 10
73.290577
 20
101.795806
 30
0.0
 10
73.972143
 20
102.042749
 30
0.0
 10
74.574737
 20
102.655461
 30
0.0
 10
74.574737
 20
103.643238
 30
0.0
  0
SPLINE
  5
22b
100
AcDbEntity
  8
Layer_1
 62
7
100
AcDbSpline
 70
8
 71
3
 72
8
 73
4
 74
0
 40
0
 40
0
 40
0
 40
0
 40
1
 40
1
 40
1
 40
1
 10
74.574737
 20
103.643238
 30
0.0
 10
74.574737
 20
104.818692
 30
0.0
 10
73.724980
 20
105.796594
 30
0.0
 10
72.292706
 20
105.796594
 30
0.0
  0
LWPOLYLINE
  5
22c
100
AcDbEntity
  8
Layer_1
 62
7
100
AcDbPolyline
 90
11
 70
0
 10
72.203822
 20
102.714601
 30
0.0
 10
70.909842
 20
102.714601
 30
0.0
 10
70.909842
 20
102.715130
 30
0.0
 10
69.536801
 20
102.715130
 30
0.0
 10
69.536801
 20
98.763432
 30
0.0
 10
70.909842
 20
98.763432
 30
0.0
 10
70.909842
 20
101.568947
 30
0.0
 10
71.897897
 20
101.568947
 30
0.0
 10
73.270939
 20
98.763432
 30
0.0
 10
74.861024
 20
98.763432
 30
0.0
 10
73.290577
 20
101.795806
 30
0.0
  0
SPLINE
  5
22d
100
AcDbEntity
  8
Layer_1
 62
7
100
AcDbSpline
 70
8
 71
3
 72
8
 73
4
 74
0
 40
0
 40
0
 40
0
 40
0
 40
1
 40
1
 40
1
 40
1
 10
83.938505
 20
119.192680
 30
0.0
 10
83.138407
 20
119.192680
 30
0.0
 10
82.526048
 20
118.916071
 30
0.0
 10
82.032163
 20
118.422184
 30
0.0
  0
SPLINE
  5
22e
100
AcDbEntity
  8
Layer_1
 62
7
100
AcDbSpline
 70
8
 71
3
 72
8
 73
4
 74
0
 40
0
 40
0
 40
0
 40
0
 40
1
 40
1
 40
1
 40
1
 10
82.032163
 20
118.422184
 30
0.0
 10
81.320963
 20
117.710984
 30
0.0
 10
81.340730
 20
116.831633
 30
0.0
 10
81.340730
 20
115.616669
 30
0.0
  0
SPLINE
  5
22f
100
AcDbEntity
  8
Layer_1
 62
7
100
AcDbSpline
 70
8
 71
3
 72
8
 73
4
 74
0
 40
0
 40
0
 40
0
 40
0
 40
1
 40
1
 40
1
 40
1
 10
81.340730
 20
115.616669
 30
0.0
 10
81.340730
 20
114.511729
 30
0.0
 10
81.326522
 20
113.684782
 30
0.0
 10
81.858530
 20
113.009076
 30
0.0
  0
LWPOLYLINE
  5
230
100
AcDbEntity
  8
Layer_1
 62
7
100
AcDbPolyline
 90
2
 70
0
 10
72.292706
 20
105.796594
 30
0.0
 10
69.536801
 20
105.796597
 30
0.0
  0
SPLINE
  5
231
100
AcDbEntity
  8
Layer_1
 62
7
100
AcDbSpline
 70
8
 71
3
 72
8
 73
4
 74
0
 40
0
 40
0
 40
0
 40
0
 40
1
 40
1
 40
1
 40
1
 10
82.745297
 20
114.544384
 30
0.0
 10
82.723363
 20
114.808118
 30
0.0
 10
82.713775
 20
115.147743
 30
0.0
 10
82.713775
 20
115.616669
 30
0.0
  0
SPLINE
  5
232
100
AcDbEntity
  8
Layer_1
 62
7
100
AcDbSpline
 70
8
 71
3
 72
8
 73
4
 74
0
 40
0
 40
0
 40
0
 40
0
 40
1
 40
1
 40
1
 40
1
 10
82.713775
 20
115.616669
 30
0.0
 10
82.713775
 20
116.969923
 30
0.0
 10
82.782971
 20
117.295927
 30
0.0
 10
83.049671
 20
117.592260
 30
0.0
  0
SPLINE
  5
233
100
AcDbEntity
  8
Layer_1
 62
7
100
AcDbSpline
 70
8
 71
3
 72
8
 73
4
 74
0
 40
0
 40
0
 40
0
 40
0
 40
1
 40
1
 40
1
 40
1
 10
83.049671
 20
117.592260
 30
0.0
 10
83.247228
 20
117.819447
 30
0.0
 10
83.563151
 20
117.967431
 30
0.0
 10
83.938505
 20
117.967431
 30
0.0
  0
SPLINE
  5
234
100
AcDbEntity
  8
Layer_1
 62
7
100
AcDbSpline
 70
8
 71
3
 72
8
 73
4
 74
0
 40
0
 40
0
 40
0
 40
0
 40
1
 40
1
 40
1
 40
1
 10
83.938505
 20
117.967431
 30
0.0
 10
84.200463
 20
117.967431
 30
0.0
 10
84.428092
 20
117.894470
 30
0.0
 10
84.609266
 20
117.773645
 30
0.0
  0
LWPOLYLINE
  5
235
100
AcDbEntity
  8
Layer_1
 62
7
100
AcDbPolyline
 90
2
 70
0
 10
81.858530
 20
113.009076
 30
0.0
 10
82.745297
 20
114.544384
 30
0.0
  0
SPLINE
  5
236
100
AcDbEntity
  8
Layer_1
 62
7
100
AcDbSpline
 70
8
 71
3
 72
8
 73
4
 74
0
 40
0
 40
0
 40
0
 40
0
 40
1
 40
1
 40
1
 40
1
 10
85.244369
 20
118.873835
 30
0.0
 10
84.873410
 20
119.080856
 30
0.0
 10
84.445489
 20
119.192680
 30
0.0
 10
83.938505
 20
119.192680
 30
0.0
  0
LWPOLYLINE
  5
237
100
AcDbEntity
  8
Layer_1
 62
7
100
AcDbPolyline
 90
2
 70
0
 10
84.609266
 20
117.773645
 30
0.0
 10
85.244369
 20
118.873835
 30
0.0
  0
LWPOLYLINE
  5
238
100
AcDbEntity
  8
Layer_1
 62
7
100
AcDbPolyline
 90
1
 70
1
 10
83.938505
 20
119.192680
 30
0.0
  0
SPLINE
  5
239
100
AcDbEntity
  8
Layer_1
 62
7
100
AcDbSpline
 70
8
 71
3
 72
8
 73
4
 74
0
 40
0
 40
0
 40
0
 40
0
 40
1
 40
1
 40
1
 40
1
 10
85.115694
 20
116.830548
 30
0.0
 10
85.149804
 20
116.552281
 30
0.0
 10
85.163753
 20
116.171887
 30
0.0
 10
85.163753
 20
115.616669
 30
0.0
  0
SPLINE
  5
23a
100
AcDbEntity
  8
Layer_1
 62
7
100
AcDbSpline
 70
8
 71
3
 72
8
 73
4
 74
0
 40
0
 40
0
 40
0
 40
0
 40
1
 40
1
 40
1
 40
1
 10
85.163753
 20
115.616669
 30
0.0
 10
85.163753
 20
114.263418
 30
0.0
 10
85.084738
 20
113.937412
 30
0.0
 10
84.818038
 20
113.641078
 30
0.0
  0
SPLINE
  5
23b
100
AcDbEntity
  8
Layer_1
 62
7
100
AcDbSpline
 70
8
 71
3
 72
8
 73
4
 74
0
 40
0
 40
0
 40
0
 40
0
 40
1
 40
1
 40
1
 40
1
 10
84.818038
 20
113.641078
 30
0.0
 10
84.620481
 20
113.413891
 30
0.0
 10
84.313858
 20
113.265910
 30
0.0
 10
83.938505
 20
113.265910
 30
0.0
  0
SPLINE
  5
23c
100
AcDbEntity
  8
Layer_1
 62
7
100
AcDbSpline
 70
8
 71
3
 72
8
 73
4
 74
0
 40
0
 40
0
 40
0
 40
0
 40
1
 40
1
 40
1
 40
1
 10
83.938505
 20
113.265910
 30
0.0
 10
83.644817
 20
113.265910
 30
0.0
 10
83.388650
 20
113.357395
 30
0.0
 10
83.195914
 20
113.505688
 30
0.0
  0
LWPOLYLINE
  5
23d
100
AcDbEntity
  8
Layer_1
 62
7
100
AcDbPolyline
 90
2
 70
0
 10
85.958022
 20
118.289374
 30
0.0
 10
85.115694
 20
116.830548
 30
0.0
  0
SPLINE
  5
23e
100
AcDbEntity
  8
Layer_1
 62
7
100
AcDbSpline
 70
8
 71
3
 72
8
 73
4
 74
0
 40
0
 40
0
 40
0
 40
0
 40
1
 40
1
 40
1
 40
1
 10
82.557194
 20
112.399296
 30
0.0
 10
82.946825
 20
112.166653
 30
0.0
 10
83.399839
 20
112.041177
 30
0.0
 10
83.938505
 20
112.041177
 30
0.0
  0
SPLINE
  5
23f
100
AcDbEntity
  8
Layer_1
 62
7
100
AcDbSpline
 70
8
 71
3
 72
8
 73
4
 74
0
 40
0
 40
0
 40
0
 40
0
 40
1
 40
1
 40
1
 40
1
 10
83.938505
 20
112.041177
 30
0.0
 10
84.738602
 20
112.041177
 30
0.0
 10
85.341661
 20
112.317270
 30
0.0
 10
85.835549
 20
112.811157
 30
0.0
  0
SPLINE
  5
240
100
AcDbEntity
  8
Layer_1
 62
7
100
AcDbSpline
 70
8
 71
3
 72
8
 73
4
 74
0
 40
0
 40
0
 40
0
 40
0
 40
1
 40
1
 40
1
 40
1
 10
85.835549
 20
112.811157
 30
0.0
 10
86.546746
 20
113.522355
 30
0.0
 10
86.536798
 20
114.401705
 30
0.0
 10
86.536798
 20
115.616669
 30
0.0
  0
SPLINE
  5
241
100
AcDbEntity
  8
Layer_1
 62
7
100
AcDbSpline
 70
8
 71
3
 72
8
 73
4
 74
0
 40
0
 40
0
 40
0
 40
0
 40
1
 40
1
 40
1
 40
1
 10
86.536798
 20
115.616669
 30
0.0
 10
86.536798
 20
116.757201
 30
0.0
 10
86.545291
 20
117.601838
 30
0.0
 10
85.958022
 20
118.289374
 30
0.0
  0
LWPOLYLINE
  5
242
100
AcDbEntity
  8
Layer_1
 62
7
100
AcDbPolyline
 90
2
 70
0
 10
83.195914
 20
113.505688
 30
0.0
 10
82.557194
 20
112.399296
 30
0.0
  0
LWPOLYLINE
  5
243
100
AcDbEntity
  8
Layer_1
 62
7
100
AcDbPolyline
 90
1
 70
1
 10
85.958022
 20
118.289374
 30
0.0
  0
LWPOLYLINE
  5
244
100
AcDbEntity
  8
Layer_1
 62
7
100
AcDbPolyline
 90
6
 70
1
 10
98.601871
 20
112.159477
 30
0.0
 10
98.601871
 20
113.384321
 30
0.0
 10
95.411353
 20
113.384321
 30
0.0
 10
95.411353
 20
119.192449
 30
0.0
 10
94.038343
 20
119.192449
 30
0.0
 10
94.038343
 20
112.159477
 30
0.0
  0
LWPOLYLINE
  5
245
100
AcDbEntity
  8
Layer_1
 62
7
100
AcDbPolyline
 90
4
 70
1
 10
108.714757
 20
112.159477
 30
0.0
 10
108.714757
 20
119.192449
 30
0.0
 10
107.341747
 20
119.192449
 30
0.0
 10
107.341747
 20
112.159477
 30
0.0
  0
LWPOLYLINE
  5
246
100
AcDbEntity
  8
Layer_1
 62
7
100
AcDbPolyline
 90
7
 70
1
 10
123.125923
 20
119.192449
 30
0.0
 10
121.693646
 20
119.192449
 30
0.0
 10
120.281126
 20
114.609164
 30
0.0
 10
118.868605
 20
119.192449
 30
0.0
 10
117.446205
 20
119.192449
 30
0.0
 10
119.767482
 20
112.159477
 30
0.0
 10
120.794769
 20
112.159477
 30
0.0
  0
LWPOLYLINE
  5
247
100
AcDbEntity
  8
Layer_1
 62
7
100
AcDbPolyline
 90
4
 70
1
 10
132.912574
 20
112.159477
 30
0.0
 10
132.912574
 20
119.192449
 30
0.0
 10
131.539564
 20
119.192449
 30
0.0
 10
131.539564
 20
112.159477
 30
0.0
  0
LWPOLYLINE
  5
248
100
AcDbEntity
  8
Layer_1
 62
7
100
AcDbPolyline
 90
13
 70
1
 10
159.485829
 20
112.159477
 30
0.0
 10
159.485829
 20
119.192449
 30
0.0
 10
158.132572
 20
119.192449
 30
0.0
 10
156.305185
 20
115.389508
 30
0.0
 10
154.467921
 20
119.192449
 30
0.0
 10
153.114668
 20
119.192449
 30
0.0
 10
153.114668
 20
112.159477
 30
0.0
 10
154.487678
 20
112.159477
 30
0.0
 10
154.487678
 20
116.258751
 30
0.0
 10
155.840932
 20
113.591754
 30
0.0
 10
156.769442
 20
113.591754
 30
0.0
 10
158.112819
 20
116.258751
 30
0.0
 10
158.112819
 20
112.159477
 30
0.0
  0
SPLINE
  5
249
100
AcDbEntity
  8
Layer_1
 62
7
100
AcDbSpline
 70
8
 71
3
 72
8
 73
4
 74
0
 40
0
 40
0
 40
0
 40
0
 40
1
 40
1
 40
1
 40
1
 10
144.457293
 20
117.967431
 30
0.0
 10
145.079590
 20
117.967431
 30
0.0
 10
145.474801
 20
117.572439
 30
0.0
 10
145.474801
 20
116.999532
 30
0.0
  0
SPLINE
  5
24a
100
AcDbEntity
  8
Layer_1
 62
7
100
AcDbSpline
 70
8
 71
3
 72
8
 73
4
 74
0
 40
0
 40
0
 40
0
 40
0
 40
1
 40
1
 40
1
 40
1
 10
145.474801
 20
116.999532
 30
0.0
 10
145.474801
 20
116.426622
 30
0.0
 10
145.079590
 20
116.041449
 30
0.0
 10
144.457293
 20
116.041449
 30
0.0
  0
LWPOLYLINE
  5
24b
100
AcDbEntity
  8
Layer_1
 62
7
100
AcDbPolyline
 90
5
 70
0
 10
141.800606
 20
119.192679
 30
0.0
 10
141.800606
 20
117.967431
 30
0.0
 10
143.173132
 20
117.967431
 30
0.0
 10
143.501795
 20
117.967431
 30
0.0
 10
144.457293
 20
117.967431
 30
0.0
  0
SPLINE
  5
24c
100
AcDbEntity
  8
Layer_1
 62
7
100
AcDbSpline
 70
8
 71
3
 72
8
 73
4
 74
0
 40
0
 40
0
 40
0
 40
0
 40
1
 40
1
 40
1
 40
1
 10
144.526539
 20
114.806864
 30
0.0
 10
145.978568
 20
114.806864
 30
0.0
 10
146.847843
 20
115.804285
 30
0.0
 10
146.847843
 20
116.999495
 30
0.0
  0
SPLINE
  5
24d
100
AcDbEntity
  8
Layer_1
 62
7
100
AcDbSpline
 70
8
 71
3
 72
8
 73
4
 74
0
 40
0
 40
0
 40
0
 40
0
 40
1
 40
1
 40
1
 40
1
 10
146.847843
 20
116.999495
 30
0.0
 10
146.847843
 20
118.194702
 30
0.0
 10
145.978568
 20
119.192642
 30
0.0
 10
144.526539
 20
119.192642
 30
0.0
  0
LWPOLYLINE
  5
24e
100
AcDbEntity
  8
Layer_1
 62
7
100
AcDbPolyline
 90
8
 70
0
 10
144.457293
 20
116.041449
 30
0.0
 10
143.501795
 20
116.041449
 30
0.0
 10
143.501795
 20
116.039862
 30
0.0
 10
141.800606
 20
116.039862
 30
0.0
 10
141.800606
 20
112.159480
 30
0.0
 10
143.173132
 20
112.159480
 30
0.0
 10
143.173132
 20
114.806864
 30
0.0
 10
144.526539
 20
114.806864
 30
0.0
  0
LWPOLYLINE
  5
24f
100
AcDbEntity
  8
Layer_1
 62
7
100
AcDbPolyline
 90
2
 70
0
 10
144.526539
 20
119.192642
 30
0.0
 10
141.800606
 20
119.192679
 30
0.0
  0
SPLINE
  5
250
100
AcDbEntity
  8
Layer_1
 62
7
100
AcDbSpline
 70
8
 71
3
 72
8
 73
4
 74
0
 40
0
 40
0
 40
0
 40
0
 40
1
 40
1
 40
1
 40
1
 10
73.190977
 20
114.599288
 30
0.0
 10
73.190977
 20
114.233811
 30
0.0
 10
73.102077
 20
113.917721
 30
0.0
 10
72.874887
 20
113.660898
 30
0.0
  0
SPLINE
  5
251
100
AcDbEntity
  8
Layer_1
 62
7
100
AcDbSpline
 70
8
 71
3
 72
8
 73
4
 74
0
 40
0
 40
0
 40
0
 40
0
 40
1
 40
1
 40
1
 40
1
 10
72.874887
 20
113.660898
 30
0.0
 10
72.647697
 20
113.413955
 30
0.0
 10
72.311854
 20
113.265788
 30
0.0
 10
71.896987
 20
113.265788
 30
0.0
  0
SPLINE
  5
252
100
AcDbEntity
  8
Layer_1
 62
7
100
AcDbSpline
 70
8
 71
3
 72
8
 73
4
 74
0
 40
0
 40
0
 40
0
 40
0
 40
1
 40
1
 40
1
 40
1
 10
71.896987
 20
113.265788
 30
0.0
 10
71.521633
 20
113.265788
 30
0.0
 10
71.215423
 20
113.404078
 30
0.0
 10
71.017867
 20
113.631265
 30
0.0
  0
SPLINE
  5
253
100
AcDbEntity
  8
Layer_1
 62
7
100
AcDbSpline
 70
8
 71
3
 72
8
 73
4
 74
0
 40
0
 40
0
 40
0
 40
0
 40
1
 40
1
 40
1
 40
1
 10
71.017867
 20
113.631265
 30
0.0
 10
70.751167
 20
113.927598
 30
0.0
 10
70.682023
 20
114.263445
 30
0.0
 10
70.682023
 20
115.616698
 30
0.0
  0
SPLINE
  5
254
100
AcDbEntity
  8
Layer_1
 62
7
100
AcDbSpline
 70
8
 71
3
 72
8
 73
4
 74
0
 40
0
 40
0
 40
0
 40
0
 40
1
 40
1
 40
1
 40
1
 10
70.682023
 20
115.616698
 30
0.0
 10
70.682023
 20
116.969952
 30
0.0
 10
70.751167
 20
117.295919
 30
0.0
 10
71.017867
 20
117.592252
 30
0.0
  0
SPLINE
  5
255
100
AcDbEntity
  8
Layer_1
 62
7
100
AcDbSpline
 70
8
 71
3
 72
8
 73
4
 74
0
 40
0
 40
0
 40
0
 40
0
 40
1
 40
1
 40
1
 40
1
 10
71.017867
 20
117.592252
 30
0.0
 10
71.215423
 20
117.819439
 30
0.0
 10
71.521633
 20
117.967606
 30
0.0
 10
71.896987
 20
117.967606
 30
0.0
  0
SPLINE
  5
256
100
AcDbEntity
  8
Layer_1
 62
7
100
AcDbSpline
 70
8
 71
3
 72
8
 73
4
 74
0
 40
0
 40
0
 40
0
 40
0
 40
1
 40
1
 40
1
 40
1
 10
71.896987
 20
117.967606
 30
0.0
 10
72.598310
 20
117.967606
 30
0.0
 10
73.003297
 20
117.602129
 30
0.0
 10
73.161343
 20
116.940319
 30
0.0
  0
LWPOLYLINE
  5
257
100
AcDbEntity
  8
Layer_1
 62
7
100
AcDbPolyline
 90
6
 70
0
 10
74.554107
 20
114.984521
 30
0.0
 10
74.554107
 20
116.011809
 30
0.0
 10
71.896987
 20
116.011809
 30
0.0
 10
71.896987
 20
114.865988
 30
0.0
 10
73.190977
 20
114.865988
 30
0.0
 10
73.190977
 20
114.599288
 30
0.0
  0
SPLINE
  5
258
100
AcDbEntity
  8
Layer_1
 62
7
100
AcDbSpline
 70
8
 71
3
 72
8
 73
4
 74
0
 40
0
 40
0
 40
0
 40
0
 40
1
 40
1
 40
1
 40
1
 10
74.544231
 20
116.940319
 30
0.0
 10
74.356554
 20
118.125652
 30
0.0
 10
73.526820
 20
119.192449
 30
0.0
 10
71.896987
 20
119.192449
 30
0.0
  0
SPLINE
  5
259
100
AcDbEntity
  8
Layer_1
 62
7
100
AcDbSpline
 70
8
 71
3
 72
8
 73
4
 74
0
 40
0
 40
0
 40
0
 40
0
 40
1
 40
1
 40
1
 40
1
 10
71.896987
 20
119.192449
 30
0.0
 10
71.106767
 20
119.192449
 30
0.0
 10
70.494344
 20
118.915872
 30
0.0
 10
70.000456
 20
118.421985
 30
0.0
  0
SPLINE
  5
25a
100
AcDbEntity
  8
Layer_1
 62
7
100
AcDbSpline
 70
8
 71
3
 72
8
 73
4
 74
0
 40
0
 40
0
 40
0
 40
0
 40
1
 40
1
 40
1
 40
1
 10
70.000456
 20
118.421985
 30
0.0
 10
69.289256
 20
117.710785
 30
0.0
 10
69.309013
 20
116.831662
 30
0.0
 10
69.309013
 20
115.616698
 30
0.0
  0
SPLINE
  5
25b
100
AcDbEntity
  8
Layer_1
 62
7
100
AcDbSpline
 70
8
 71
3
 72
8
 73
4
 74
0
 40
0
 40
0
 40
0
 40
0
 40
1
 40
1
 40
1
 40
1
 10
69.309013
 20
115.616698
 30
0.0
 10
69.309013
 20
114.401732
 30
0.0
 10
69.289248
 20
113.522611
 30
0.0
 10
70.000456
 20
112.811411
 30
0.0
  0
SPLINE
  5
25c
100
AcDbEntity
  8
Layer_1
 62
7
100
AcDbSpline
 70
8
 71
3
 72
8
 73
4
 74
0
 40
0
 40
0
 40
0
 40
0
 40
1
 40
1
 40
1
 40
1
 10
70.000456
 20
112.811411
 30
0.0
 10
70.494344
 20
112.317524
 30
0.0
 10
71.126523
 20
112.040945
 30
0.0
 10
71.896987
 20
112.040945
 30
0.0
  0
SPLINE
  5
25d
100
AcDbEntity
  8
Layer_1
 62
7
100
AcDbSpline
 70
8
 71
3
 72
8
 73
4
 74
0
 40
0
 40
0
 40
0
 40
0
 40
1
 40
1
 40
1
 40
1
 10
71.896987
 20
112.040945
 30
0.0
 10
72.647697
 20
112.040945
 30
0.0
 10
73.319387
 20
112.258257
 30
0.0
 10
73.882420
 20
112.841045
 30
0.0
  0
SPLINE
  5
25e
100
AcDbEntity
  8
Layer_1
 62
7
100
AcDbSpline
 70
8
 71
3
 72
8
 73
4
 74
0
 40
0
 40
0
 40
0
 40
0
 40
1
 40
1
 40
1
 40
1
 10
73.882420
 20
112.841045
 30
0.0
 10
74.376307
 20
113.354688
 30
0.0
 10
74.554107
 20
113.967111
 30
0.0
 10
74.554107
 20
114.984521
 30
0.0
  0
LWPOLYLINE
  5
25f
100
AcDbEntity
  8
Layer_1
 62
7
100
AcDbPolyline
 90
2
 70
0
 10
73.161343
 20
116.940319
 30
0.0
 10
74.544231
 20
116.940319
 30
0.0
  0
LWPOLYLINE
  5
260
100
AcDbEntity
  8
Layer_1
 62
7
100
AcDbPolyline
 90
1
 70
1
 10
74.554107
 20
114.984521
 30
0.0
  0
SPLINE
  5
261
100
AcDbEntity
  8
Layer_1
 62
7
100
AcDbSpline
 70
8
 71
3
 72
8
 73
4
 74
0
 40
0
 40
0
 40
0
 40
0
 40
1
 40
1
 40
1
 40
1
 10
61.126181
 20
114.619044
 30
0.0
 10
61.126181
 20
113.809064
 30
0.0
 10
60.642169
 20
113.325054
 30
0.0
 10
59.901338
 20
113.325054
 30
0.0
  0
SPLINE
  5
262
100
AcDbEntity
  8
Layer_1
 62
7
100
AcDbSpline
 70
8
 71
3
 72
8
 73
4
 74
0
 40
0
 40
0
 40
0
 40
0
 40
1
 40
1
 40
1
 40
1
 10
59.901338
 20
113.325054
 30
0.0
 10
59.160505
 20
113.325054
 30
0.0
 10
58.686371
 20
113.809064
 30
0.0
 10
58.686371
 20
114.619044
 30
0.0
  0
LWPOLYLINE
  5
263
100
AcDbEntity
  8
Layer_1
 62
7
100
AcDbPolyline
 90
4
 70
0
 10
62.489312
 20
114.569654
 30
0.0
 10
62.489312
 20
119.192449
 30
0.0
 10
61.126181
 20
119.192449
 30
0.0
 10
61.126181
 20
114.619044
 30
0.0
  0
SPLINE
  5
264
100
AcDbEntity
  8
Layer_1
 62
7
100
AcDbSpline
 70
8
 71
3
 72
8
 73
4
 74
0
 40
0
 40
0
 40
0
 40
0
 40
1
 40
1
 40
1
 40
1
 10
57.313361
 20
114.569654
 30
0.0
 10
57.313361
 20
113.078111
 30
0.0
 10
58.459182
 20
112.100211
 30
0.0
 10
59.901338
 20
112.100211
 30
0.0
  0
SPLINE
  5
265
100
AcDbEntity
  8
Layer_1
 62
7
100
AcDbSpline
 70
8
 71
3
 72
8
 73
4
 74
0
 40
0
 40
0
 40
0
 40
0
 40
1
 40
1
 40
1
 40
1
 10
59.901338
 20
112.100211
 30
0.0
 10
61.343492
 20
112.100211
 30
0.0
 10
62.489312
 20
113.078111
 30
0.0
 10
62.489312
 20
114.569654
 30
0.0
  0
LWPOLYLINE
  5
266
100
AcDbEntity
  8
Layer_1
 62
7
100
AcDbPolyline
 90
4
 70
0
 10
58.686371
 20
114.619044
 30
0.0
 10
58.686371
 20
119.192449
 30
0.0
 10
57.313361
 20
119.192449
 30
0.0
 10
57.313361
 20
114.569654
 30
0.0
  0
LWPOLYLINE
  5
267
100
AcDbEntity
  8
Layer_1
 62
7
100
AcDbPolyline
 90
1
 70
1
 10
62.489312
 20
114.569654
 30
0.0
  0
SPLINE
  5
268
100
AcDbEntity
  8
Layer_1
 62
7
100
AcDbSpline
 70
8
 71
3
 72
8
 73
4
 74
0
 40
0
 40
0
 40
0
 40
0
 40
1
 40
1
 40
1
 40
1
 10
48.342442
 20
114.530144
 30
0.0
 10
48.342442
 20
113.720164
 30
0.0
 10
47.907819
 20
113.325054
 30
0.0
 10
47.236132
 20
113.325054
 30
0.0
  0
SPLINE
  5
269
100
AcDbEntity
  8
Layer_1
 62
7
100
AcDbSpline
 70
8
 71
3
 72
8
 73
4
 74
0
 40
0
 40
0
 40
0
 40
0
 40
1
 40
1
 40
1
 40
1
 10
47.236132
 20
113.325054
 30
0.0
 10
46.781755
 20
113.325054
 30
0.0
 10
46.564442
 20
113.492977
 30
0.0
 10
46.337255
 20
113.720164
 30
0.0
  0
LWPOLYLINE
  5
26a
100
AcDbEntity
  8
Layer_1
 62
7
100
AcDbPolyline
 90
4
 70
0
 10
49.715452
 20
114.470877
 30
0.0
 10
49.715452
 20
119.192449
 30
0.0
 10
48.342442
 20
119.192449
 30
0.0
 10
48.342442
 20
114.530144
 30
0.0
  0
SPLINE
  5
26b
100
AcDbEntity
  8
Layer_1
 62
7
100
AcDbSpline
 70
8
 71
3
 72
8
 73
4
 74
0
 40
0
 40
0
 40
0
 40
0
 40
1
 40
1
 40
1
 40
1
 10
45.428498
 20
112.821287
 30
0.0
 10
45.952022
 20
112.297767
 30
0.0
 10
46.475542
 20
112.100211
 30
0.0
 10
47.236132
 20
112.100211
 30
0.0
  0
SPLINE
  5
26c
100
AcDbEntity
  8
Layer_1
 62
7
100
AcDbSpline
 70
8
 71
3
 72
8
 73
4
 74
0
 40
0
 40
0
 40
0
 40
0
 40
1
 40
1
 40
1
 40
1
 10
47.236132
 20
112.100211
 30
0.0
 10
48.539996
 20
112.100211
 30
0.0
 10
49.715452
 20
112.920067
 30
0.0
 10
49.715452
 20
114.470877
 30
0.0
  0
LWPOLYLINE
  5
26d
100
AcDbEntity
  8
Layer_1
 62
7
100
AcDbPolyline
 90
2
 70
0
 10
46.337255
 20
113.720164
 30
0.0
 10
45.428498
 20
112.821287
 30
0.0
  0
LWPOLYLINE
  5
26e
100
AcDbEntity
  8
Layer_1
 62
7
100
AcDbPolyline
 90
1
 70
1
 10
49.715452
 20
114.470877
 30
0.0
  0
LWPOLYLINE
  5
26f
100
AcDbEntity
  8
Layer_1
 62
7
100
AcDbPolyline
 90
7
 70
1
 10
50.639781
 20
132.373449
 30
0.0
 10
49.207504
 20
132.373449
 30
0.0
 10
47.794984
 20
127.790164
 30
0.0
 10
46.382463
 20
132.373449
 30
0.0
 10
44.960063
 20
132.373449
 30
0.0
 10
47.281340
 20
125.340477
 30
0.0
 10
48.308627
 20
125.340477
 30
0.0
  0
LWPOLYLINE
  5
270
100
AcDbEntity
  8
Layer_1
 62
7
100
AcDbPolyline
 90
13
 70
1
 10
59.302799
 20
132.373269
 30
0.0
 10
56.744299
 20
125.340623
 30
0.0
 10
58.171602
 20
125.340623
 30
0.0
 10
58.989641
 20
127.740994
 30
0.0
 10
58.986545
 20
127.740994
 30
0.0
 10
59.875381
 20
130.298978
 30
0.0
 10
60.734758
 20
127.740994
 30
0.0
 10
59.507444
 20
127.740994
 30
0.0
 10
59.507444
 20
126.584993
 30
0.0
 10
61.100111
 20
126.584993
 30
0.0
 10
61.515073
 20
125.340623
 30
0.0
 10
62.947545
 20
125.340623
 30
0.0
 10
60.379224
 20
132.373269
 30
0.0
  0
SPLINE
  5
271
100
AcDbEntity
  8
Layer_1
 62
7
100
AcDbSpline
 70
8
 71
3
 72
8
 73
4
 74
0
 40
0
 40
0
 40
0
 40
0
 40
1
 40
1
 40
1
 40
1
 10
72.262733
 20
131.148539
 30
0.0
 10
72.865276
 20
131.148539
 30
0.0
 10
73.260088
 20
130.763192
 30
0.0
 10
73.260088
 20
130.219912
 30
0.0
  0
SPLINE
  5
272
100
AcDbEntity
  8
Layer_1
 62
7
100
AcDbSpline
 70
8
 71
3
 72
8
 73
4
 74
0
 40
0
 40
0
 40
0
 40
0
 40
1
 40
1
 40
1
 40
1
 10
73.260088
 20
130.219912
 30
0.0
 10
73.260088
 20
129.676635
 30
0.0
 10
72.865276
 20
129.291804
 30
0.0
 10
72.262733
 20
129.291804
 30
0.0
  0
LWPOLYLINE
  5
273
100
AcDbEntity
  8
Layer_1
 62
7
100
AcDbPolyline
 90
5
 70
0
 10
69.595712
 20
132.373269
 30
0.0
 10
69.595712
 20
131.148539
 30
0.0
 10
70.968754
 20
131.148539
 30
0.0
 10
71.298451
 20
131.148539
 30
0.0
 10
72.262733
 20
131.148539
 30
0.0
  0
SPLINE
  5
274
100
AcDbEntity
  8
Layer_1
 62
7
100
AcDbSpline
 70
8
 71
3
 72
8
 73
4
 74
0
 40
0
 40
0
 40
0
 40
0
 40
1
 40
1
 40
1
 40
1
 10
73.348972
 20
128.372996
 30
0.0
 10
74.030538
 20
128.619940
 30
0.0
 10
74.633130
 20
129.232136
 30
0.0
 10
74.633130
 20
130.219912
 30
0.0
  0
SPLINE
  5
275
100
AcDbEntity
  8
Layer_1
 62
7
100
AcDbSpline
 70
8
 71
3
 72
8
 73
4
 74
0
 40
0
 40
0
 40
0
 40
0
 40
1
 40
1
 40
1
 40
1
 10
74.633130
 20
130.219912
 30
0.0
 10
74.633130
 20
131.395369
 30
0.0
 10
73.783891
 20
132.373269
 30
0.0
 10
72.351617
 20
132.373269
 30
0.0
  0
LWPOLYLINE
  5
276
100
AcDbEntity
  8
Layer_1
 62
7
100
AcDbPolyline
 90
11
 70
0
 10
72.262733
 20
129.291804
 30
0.0
 10
71.298451
 20
129.291804
 30
0.0
 10
70.968754
 20
129.291804
 30
0.0
 10
69.595712
 20
129.291804
 30
0.0
 10
69.595712
 20
125.340623
 30
0.0
 10
70.968754
 20
125.340623
 30
0.0
 10
70.968754
 20
128.145621
 30
0.0
 10
71.956292
 20
128.145621
 30
0.0
 10
73.329334
 20
125.340623
 30
0.0
 10
74.919935
 20
125.340623
 30
0.0
 10
73.348972
 20
128.372996
 30
0.0
  0
LWPOLYLINE
  5
277
100
AcDbEntity
  8
Layer_1
 62
7
100
AcDbPolyline
 90
2
 70
0
 10
72.351617
 20
132.373269
 30
0.0
 10
69.595712
 20
132.373269
 30
0.0
  0
SPLINE
  5
278
100
AcDbEntity
  8
Layer_1
 62
7
100
AcDbSpline
 70
8
 71
3
 72
8
 73
4
 74
0
 40
0
 40
0
 40
0
 40
0
 40
1
 40
1
 40
1
 40
1
 10
96.076783
 20
132.373269
 30
0.0
 10
95.276683
 20
132.373269
 30
0.0
 10
94.663810
 20
132.096661
 30
0.0
 10
94.169923
 20
131.602774
 30
0.0
  0
SPLINE
  5
279
100
AcDbEntity
  8
Layer_1
 62
7
100
AcDbSpline
 70
8
 71
3
 72
8
 73
4
 74
0
 40
0
 40
0
 40
0
 40
0
 40
1
 40
1
 40
1
 40
1
 10
94.169923
 20
131.602774
 30
0.0
 10
93.458723
 20
130.891574
 30
0.0
 10
93.478493
 20
130.012739
 30
0.0
 10
93.478493
 20
128.797778
 30
0.0
  0
SPLINE
  5
27a
100
AcDbEntity
  8
Layer_1
 62
7
100
AcDbSpline
 70
8
 71
3
 72
8
 73
4
 74
0
 40
0
 40
0
 40
0
 40
0
 40
1
 40
1
 40
1
 40
1
 10
93.478493
 20
128.797778
 30
0.0
 10
93.478493
 20
127.693947
 30
0.0
 10
93.464364
 20
126.867584
 30
0.0
 10
93.994740
 20
126.192251
 30
0.0
  0
LWPOLYLINE
  5
27b
100
AcDbEntity
  8
Layer_1
 62
7
100
AcDbPolyline
 90
8
 70
1
 10
86.496485
 20
131.148605
 30
0.0
 10
86.496485
 20
132.373449
 30
0.0
 10
81.448944
 20
132.373449
 30
0.0
 10
81.448944
 20
131.148605
 30
0.0
 10
83.286211
 20
131.148605
 30
0.0
 10
83.286211
 20
125.340477
 30
0.0
 10
84.659221
 20
125.340477
 30
0.0
 10
84.659221
 20
131.148605
 30
0.0
  0
SPLINE
  5
27c
100
AcDbEntity
  8
Layer_1
 62
7
100
AcDbSpline
 70
8
 71
3
 72
8
 73
4
 74
0
 40
0
 40
0
 40
0
 40
0
 40
1
 40
1
 40
1
 40
1
 10
94.882541
 20
127.729626
 30
0.0
 10
94.860846
 20
127.992849
 30
0.0
 10
94.851535
 20
128.331230
 30
0.0
 10
94.851535
 20
128.797778
 30
0.0
  0
SPLINE
  5
27d
100
AcDbEntity
  8
Layer_1
 62
7
100
AcDbSpline
 70
8
 71
3
 72
8
 73
4
 74
0
 40
0
 40
0
 40
0
 40
0
 40
1
 40
1
 40
1
 40
1
 10
94.851535
 20
128.797778
 30
0.0
 10
94.851535
 20
130.151029
 30
0.0
 10
94.920731
 20
130.477035
 30
0.0
 10
95.187431
 20
130.773368
 30
0.0
  0
SPLINE
  5
27e
100
AcDbEntity
  8
Layer_1
 62
7
100
AcDbSpline
 70
8
 71
3
 72
8
 73
4
 74
0
 40
0
 40
0
 40
0
 40
0
 40
1
 40
1
 40
1
 40
1
 10
95.187431
 20
130.773368
 30
0.0
 10
95.384988
 20
131.000553
 30
0.0
 10
95.701427
 20
131.148537
 30
0.0
 10
96.076783
 20
131.148537
 30
0.0
  0
SPLINE
  5
27f
100
AcDbEntity
  8
Layer_1
 62
7
100
AcDbSpline
 70
8
 71
3
 72
8
 73
4
 74
0
 40
0
 40
0
 40
0
 40
0
 40
1
 40
1
 40
1
 40
1
 10
96.076783
 20
131.148537
 30
0.0
 10
96.337993
 20
131.148537
 30
0.0
 10
96.564551
 20
131.075991
 30
0.0
 10
96.745475
 20
130.955785
 30
0.0
  0
LWPOLYLINE
  5
280
100
AcDbEntity
  8
Layer_1
 62
7
100
AcDbPolyline
 90
2
 70
0
 10
93.994740
 20
126.192251
 30
0.0
 10
94.882541
 20
127.729626
 30
0.0
  0
SPLINE
  5
281
100
AcDbEntity
  8
Layer_1
 62
7
100
AcDbSpline
 70
8
 71
3
 72
8
 73
4
 74
0
 40
0
 40
0
 40
0
 40
0
 40
1
 40
1
 40
1
 40
1
 10
97.380578
 20
132.055976
 30
0.0
 10
97.009998
 20
132.262414
 30
0.0
 10
96.583024
 20
132.373269
 30
0.0
 10
96.076783
 20
132.373269
 30
0.0
  0
LWPOLYLINE
  5
282
100
AcDbEntity
  8
Layer_1
 62
7
100
AcDbPolyline
 90
2
 70
0
 10
96.745475
 20
130.955785
 30
0.0
 10
97.380578
 20
132.055976
 30
0.0
  0
LWPOLYLINE
  5
283
100
AcDbEntity
  8
Layer_1
 62
7
100
AcDbPolyline
 90
1
 70
1
 10
96.076783
 20
132.373269
 30
0.0
  0
SPLINE
  5
284
100
AcDbEntity
  8
Layer_1
 62
7
100
AcDbSpline
 70
8
 71
3
 72
8
 73
4
 74
0
 40
0
 40
0
 40
0
 40
0
 40
1
 40
1
 40
1
 40
1
 10
97.252938
 20
130.015274
 30
0.0
 10
97.287374
 20
129.736707
 30
0.0
 10
97.301516
 20
129.355390
 30
0.0
 10
97.301516
 20
128.797778
 30
0.0
  0
SPLINE
  5
285
100
AcDbEntity
  8
Layer_1
 62
7
100
AcDbSpline
 70
8
 71
3
 72
8
 73
4
 74
0
 40
0
 40
0
 40
0
 40
0
 40
1
 40
1
 40
1
 40
1
 10
97.301516
 20
128.797778
 30
0.0
 10
97.301516
 20
128.086578
 30
0.0
 10
97.281487
 20
127.681337
 30
0.0
 10
97.172841
 20
127.375126
 30
0.0
  0
LWPOLYLINE
  5
286
100
AcDbEntity
  8
Layer_1
 62
7
100
AcDbPolyline
 90
2
 70
0
 10
98.094231
 20
131.472032
 30
0.0
 10
97.252938
 20
130.015274
 30
0.0
  0
SPLINE
  5
287
100
AcDbEntity
  8
Layer_1
 62
7
100
AcDbSpline
 70
8
 71
3
 72
8
 73
4
 74
0
 40
0
 40
0
 40
0
 40
0
 40
1
 40
1
 40
1
 40
1
 10
96.531020
 20
126.575174
 30
0.0
 10
96.402610
 20
126.486274
 30
0.0
 10
96.244704
 20
126.447016
 30
0.0
 10
96.076783
 20
126.447016
 30
0.0
  0
SPLINE
  5
288
100
AcDbEntity
  8
Layer_1
 62
7
100
AcDbSpline
 70
8
 71
3
 72
8
 73
4
 74
0
 40
0
 40
0
 40
0
 40
0
 40
1
 40
1
 40
1
 40
1
 10
96.076783
 20
126.447016
 30
0.0
 10
95.782310
 20
126.447016
 30
0.0
 10
95.525029
 20
126.538831
 30
0.0
 10
95.332127
 20
126.687829
 30
0.0
  0
LWPOLYLINE
  5
289
100
AcDbEntity
  8
Layer_1
 62
7
100
AcDbPolyline
 90
4
 70
0
 10
97.172841
 20
127.375126
 30
0.0
 10
96.649357
 20
127.898607
 30
0.0
 10
95.918652
 20
127.177721
 30
0.0
 10
96.531020
 20
126.575174
 30
0.0
  0
SPLINE
  5
28a
100
AcDbEntity
  8
Layer_1
 62
7
100
AcDbSpline
 70
8
 71
3
 72
8
 73
4
 74
0
 40
0
 40
0
 40
0
 40
0
 40
1
 40
1
 40
1
 40
1
 10
94.693404
 20
125.581437
 30
0.0
 10
95.083395
 20
125.348183
 30
0.0
 10
95.537377
 20
125.221767
 30
0.0
 10
96.076783
 20
125.221767
 30
0.0
  0
SPLINE
  5
28b
100
AcDbEntity
  8
Layer_1
 62
7
100
AcDbSpline
 70
8
 71
3
 72
8
 73
4
 74
0
 40
0
 40
0
 40
0
 40
0
 40
1
 40
1
 40
1
 40
1
 10
96.076783
 20
125.221767
 30
0.0
 10
96.629937
 20
125.221767
 30
0.0
 10
97.103808
 20
125.350455
 30
0.0
 10
97.498919
 20
125.607273
 30
0.0
  0
LWPOLYLINE
  5
28c
100
AcDbEntity
  8
Layer_1
 62
7
100
AcDbPolyline
 90
2
 70
0
 10
95.332127
 20
126.687829
 30
0.0
 10
94.693404
 20
125.581437
 30
0.0
  0
SPLINE
  5
28d
100
AcDbEntity
  8
Layer_1
 62
7
100
AcDbSpline
 70
8
 71
3
 72
8
 73
4
 74
0
 40
0
 40
0
 40
0
 40
0
 40
1
 40
1
 40
1
 40
1
 10
98.239958
 20
126.308525
 30
0.0
 10
98.684458
 20
126.960453
 30
0.0
 10
98.674558
 20
127.740857
 30
0.0
 10
98.674558
 20
128.797778
 30
0.0
  0
SPLINE
  5
28e
100
AcDbEntity
  8
Layer_1
 62
7
100
AcDbSpline
 70
8
 71
3
 72
8
 73
4
 74
0
 40
0
 40
0
 40
0
 40
0
 40
1
 40
1
 40
1
 40
1
 10
98.674558
 20
128.797778
 30
0.0
 10
98.674558
 20
129.939367
 30
0.0
 10
98.683157
 20
130.784150
 30
0.0
 10
98.094231
 20
131.472032
 30
0.0
  0
LWPOLYLINE
  5
28f
100
AcDbEntity
  8
Layer_1
 62
7
100
AcDbPolyline
 90
4
 70
0
 10
97.498919
 20
125.607273
 30
0.0
 10
98.121102
 20
124.985090
 30
0.0
 10
98.842505
 20
125.705976
 30
0.0
 10
98.239958
 20
126.308525
 30
0.0
  0
LWPOLYLINE
  5
290
100
AcDbEntity
  8
Layer_1
 62
7
100
AcDbPolyline
 90
1
 70
1
 10
98.094231
 20
131.472032
 30
0.0
  0
LWPOLYLINE
  5
291
100
AcDbEntity
  8
Layer_1
 62
7
100
AcDbPolyline
 90
4
 70
1
 10
108.776480
 20
125.340477
 30
0.0
 10
108.776480
 20
132.373449
 30
0.0
 10
107.403470
 20
132.373449
 30
0.0
 10
107.403470
 20
125.340477
 30
0.0
  0
LWPOLYLINE
  5
292
100
AcDbEntity
  8
Layer_1
 62
7
100
AcDbPolyline
 90
12
 70
1
 10
122.682018
 20
125.340477
 30
0.0
 10
122.682018
 20
126.565321
 30
0.0
 10
119.422354
 20
126.565321
 30
0.0
 10
119.422354
 20
128.274175
 30
0.0
 10
122.198005
 20
128.274175
 30
0.0
 10
122.198005
 20
129.499018
 30
0.0
 10
119.422354
 20
129.499018
 30
0.0
 10
119.422354
 20
131.148605
 30
0.0
 10
122.682018
 20
131.148605
 30
0.0
 10
122.682018
 20
132.373449
 30
0.0
 10
118.049344
 20
132.373449
 30
0.0
 10
118.049344
 20
125.340477
 30
0.0
  0
LWPOLYLINE
  5
293
100
AcDbEntity
  8
Layer_1
 62
7
100
AcDbPolyline
 90
10
 70
1
 10
134.955812
 20
125.340477
 30
0.0
 10
134.955812
 20
132.373449
 30
0.0
 10
133.582802
 20
132.373449
 30
0.0
 10
133.582802
 20
128.066741
 30
0.0
 10
130.797271
 20
132.373449
 30
0.0
 10
129.572428
 20
132.373449
 30
0.0
 10
129.572428
 20
125.340477
 30
0.0
 10
130.945438
 20
125.340477
 30
0.0
 10
130.945438
 20
129.657064
 30
0.0
 10
133.730968
 20
125.340477
 30
0.0
  0
SPLINE
  5
294
100
AcDbEntity
  8
Layer_1
 62
7
100
AcDbSpline
 70
8
 71
3
 72
8
 73
4
 74
0
 40
0
 40
0
 40
0
 40
0
 40
1
 40
1
 40
1
 40
1
 10
156.252954
 20
132.373269
 30
0.0
 10
155.452854
 20
132.373269
 30
0.0
 10
154.840497
 20
132.096661
 30
0.0
 10
154.346610
 20
131.602774
 30
0.0
  0
SPLINE
  5
295
100
AcDbEntity
  8
Layer_1
 62
7
100
AcDbSpline
 70
8
 71
3
 72
8
 73
4
 74
0
 40
0
 40
0
 40
0
 40
0
 40
1
 40
1
 40
1
 40
1
 10
154.346610
 20
131.602774
 30
0.0
 10
153.635413
 20
130.891574
 30
0.0
 10
153.655180
 20
130.012739
 30
0.0
 10
153.655180
 20
128.797778
 30
0.0
  0
SPLINE
  5
296
100
AcDbEntity
  8
Layer_1
 62
7
100
AcDbSpline
 70
8
 71
3
 72
8
 73
4
 74
0
 40
0
 40
0
 40
0
 40
0
 40
1
 40
1
 40
1
 40
1
 10
153.655180
 20
128.797778
 30
0.0
 10
153.655180
 20
127.693560
 30
0.0
 10
153.640998
 20
126.867195
 30
0.0
 10
154.171946
 20
126.191735
 30
0.0
  0
LWPOLYLINE
  5
297
100
AcDbEntity
  8
Layer_1
 62
7
100
AcDbPolyline
 90
10
 70
1
 10
146.652319
 20
125.340477
 30
0.0
 10
146.652319
 20
126.565321
 30
0.0
 10
143.639598
 20
126.565321
 30
0.0
 10
146.652319
 20
131.286895
 30
0.0
 10
146.652319
 20
132.373449
 30
0.0
 10
142.157934
 20
132.373449
 30
0.0
 10
142.157934
 20
131.148605
 30
0.0
 10
145.032365
 20
131.148605
 30
0.0
 10
142.029524
 20
126.446787
 30
0.0
 10
142.029524
 20
125.340477
 30
0.0
  0
SPLINE
  5
298
100
AcDbEntity
  8
Layer_1
 62
7
100
AcDbSpline
 70
8
 71
3
 72
8
 73
4
 74
0
 40
0
 40
0
 40
0
 40
0
 40
1
 40
1
 40
1
 40
1
 10
155.059228
 20
127.728591
 30
0.0
 10
155.037480
 20
127.991939
 30
0.0
 10
155.028225
 20
128.330656
 30
0.0
 10
155.028225
 20
128.797778
 30
0.0
  0
SPLINE
  5
299
100
AcDbEntity
  8
Layer_1
 62
7
100
AcDbSpline
 70
8
 71
3
 72
8
 73
4
 74
0
 40
0
 40
0
 40
0
 40
0
 40
1
 40
1
 40
1
 40
1
 10
155.028225
 20
128.797778
 30
0.0
 10
155.028225
 20
130.151029
 30
0.0
 10
155.097421
 20
130.477035
 30
0.0
 10
155.364121
 20
130.773368
 30
0.0
  0
SPLINE
  5
29a
100
AcDbEntity
  8
Layer_1
 62
7
100
AcDbSpline
 70
8
 71
3
 72
8
 73
4
 74
0
 40
0
 40
0
 40
0
 40
0
 40
1
 40
1
 40
1
 40
1
 10
155.364121
 20
130.773368
 30
0.0
 10
155.561678
 20
131.000553
 30
0.0
 10
155.877598
 20
131.148537
 30
0.0
 10
156.252954
 20
131.148537
 30
0.0
  0
SPLINE
  5
29b
100
AcDbEntity
  8
Layer_1
 62
7
100
AcDbSpline
 70
8
 71
3
 72
8
 73
4
 74
0
 40
0
 40
0
 40
0
 40
0
 40
1
 40
1
 40
1
 40
1
 10
156.252954
 20
131.148537
 30
0.0
 10
156.514278
 20
131.148537
 30
0.0
 10
156.741203
 20
131.075568
 30
0.0
 10
156.922165
 20
130.955269
 30
0.0
  0
LWPOLYLINE
  5
29c
100
AcDbEntity
  8
Layer_1
 62
7
100
AcDbPolyline
 90
2
 70
0
 10
154.171946
 20
126.191735
 30
0.0
 10
155.059228
 20
127.728591
 30
0.0
  0
SPLINE
  5
29d
100
AcDbEntity
  8
Layer_1
 62
7
100
AcDbSpline
 70
8
 71
3
 72
8
 73
4
 74
0
 40
0
 40
0
 40
0
 40
0
 40
1
 40
1
 40
1
 40
1
 10
157.557268
 20
132.055460
 30
0.0
 10
157.186542
 20
132.262118
 30
0.0
 10
156.759478
 20
132.373269
 30
0.0
 10
156.252954
 20
132.373269
 30
0.0
  0
LWPOLYLINE
  5
29e
100
AcDbEntity
  8
Layer_1
 62
7
100
AcDbPolyline
 90
2
 70
0
 10
156.922165
 20
130.955269
 30
0.0
 10
157.557268
 20
132.055460
 30
0.0
  0
LWPOLYLINE
  5
29f
100
AcDbEntity
  8
Layer_1
 62
7
100
AcDbPolyline
 90
1
 70
1
 10
156.252954
 20
132.373269
 30
0.0
  0
SPLINE
  5
2a0
100
AcDbEntity
  8
Layer_1
 62
7
100
AcDbSpline
 70
8
 71
3
 72
8
 73
4
 74
0
 40
0
 40
0
 40
0
 40
0
 40
1
 40
1
 40
1
 40
1
 10
157.429628
 20
130.014239
 30
0.0
 10
157.463971
 20
129.735757
 30
0.0
 10
157.477687
 20
129.354718
 30
0.0
 10
157.477687
 20
128.797778
 30
0.0
  0
SPLINE
  5
2a1
100
AcDbEntity
  8
Layer_1
 62
7
100
AcDbSpline
 70
8
 71
3
 72
8
 73
4
 74
0
 40
0
 40
0
 40
0
 40
0
 40
1
 40
1
 40
1
 40
1
 10
157.477687
 20
128.797778
 30
0.0
 10
157.477687
 20
127.444524
 30
0.0
 10
157.398672
 20
127.118520
 30
0.0
 10
157.131972
 20
126.822187
 30
0.0
  0
SPLINE
  5
2a2
100
AcDbEntity
  8
Layer_1
 62
7
100
AcDbSpline
 70
8
 71
3
 72
8
 73
4
 74
0
 40
0
 40
0
 40
0
 40
0
 40
1
 40
1
 40
1
 40
1
 10
157.131972
 20
126.822187
 30
0.0
 10
156.934415
 20
126.594997
 30
0.0
 10
156.628308
 20
126.447016
 30
0.0
 10
156.252954
 20
126.447016
 30
0.0
  0
SPLINE
  5
2a3
100
AcDbEntity
  8
Layer_1
 62
7
100
AcDbSpline
 70
8
 71
3
 72
8
 73
4
 74
0
 40
0
 40
0
 40
0
 40
0
 40
1
 40
1
 40
1
 40
1
 10
156.252954
 20
126.447016
 30
0.0
 10
155.958481
 20
126.447016
 30
0.0
 10
155.701716
 20
126.538831
 30
0.0
 10
155.508814
 20
126.687829
 30
0.0
  0
LWPOLYLINE
  5
2a4
100
AcDbEntity
  8
Layer_1
 62
7
100
AcDbPolyline
 90
2
 70
0
 10
158.270918
 20
131.471517
 30
0.0
 10
157.429628
 20
130.014239
 30
0.0
  0
SPLINE
  5
2a5
100
AcDbEntity
  8
Layer_1
 62
7
100
AcDbSpline
 70
8
 71
3
 72
8
 73
4
 74
0
 40
0
 40
0
 40
0
 40
0
 40
1
 40
1
 40
1
 40
1
 10
154.870094
 20
125.580921
 30
0.0
 10
155.259965
 20
125.347865
 30
0.0
 10
155.713792
 20
125.221767
 30
0.0
 10
156.252954
 20
125.221767
 30
0.0
  0
SPLINE
  5
2a6
100
AcDbEntity
  8
Layer_1
 62
7
100
AcDbSpline
 70
8
 71
3
 72
8
 73
4
 74
0
 40
0
 40
0
 40
0
 40
0
 40
1
 40
1
 40
1
 40
1
 10
156.252954
 20
125.221767
 30
0.0
 10
157.053052
 20
125.221767
 30
0.0
 10
157.655593
 20
125.498376
 30
0.0
 10
158.149480
 20
125.992263
 30
0.0
  0
SPLINE
  5
2a7
100
AcDbEntity
  8
Layer_1
 62
7
100
AcDbSpline
 70
8
 71
3
 72
8
 73
4
 74
0
 40
0
 40
0
 40
0
 40
0
 40
1
 40
1
 40
1
 40
1
 10
158.149480
 20
125.992263
 30
0.0
 10
158.860680
 20
126.703463
 30
0.0
 10
158.850729
 20
127.582811
 30
0.0
 10
158.850729
 20
128.797778
 30
0.0
  0
SPLINE
  5
2a8
100
AcDbEntity
  8
Layer_1
 62
7
100
AcDbSpline
 70
8
 71
3
 72
8
 73
4
 74
0
 40
0
 40
0
 40
0
 40
0
 40
1
 40
1
 40
1
 40
1
 10
158.850729
 20
128.797778
 30
0.0
 10
158.850729
 20
129.939068
 30
0.0
 10
158.859354
 20
130.783732
 30
0.0
 10
158.270918
 20
131.471517
 30
0.0
  0
LWPOLYLINE
  5
2a9
100
AcDbEntity
  8
Layer_1
 62
7
100
AcDbPolyline
 90
2
 70
0
 10
155.508814
 20
126.687829
 30
0.0
 10
154.870094
 20
125.580921
 30
0.0
  0
LWPOLYLINE
  5
2aa
100
AcDbEntity
  8
Layer_1
 62
7
100
AcDbPolyline
 90
1
 70
1
 10
158.270918
 20
131.471517
 30
0.0
  0
LWPOLYLINE
  5
2ab
100
AcDbEntity
  8
Layer_1
 62
7
100
AcDbPolyline
 90
8
 70
1
 10
122.759973
 20
157.799899
 30
0.0
 10
122.759973
 20
159.024743
 30
0.0
 10
117.712432
 20
159.024743
 30
0.0
 10
117.712432
 20
157.799899
 30
0.0
 10
119.549699
 20
157.799899
 30
0.0
 10
119.549699
 20
151.991771
 30
0.0
 10
120.922709
 20
151.991771
 30
0.0
 10
120.922709
 20
157.799899
 30
0.0
  0
LWPOLYLINE
  5
2ac
100
AcDbEntity
  8
Layer_1
 62
7
100
AcDbPolyline
 90
12
 70
1
 10
159.741012
 20
151.992427
 30
0.0
 10
157.241935
 20
156.229991
 30
0.0
 10
159.573089
 20
159.025398
 30
0.0
 10
157.903748
 20
159.025398
 30
0.0
 10
155.424428
 20
155.963291
 30
0.0
 10
155.424428
 20
159.025398
 30
0.0
 10
154.051418
 20
159.025398
 30
0.0
 10
154.051418
 20
151.992427
 30
0.0
 10
155.424428
 20
151.992427
 30
0.0
 10
155.424428
 20
154.106270
 30
0.0
 10
156.333182
 20
155.192824
 30
0.0
 10
158.140812
 20
151.992427
 30
0.0
  0
SPLINE
  5
2ad
100
AcDbEntity
  8
Layer_1
 62
7
100
AcDbSpline
 70
8
 71
3
 72
8
 73
4
 74
0
 40
0
 40
0
 40
0
 40
0
 40
1
 40
1
 40
1
 40
1
 10
144.249037
 20
157.800155
 30
0.0
 10
144.851578
 20
157.800155
 30
0.0
 10
145.246908
 20
157.414808
 30
0.0
 10
145.246908
 20
156.871528
 30
0.0
  0
SPLINE
  5
2ae
100
AcDbEntity
  8
Layer_1
 62
7
100
AcDbSpline
 70
8
 71
3
 72
8
 73
4
 74
0
 40
0
 40
0
 40
0
 40
0
 40
1
 40
1
 40
1
 40
1
 10
145.246908
 20
156.871528
 30
0.0
 10
145.246908
 20
156.328251
 30
0.0
 10
144.851578
 20
155.942904
 30
0.0
 10
144.249037
 20
155.942904
 30
0.0
  0
LWPOLYLINE
  5
2af
100
AcDbEntity
  8
Layer_1
 62
7
100
AcDbPolyline
 90
5
 70
0
 10
141.582016
 20
159.024871
 30
0.0
 10
141.582016
 20
157.799626
 30
0.0
 10
142.955058
 20
157.799626
 30
0.0
 10
142.955058
 20
157.800155
 30
0.0
 10
144.249037
 20
157.800155
 30
0.0
  0
SPLINE
  5
2b0
100
AcDbEntity
  8
Layer_1
 62
7
100
AcDbSpline
 70
8
 71
3
 72
8
 73
4
 74
0
 40
0
 40
0
 40
0
 40
0
 40
1
 40
1
 40
1
 40
1
 10
145.335792
 20
155.024626
 30
0.0
 10
146.017359
 20
155.271569
 30
0.0
 10
146.619950
 20
155.883767
 30
0.0
 10
146.619950
 20
156.871541
 30
0.0
  0
SPLINE
  5
2b1
100
AcDbEntity
  8
Layer_1
 62
7
100
AcDbSpline
 70
8
 71
3
 72
8
 73
4
 74
0
 40
0
 40
0
 40
0
 40
0
 40
1
 40
1
 40
1
 40
1
 10
146.619950
 20
156.871541
 30
0.0
 10
146.619950
 20
158.046998
 30
0.0
 10
145.770196
 20
159.024898
 30
0.0
 10
144.337919
 20
159.024898
 30
0.0
  0
LWPOLYLINE
  5
2b2
100
AcDbEntity
  8
Layer_1
 62
7
100
AcDbPolyline
 90
11
 70
0
 10
144.249037
 20
155.942904
 30
0.0
 10
142.955058
 20
155.942904
 30
0.0
 10
142.955058
 20
155.943433
 30
0.0
 10
141.582016
 20
155.943433
 30
0.0
 10
141.582016
 20
151.991736
 30
0.0
 10
142.955058
 20
151.991736
 30
0.0
 10
142.955058
 20
154.797251
 30
0.0
 10
143.942594
 20
154.797251
 30
0.0
 10
145.315639
 20
151.991736
 30
0.0
 10
146.906237
 20
151.991736
 30
0.0
 10
145.335792
 20
155.024626
 30
0.0
  0
LWPOLYLINE
  5
2b3
100
AcDbEntity
  8
Layer_1
 62
7
100
AcDbPolyline
 90
2
 70
0
 10
144.337919
 20
159.024898
 30
0.0
 10
141.582016
 20
159.024871
 30
0.0
  0
LWPOLYLINE
  5
2b4
100
AcDbEntity
  8
Layer_1
 62
7
100
AcDbPolyline
 90
4
 70
1
 10
130.233872
 20
160.960671
 30
0.0
 10
130.233872
 20
159.725604
 30
0.0
 10
131.330445
 20
159.725604
 30
0.0
 10
131.330445
 20
160.960671
 30
0.0
  0
LWPOLYLINE
  5
2b5
100
AcDbEntity
  8
Layer_1
 62
7
100
AcDbPolyline
 90
4
 70
1
 10
132.416684
 20
160.960671
 30
0.0
 10
132.416684
 20
159.725604
 30
0.0
 10
133.513258
 20
159.725604
 30
0.0
 10
133.513258
 20
160.960671
 30
0.0
  0
LWPOLYLINE
  5
2b6
100
AcDbEntity
  8
Layer_1
 62
7
100
AcDbPolyline
 90
13
 70
1
 10
131.350083
 20
159.024355
 30
0.0
 10
128.791583
 20
151.991709
 30
0.0
 10
130.218367
 20
151.991709
 30
0.0
 10
131.035890
 20
154.391565
 30
0.0
 10
131.033773
 20
154.391565
 30
0.0
 10
131.923125
 20
156.950064
 30
0.0
 10
132.782505
 20
154.391565
 30
0.0
 10
131.553640
 20
154.391565
 30
0.0
 10
131.553640
 20
153.236079
 30
0.0
 10
133.147858
 20
153.236079
 30
0.0
 10
133.562820
 20
151.991709
 30
0.0
 10
134.994774
 20
151.991709
 30
0.0
 10
132.426971
 20
159.024355
 30
0.0
  0
LWPOLYLINE
  5
2b7
100
AcDbEntity
  8
Layer_1
 62
7
100
AcDbPolyline
 90
10
 70
1
 10
110.685469
 20
151.991905
 30
0.0
 10
110.685469
 20
159.024877
 30
0.0
 10
109.312459
 20
159.024877
 30
0.0
 10
109.312459
 20
154.718169
 30
0.0
 10
106.526928
 20
159.024877
 30
0.0
 10
105.302085
 20
159.024877
 30
0.0
 10
105.302085
 20
151.991905
 30
0.0
 10
106.675095
 20
151.991905
 30
0.0
 10
106.675095
 20
156.308493
 30
0.0
 10
109.460625
 20
151.991905
 30
0.0
  0
LWPOLYLINE
  5
2b8
100
AcDbEntity
  8
Layer_1
 62
7
100
AcDbPolyline
 90
13
 70
1
 10
95.226189
 20
159.024874
 30
0.0
 10
92.667689
 20
151.991712
 30
0.0
 10
94.094476
 20
151.991712
 30
0.0
 10
94.913031
 20
154.392080
 30
0.0
 10
94.909935
 20
154.392080
 30
0.0
 10
95.799287
 20
156.950580
 30
0.0
 10
96.658664
 20
154.392080
 30
0.0
 10
95.430315
 20
154.392080
 30
0.0
 10
95.430315
 20
153.236595
 30
0.0
 10
97.024017
 20
153.236595
 30
0.0
 10
97.438978
 20
151.991712
 30
0.0
 10
98.870933
 20
151.991712
 30
0.0
 10
96.302614
 20
159.024874
 30
0.0
  0
LWPOLYLINE
  5
2b9
100
AcDbEntity
  8
Layer_1
 62
7
100
AcDbPolyline
 90
12
 70
1
 10
87.013328
 20
151.991611
 30
0.0
 10
84.514251
 20
156.229175
 30
0.0
 10
86.845405
 20
159.024583
 30
0.0
 10
85.176064
 20
159.024583
 30
0.0
 10
82.696744
 20
155.962475
 30
0.0
 10
82.696744
 20
159.024583
 30
0.0
 10
81.323734
 20
159.024583
 30
0.0
 10
81.323734
 20
151.991611
 30
0.0
 10
82.696744
 20
151.991611
 30
0.0
 10
82.696744
 20
154.105455
 30
0.0
 10
83.605498
 20
155.192008
 30
0.0
 10
85.413128
 20
151.991611
 30
0.0
  0
SPLINE
  5
2ba
100
AcDbEntity
  8
Layer_1
 62
7
100
AcDbSpline
 70
8
 71
3
 72
8
 73
4
 74
0
 40
0
 40
0
 40
0
 40
0
 40
1
 40
1
 40
1
 40
1
 10
72.923788
 20
154.154864
 30
0.0
 10
72.785501
 20
153.591831
 30
0.0
 10
72.429901
 20
153.157208
 30
0.0
 10
71.738458
 20
153.157208
 30
0.0
  0
SPLINE
  5
2bb
100
AcDbEntity
  8
Layer_1
 62
7
100
AcDbSpline
 70
8
 71
3
 72
8
 73
4
 74
0
 40
0
 40
0
 40
0
 40
0
 40
1
 40
1
 40
1
 40
1
 10
71.738458
 20
153.157208
 30
0.0
 10
71.363101
 20
153.157208
 30
0.0
 10
71.056891
 20
153.295498
 30
0.0
 10
70.859335
 20
153.522685
 30
0.0
  0
SPLINE
  5
2bc
100
AcDbEntity
  8
Layer_1
 62
7
100
AcDbSpline
 70
8
 71
3
 72
8
 73
4
 74
0
 40
0
 40
0
 40
0
 40
0
 40
1
 40
1
 40
1
 40
1
 10
70.859335
 20
153.522685
 30
0.0
 10
70.592635
 20
153.819018
 30
0.0
 10
70.513614
 20
154.154864
 30
0.0
 10
70.513614
 20
155.508118
 30
0.0
  0
SPLINE
  5
2bd
100
AcDbEntity
  8
Layer_1
 62
7
100
AcDbSpline
 70
8
 71
3
 72
8
 73
4
 74
0
 40
0
 40
0
 40
0
 40
0
 40
1
 40
1
 40
1
 40
1
 10
70.513614
 20
155.508118
 30
0.0
 10
70.513614
 20
156.861372
 30
0.0
 10
70.592635
 20
157.197216
 30
0.0
 10
70.859335
 20
157.493549
 30
0.0
  0
SPLINE
  5
2be
100
AcDbEntity
  8
Layer_1
 62
7
100
AcDbSpline
 70
8
 71
3
 72
8
 73
4
 74
0
 40
0
 40
0
 40
0
 40
0
 40
1
 40
1
 40
1
 40
1
 10
70.859335
 20
157.493549
 30
0.0
 10
71.056891
 20
157.720739
 30
0.0
 10
71.363101
 20
157.859026
 30
0.0
 10
71.738458
 20
157.859026
 30
0.0
  0
SPLINE
  5
2bf
100
AcDbEntity
  8
Layer_1
 62
7
100
AcDbSpline
 70
8
 71
3
 72
8
 73
4
 74
0
 40
0
 40
0
 40
0
 40
0
 40
1
 40
1
 40
1
 40
1
 10
71.738458
 20
157.859026
 30
0.0
 10
72.429901
 20
157.859026
 30
0.0
 10
72.785501
 20
157.424405
 30
0.0
 10
72.923788
 20
156.861372
 30
0.0
  0
LWPOLYLINE
  5
2c0
100
AcDbEntity
  8
Layer_1
 62
7
100
AcDbPolyline
 90
2
 70
0
 10
74.316555
 20
154.154864
 30
0.0
 10
72.923788
 20
154.154864
 30
0.0
  0
SPLINE
  5
2c1
100
AcDbEntity
  8
Layer_1
 62
7
100
AcDbSpline
 70
8
 71
3
 72
8
 73
4
 74
0
 40
0
 40
0
 40
0
 40
0
 40
1
 40
1
 40
1
 40
1
 10
74.316555
 20
156.861372
 30
0.0
 10
74.069611
 20
158.333159
 30
0.0
 10
73.042322
 20
159.083869
 30
0.0
 10
71.728578
 20
159.083869
 30
0.0
  0
SPLINE
  5
2c2
100
AcDbEntity
  8
Layer_1
 62
7
100
AcDbSpline
 70
8
 71
3
 72
8
 73
4
 74
0
 40
0
 40
0
 40
0
 40
0
 40
1
 40
1
 40
1
 40
1
 10
71.728578
 20
159.083869
 30
0.0
 10
70.958114
 20
159.083869
 30
0.0
 10
70.325935
 20
158.807292
 30
0.0
 10
69.832047
 20
158.313405
 30
0.0
  0
SPLINE
  5
2c3
100
AcDbEntity
  8
Layer_1
 62
7
100
AcDbSpline
 70
8
 71
3
 72
8
 73
4
 74
0
 40
0
 40
0
 40
0
 40
0
 40
1
 40
1
 40
1
 40
1
 10
69.832047
 20
158.313405
 30
0.0
 10
69.120847
 20
157.602205
 30
0.0
 10
69.140604
 20
156.723082
 30
0.0
 10
69.140604
 20
155.508118
 30
0.0
  0
SPLINE
  5
2c4
100
AcDbEntity
  8
Layer_1
 62
7
100
AcDbSpline
 70
8
 71
3
 72
8
 73
4
 74
0
 40
0
 40
0
 40
0
 40
0
 40
1
 40
1
 40
1
 40
1
 10
69.140604
 20
155.508118
 30
0.0
 10
69.140604
 20
154.293152
 30
0.0
 10
69.120839
 20
153.414031
 30
0.0
 10
69.832047
 20
152.702831
 30
0.0
  0
SPLINE
  5
2c5
100
AcDbEntity
  8
Layer_1
 62
7
100
AcDbSpline
 70
8
 71
3
 72
8
 73
4
 74
0
 40
0
 40
0
 40
0
 40
0
 40
1
 40
1
 40
1
 40
1
 10
69.832047
 20
152.702831
 30
0.0
 10
70.325935
 20
152.208944
 30
0.0
 10
70.958114
 20
151.932364
 30
0.0
 10
71.728578
 20
151.932364
 30
0.0
  0
SPLINE
  5
2c6
100
AcDbEntity
  8
Layer_1
 62
7
100
AcDbSpline
 70
8
 71
3
 72
8
 73
4
 74
0
 40
0
 40
0
 40
0
 40
0
 40
1
 40
1
 40
1
 40
1
 10
71.728578
 20
151.932364
 30
0.0
 10
73.032445
 20
151.932364
 30
0.0
 10
74.069611
 20
152.683075
 30
0.0
 10
74.316555
 20
154.154864
 30
0.0
  0
LWPOLYLINE
  5
2c7
100
AcDbEntity
  8
Layer_1
 62
7
100
AcDbPolyline
 90
2
 70
0
 10
72.923788
 20
156.861372
 30
0.0
 10
74.316555
 20
156.861372
 30
0.0
  0
SPLINE
  5
2c8
100
AcDbEntity
  8
Layer_1
 62
7
100
AcDbSpline
 70
8
 71
3
 72
8
 73
4
 74
0
 40
0
 40
0
 40
0
 40
0
 40
1
 40
1
 40
1
 40
1
 10
59.609758
 20
159.084300
 30
0.0
 10
58.809658
 20
159.084300
 30
0.0
 10
58.197301
 20
158.807691
 30
0.0
 10
57.703414
 20
158.313804
 30
0.0
  0
SPLINE
  5
2c9
100
AcDbEntity
  8
Layer_1
 62
7
100
AcDbSpline
 70
8
 71
3
 72
8
 73
4
 74
0
 40
0
 40
0
 40
0
 40
0
 40
1
 40
1
 40
1
 40
1
 10
57.703414
 20
158.313804
 30
0.0
 10
56.992217
 20
157.602606
 30
0.0
 10
57.011984
 20
156.723253
 30
0.0
 10
57.011984
 20
155.508292
 30
0.0
  0
SPLINE
  5
2ca
100
AcDbEntity
  8
Layer_1
 62
7
100
AcDbSpline
 70
8
 71
3
 72
8
 73
4
 74
0
 40
0
 40
0
 40
0
 40
0
 40
1
 40
1
 40
1
 40
1
 10
57.011984
 20
155.508292
 30
0.0
 10
57.011984
 20
154.403588
 30
0.0
 10
56.997617
 20
153.577357
 30
0.0
 10
57.529265
 20
152.901733
 30
0.0
  0
LWPOLYLINE
  5
2cb
100
AcDbEntity
  8
Layer_1
 62
7
100
AcDbPolyline
 90
1
 70
1
 10
74.316555
 20
154.154864
 30
0.0
  0
SPLINE
  5
2cc
100
AcDbEntity
  8
Layer_1
 62
7
100
AcDbSpline
 70
8
 71
3
 72
8
 73
4
 74
0
 40
0
 40
0
 40
0
 40
0
 40
1
 40
1
 40
1
 40
1
 10
58.416032
 20
154.438073
 30
0.0
 10
58.394204
 20
154.701559
 30
0.0
 10
58.385026
 20
155.040530
 30
0.0
 10
58.385026
 20
155.508292
 30
0.0
  0
SPLINE
  5
2cd
100
AcDbEntity
  8
Layer_1
 62
7
100
AcDbSpline
 70
8
 71
3
 72
8
 73
4
 74
0
 40
0
 40
0
 40
0
 40
0
 40
1
 40
1
 40
1
 40
1
 10
58.385026
 20
155.508292
 30
0.0
 10
58.385026
 20
156.861543
 30
0.0
 10
58.454225
 20
157.187549
 30
0.0
 10
58.720925
 20
157.483883
 30
0.0
  0
SPLINE
  5
2ce
100
AcDbEntity
  8
Layer_1
 62
7
100
AcDbSpline
 70
8
 71
3
 72
8
 73
4
 74
0
 40
0
 40
0
 40
0
 40
0
 40
1
 40
1
 40
1
 40
1
 10
58.720925
 20
157.483883
 30
0.0
 10
58.918481
 20
157.711070
 30
0.0
 10
59.234402
 20
157.859051
 30
0.0
 10
59.609758
 20
157.859051
 30
0.0
  0
SPLINE
  5
2cf
100
AcDbEntity
  8
Layer_1
 62
7
100
AcDbSpline
 70
8
 71
3
 72
8
 73
4
 74
0
 40
0
 40
0
 40
0
 40
0
 40
1
 40
1
 40
1
 40
1
 10
59.609758
 20
157.859051
 30
0.0
 10
59.871542
 20
157.859051
 30
0.0
 10
60.098885
 20
157.785949
 30
0.0
 10
60.280000
 20
157.665265
 30
0.0
  0
LWPOLYLINE
  5
2d0
100
AcDbEntity
  8
Layer_1
 62
7
100
AcDbPolyline
 90
2
 70
0
 10
57.529265
 20
152.901733
 30
0.0
 10
58.416032
 20
154.438073
 30
0.0
  0
SPLINE
  5
2d1
100
AcDbEntity
  8
Layer_1
 62
7
100
AcDbSpline
 70
8
 71
3
 72
8
 73
4
 74
0
 40
0
 40
0
 40
0
 40
0
 40
1
 40
1
 40
1
 40
1
 10
60.915104
 20
158.765458
 30
0.0
 10
60.544158
 20
158.972457
 30
0.0
 10
60.116715
 20
159.084300
 30
0.0
 10
59.609758
 20
159.084300
 30
0.0
  0
LWPOLYLINE
  5
2d2
100
AcDbEntity
  8
Layer_1
 62
7
100
AcDbPolyline
 90
2
 70
0
 10
60.280000
 20
157.665265
 30
0.0
 10
60.915104
 20
158.765458
 30
0.0
  0
LWPOLYLINE
  5
2d3
100
AcDbEntity
  8
Layer_1
 62
7
100
AcDbPolyline
 90
1
 70
1
 10
59.609758
 20
159.084300
 30
0.0
  0
SPLINE
  5
2d4
100
AcDbEntity
  8
Layer_1
 62
7
100
AcDbSpline
 70
8
 71
3
 72
8
 73
4
 74
0
 40
0
 40
0
 40
0
 40
0
 40
1
 40
1
 40
1
 40
1
 10
60.786947
 20
156.723721
 30
0.0
 10
60.821192
 20
156.445327
 30
0.0
 10
60.835006
 20
156.064517
 30
0.0
 10
60.835006
 20
155.508292
 30
0.0
  0
SPLINE
  5
2d5
100
AcDbEntity
  8
Layer_1
 62
7
100
AcDbSpline
 70
8
 71
3
 72
8
 73
4
 74
0
 40
0
 40
0
 40
0
 40
0
 40
1
 40
1
 40
1
 40
1
 10
60.835006
 20
155.508292
 30
0.0
 10
60.835006
 20
154.155038
 30
0.0
 10
60.755991
 20
153.829034
 30
0.0
 10
60.489291
 20
153.532701
 30
0.0
  0
SPLINE
  5
2d6
100
AcDbEntity
  8
Layer_1
 62
7
100
AcDbSpline
 70
8
 71
3
 72
8
 73
4
 74
0
 40
0
 40
0
 40
0
 40
0
 40
1
 40
1
 40
1
 40
1
 10
60.489291
 20
153.532701
 30
0.0
 10
60.291735
 20
153.305511
 30
0.0
 10
59.985112
 20
153.157530
 30
0.0
 10
59.609758
 20
153.157530
 30
0.0
  0
SPLINE
  5
2d7
100
AcDbEntity
  8
Layer_1
 62
7
100
AcDbSpline
 70
8
 71
3
 72
8
 73
4
 74
0
 40
0
 40
0
 40
0
 40
0
 40
1
 40
1
 40
1
 40
1
 10
59.609758
 20
153.157530
 30
0.0
 10
59.315777
 20
153.157530
 30
0.0
 10
59.059448
 20
153.249269
 30
0.0
 10
58.866652
 20
153.397827
 30
0.0
  0
LWPOLYLINE
  5
2d8
100
AcDbEntity
  8
Layer_1
 62
7
100
AcDbPolyline
 90
2
 70
0
 10
61.628240
 20
158.181512
 30
0.0
 10
60.786947
 20
156.723721
 30
0.0
  0
SPLINE
  5
2d9
100
AcDbEntity
  8
Layer_1
 62
7
100
AcDbSpline
 70
8
 71
3
 72
8
 73
4
 74
0
 40
0
 40
0
 40
0
 40
0
 40
1
 40
1
 40
1
 40
1
 10
58.227929
 20
152.291435
 30
0.0
 10
58.617697
 20
152.058559
 30
0.0
 10
59.070810
 20
151.932800
 30
0.0
 10
59.609758
 20
151.932800
 30
0.0
  0
SPLINE
  5
2da
100
AcDbEntity
  8
Layer_1
 62
7
100
AcDbSpline
 70
8
 71
3
 72
8
 73
4
 74
0
 40
0
 40
0
 40
0
 40
0
 40
1
 40
1
 40
1
 40
1
 10
59.609758
 20
151.932800
 30
0.0
 10
60.409855
 20
151.932800
 30
0.0
 10
61.012396
 20
152.209409
 30
0.0
 10
61.506283
 20
152.703296
 30
0.0
  0
SPLINE
  5
2db
100
AcDbEntity
  8
Layer_1
 62
7
100
AcDbSpline
 70
8
 71
3
 72
8
 73
4
 74
0
 40
0
 40
0
 40
0
 40
0
 40
1
 40
1
 40
1
 40
1
 10
61.506283
 20
152.703296
 30
0.0
 10
62.217483
 20
153.414493
 30
0.0
 10
62.208048
 20
154.293325
 30
0.0
 10
62.208048
 20
155.508292
 30
0.0
  0
SPLINE
  5
2dc
100
AcDbEntity
  8
Layer_1
 62
7
100
AcDbSpline
 70
8
 71
3
 72
8
 73
4
 74
0
 40
0
 40
0
 40
0
 40
0
 40
1
 40
1
 40
1
 40
1
 10
62.208048
 20
155.508292
 30
0.0
 10
62.208048
 20
156.649125
 30
0.0
 10
62.215986
 20
157.493879
 30
0.0
 10
61.628240
 20
158.181512
 30
0.0
  0
LWPOLYLINE
  5
2dd
100
AcDbEntity
  8
Layer_1
 62
7
100
AcDbPolyline
 90
2
 70
0
 10
58.866652
 20
153.397827
 30
0.0
 10
58.227929
 20
152.291435
 30
0.0
  0
LWPOLYLINE
  5
2de
100
AcDbEntity
  8
Layer_1
 62
7
100
AcDbPolyline
 90
1
 70
1
 10
61.628240
 20
158.181512
 30
0.0
  0
LWPOLYLINE
  5
2df
100
AcDbEntity
  8
Layer_1
 62
7
100
AcDbPolyline
 90
6
 70
1
 10
50.101680
 20
151.992366
 30
0.0
 10
50.101680
 20
153.217209
 30
0.0
 10
46.911162
 20
153.217209
 30
0.0
 10
46.911162
 20
159.025337
 30
0.0
 10
45.538152
 20
159.025337
 30
0.0
 10
45.538152
 20
151.992366
 30
0.0
  0
LWPOLYLINE
  5
2e0
100
AcDbEntity
  8
Layer_1
 62
7
100
AcDbPolyline
 90
4
 70
1
 10
156.972248
 20
138.600280
 30
0.0
 10
156.972248
 20
145.633252
 30
0.0
 10
155.599238
 20
145.633252
 30
0.0
 10
155.599238
 20
138.600280
 30
0.0
  0
SPLINE
  5
2e1
100
AcDbEntity
  8
Layer_1
 62
7
100
AcDbSpline
 70
8
 71
3
 72
8
 73
4
 74
0
 40
0
 40
0
 40
0
 40
0
 40
1
 40
1
 40
1
 40
1
 10
132.162953
 20
145.692869
 30
0.0
 10
131.362853
 20
145.692869
 30
0.0
 10
130.750497
 20
145.416260
 30
0.0
 10
130.256609
 20
144.922376
 30
0.0
  0
SPLINE
  5
2e2
100
AcDbEntity
  8
Layer_1
 62
7
100
AcDbSpline
 70
8
 71
3
 72
8
 73
4
 74
0
 40
0
 40
0
 40
0
 40
0
 40
1
 40
1
 40
1
 40
1
 10
130.256609
 20
144.922376
 30
0.0
 10
129.545409
 20
144.211176
 30
0.0
 10
129.565179
 20
143.332341
 30
0.0
 10
129.565179
 20
142.117377
 30
0.0
  0
SPLINE
  5
2e3
100
AcDbEntity
  8
Layer_1
 62
7
100
AcDbSpline
 70
8
 71
3
 72
8
 73
4
 74
0
 40
0
 40
0
 40
0
 40
0
 40
1
 40
1
 40
1
 40
1
 10
129.565179
 20
142.117377
 30
0.0
 10
129.565179
 20
141.012128
 30
0.0
 10
129.550521
 20
140.185077
 30
0.0
 10
130.082977
 20
139.509268
 30
0.0
  0
LWPOLYLINE
  5
2e4
100
AcDbEntity
  8
Layer_1
 62
7
100
AcDbPolyline
 90
10
 70
1
 10
146.992272
 20
138.602543
 30
0.0
 10
146.992272
 20
145.635515
 30
0.0
 10
145.619262
 20
145.635515
 30
0.0
 10
145.619262
 20
141.328807
 30
0.0
 10
142.833731
 20
145.635515
 30
0.0
 10
141.608888
 20
145.635515
 30
0.0
 10
141.608888
 20
138.602543
 30
0.0
 10
142.981898
 20
138.602543
 30
0.0
 10
142.981898
 20
142.919130
 30
0.0
 10
145.767428
 20
138.602543
 30
0.0
  0
SPLINE
  5
2e5
100
AcDbEntity
  8
Layer_1
 62
7
100
AcDbSpline
 70
8
 71
3
 72
8
 73
4
 74
0
 40
0
 40
0
 40
0
 40
0
 40
1
 40
1
 40
1
 40
1
 10
130.969228
 20
141.044058
 30
0.0
 10
130.947241
 20
141.307853
 30
0.0
 10
130.938221
 20
141.648168
 30
0.0
 10
130.938221
 20
142.117377
 30
0.0
  0
SPLINE
  5
2e6
100
AcDbEntity
  8
Layer_1
 62
7
100
AcDbSpline
 70
8
 71
3
 72
8
 73
4
 74
0
 40
0
 40
0
 40
0
 40
0
 40
1
 40
1
 40
1
 40
1
 10
130.938221
 20
142.117377
 30
0.0
 10
130.938221
 20
143.470631
 30
0.0
 10
131.007418
 20
143.796119
 30
0.0
 10
131.274118
 20
144.092452
 30
0.0
  0
SPLINE
  5
2e7
100
AcDbEntity
  8
Layer_1
 62
7
100
AcDbSpline
 70
8
 71
3
 72
8
 73
4
 74
0
 40
0
 40
0
 40
0
 40
0
 40
1
 40
1
 40
1
 40
1
 10
131.274118
 20
144.092452
 30
0.0
 10
131.471674
 20
144.319639
 30
0.0
 10
131.787597
 20
144.468139
 30
0.0
 10
132.162953
 20
144.468139
 30
0.0
  0
SPLINE
  5
2e8
100
AcDbEntity
  8
Layer_1
 62
7
100
AcDbSpline
 70
8
 71
3
 72
8
 73
4
 74
0
 40
0
 40
0
 40
0
 40
0
 40
1
 40
1
 40
1
 40
1
 10
132.162953
 20
144.468139
 30
0.0
 10
132.425195
 20
144.468139
 30
0.0
 10
132.652443
 20
144.394384
 30
0.0
 10
132.833712
 20
144.273318
 30
0.0
  0
LWPOLYLINE
  5
2e9
100
AcDbEntity
  8
Layer_1
 62
7
100
AcDbPolyline
 90
2
 70
0
 10
130.082977
 20
139.509268
 30
0.0
 10
130.969228
 20
141.044058
 30
0.0
  0
SPLINE
  5
2ea
100
AcDbEntity
  8
Layer_1
 62
7
100
AcDbSpline
 70
8
 71
3
 72
8
 73
4
 74
0
 40
0
 40
0
 40
0
 40
0
 40
1
 40
1
 40
1
 40
1
 10
133.469334
 20
145.374027
 30
0.0
 10
133.098147
 20
145.581395
 30
0.0
 10
132.670379
 20
145.692869
 30
0.0
 10
132.162953
 20
145.692869
 30
0.0
  0
LWPOLYLINE
  5
2eb
100
AcDbEntity
  8
Layer_1
 62
7
100
AcDbPolyline
 90
2
 70
0
 10
132.833712
 20
144.273318
 30
0.0
 10
133.469334
 20
145.374027
 30
0.0
  0
LWPOLYLINE
  5
2ec
100
AcDbEntity
  8
Layer_1
 62
7
100
AcDbPolyline
 90
1
 70
1
 10
132.162953
 20
145.692869
 30
0.0
  0
SPLINE
  5
2ed
100
AcDbEntity
  8
Layer_1
 62
7
100
AcDbSpline
 70
8
 71
3
 72
8
 73
4
 74
0
 40
0
 40
0
 40
0
 40
0
 40
1
 40
1
 40
1
 40
1
 10
133.340140
 20
143.330740
 30
0.0
 10
133.374205
 20
143.052515
 30
0.0
 10
133.387683
 20
142.672258
 30
0.0
 10
133.387683
 20
142.117377
 30
0.0
  0
SPLINE
  5
2ee
100
AcDbEntity
  8
Layer_1
 62
7
100
AcDbSpline
 70
8
 71
3
 72
8
 73
4
 74
0
 40
0
 40
0
 40
0
 40
0
 40
1
 40
1
 40
1
 40
1
 10
133.387683
 20
142.117377
 30
0.0
 10
133.387683
 20
140.764126
 30
0.0
 10
133.308668
 20
140.438120
 30
0.0
 10
133.041968
 20
140.141789
 30
0.0
  0
SPLINE
  5
2ef
100
AcDbEntity
  8
Layer_1
 62
7
100
AcDbSpline
 70
8
 71
3
 72
8
 73
4
 74
0
 40
0
 40
0
 40
0
 40
0
 40
1
 40
1
 40
1
 40
1
 10
133.041968
 20
140.141789
 30
0.0
 10
132.844412
 20
139.914599
 30
0.0
 10
132.538305
 20
139.766099
 30
0.0
 10
132.162953
 20
139.766099
 30
0.0
  0
SPLINE
  5
2f0
100
AcDbEntity
  8
Layer_1
 62
7
100
AcDbSpline
 70
8
 71
3
 72
8
 73
4
 74
0
 40
0
 40
0
 40
0
 40
0
 40
1
 40
1
 40
1
 40
1
 10
132.162953
 20
139.766099
 30
0.0
 10
131.869404
 20
139.766099
 30
0.0
 10
131.613067
 20
139.857711
 30
0.0
 10
131.420363
 20
140.005878
 30
0.0
  0
LWPOLYLINE
  5
2f1
100
AcDbEntity
  8
Layer_1
 62
7
100
AcDbPolyline
 90
2
 70
0
 10
134.182468
 20
144.789565
 30
0.0
 10
133.340140
 20
143.330740
 30
0.0
  0
SPLINE
  5
2f2
100
AcDbEntity
  8
Layer_1
 62
7
100
AcDbSpline
 70
8
 71
3
 72
8
 73
4
 74
0
 40
0
 40
0
 40
0
 40
0
 40
1
 40
1
 40
1
 40
1
 10
130.781641
 20
138.899485
 30
0.0
 10
131.171168
 20
138.667025
 30
0.0
 10
131.624500
 20
138.541369
 30
0.0
 10
132.162953
 20
138.541369
 30
0.0
  0
SPLINE
  5
2f3
100
AcDbEntity
  8
Layer_1
 62
7
100
AcDbSpline
 70
8
 71
3
 72
8
 73
4
 74
0
 40
0
 40
0
 40
0
 40
0
 40
1
 40
1
 40
1
 40
1
 10
132.162953
 20
138.541369
 30
0.0
 10
132.963048
 20
138.541369
 30
0.0
 10
133.565592
 20
138.817978
 30
0.0
 10
134.059476
 20
139.311865
 30
0.0
  0
SPLINE
  5
2f4
100
AcDbEntity
  8
Layer_1
 62
7
100
AcDbSpline
 70
8
 71
3
 72
8
 73
4
 74
0
 40
0
 40
0
 40
0
 40
0
 40
1
 40
1
 40
1
 40
1
 10
134.059476
 20
139.311865
 30
0.0
 10
134.770676
 20
140.023062
 30
0.0
 10
134.760728
 20
140.902413
 30
0.0
 10
134.760728
 20
142.117377
 30
0.0
  0
SPLINE
  5
2f5
100
AcDbEntity
  8
Layer_1
 62
7
100
AcDbSpline
 70
8
 71
3
 72
8
 73
4
 74
0
 40
0
 40
0
 40
0
 40
0
 40
1
 40
1
 40
1
 40
1
 10
134.760728
 20
142.117377
 30
0.0
 10
134.760728
 20
143.257766
 30
0.0
 10
134.769512
 20
144.102077
 30
0.0
 10
134.182468
 20
144.789565
 30
0.0
  0
LWPOLYLINE
  5
2f6
100
AcDbEntity
  8
Layer_1
 62
7
100
AcDbPolyline
 90
2
 70
0
 10
131.420363
 20
140.005878
 30
0.0
 10
130.781641
 20
138.899485
 30
0.0
  0
LWPOLYLINE
  5
2f7
100
AcDbEntity
  8
Layer_1
 62
7
100
AcDbPolyline
 90
1
 70
1
 10
134.182468
 20
144.789565
 30
0.0
  0
LWPOLYLINE
  5
2f8
100
AcDbEntity
  8
Layer_1
 62
7
100
AcDbPolyline
 90
4
 70
1
 10
120.889615
 20
138.602404
 30
0.0
 10
120.889615
 20
145.635376
 30
0.0
 10
119.516605
 20
145.635376
 30
0.0
 10
119.516605
 20
138.602404
 30
0.0
  0
SPLINE
  5
2f9
100
AcDbEntity
  8
Layer_1
 62
7
100
AcDbSpline
 70
8
 71
3
 72
8
 73
4
 74
0
 40
0
 40
0
 40
0
 40
0
 40
1
 40
1
 40
1
 40
1
 10
98.591206
 20
140.675970
 30
0.0
 10
98.591206
 20
141.298267
 30
0.0
 10
98.423283
 20
141.811913
 30
0.0
 10
98.047926
 20
142.167510
 30
0.0
  0
SPLINE
  5
2fa
100
AcDbEntity
  8
Layer_1
 62
7
100
AcDbSpline
 70
8
 71
3
 72
8
 73
4
 74
0
 40
0
 40
0
 40
0
 40
0
 40
1
 40
1
 40
1
 40
1
 10
98.047926
 20
142.167510
 30
0.0
 10
97.751595
 20
142.444090
 30
0.0
 10
97.346606
 20
142.621890
 30
0.0
 10
96.704552
 20
142.710790
 30
0.0
  0
LWPOLYLINE
  5
2fb
100
AcDbEntity
  8
Layer_1
 62
7
100
AcDbPolyline
 90
8
 70
1
 10
110.572557
 20
144.409635
 30
0.0
 10
110.572557
 20
145.634479
 30
0.0
 10
105.525016
 20
145.634479
 30
0.0
 10
105.525016
 20
144.409635
 30
0.0
 10
107.362283
 20
144.409635
 30
0.0
 10
107.362283
 20
138.601507
 30
0.0
 10
108.735293
 20
138.601507
 30
0.0
 10
108.735293
 20
144.409635
 30
0.0
  0
SPLINE
  5
2fc
100
AcDbEntity
  8
Layer_1
 62
7
100
AcDbSpline
 70
8
 71
3
 72
8
 73
4
 74
0
 40
0
 40
0
 40
0
 40
0
 40
1
 40
1
 40
1
 40
1
 10
95.874819
 20
142.829323
 30
0.0
 10
95.588362
 20
142.868833
 30
0.0
 10
95.361175
 20
142.977490
 30
0.0
 10
95.222885
 20
143.105900
 30
0.0
  0
SPLINE
  5
2fd
100
AcDbEntity
  8
Layer_1
 62
7
100
AcDbSpline
 70
8
 71
3
 72
8
 73
4
 74
0
 40
0
 40
0
 40
0
 40
0
 40
1
 40
1
 40
1
 40
1
 10
95.222885
 20
143.105900
 30
0.0
 10
95.074719
 20
143.244187
 30
0.0
 10
95.015452
 20
143.431867
 30
0.0
 10
95.015452
 20
143.609667
 30
0.0
  0
SPLINE
  5
2fe
100
AcDbEntity
  8
Layer_1
 62
7
100
AcDbSpline
 70
8
 71
3
 72
8
 73
4
 74
0
 40
0
 40
0
 40
0
 40
0
 40
1
 40
1
 40
1
 40
1
 10
95.015452
 20
143.609667
 30
0.0
 10
95.015452
 20
144.093677
 30
0.0
 10
95.371052
 20
144.498664
 30
0.0
 10
96.102006
 20
144.498664
 30
0.0
  0
SPLINE
  5
2ff
100
AcDbEntity
  8
Layer_1
 62
7
100
AcDbSpline
 70
8
 71
3
 72
8
 73
4
 74
0
 40
0
 40
0
 40
0
 40
0
 40
1
 40
1
 40
1
 40
1
 10
96.102006
 20
144.498664
 30
0.0
 10
96.566262
 20
144.498664
 30
0.0
 10
97.099662
 20
144.439397
 30
0.0
 10
97.544162
 20
144.014654
 30
0.0
  0
LWPOLYLINE
  5
300
100
AcDbEntity
  8
Layer_1
 62
7
100
AcDbPolyline
 90
2
 70
0
 10
96.704552
 20
142.710790
 30
0.0
 10
95.874819
 20
142.829323
 30
0.0
  0
SPLINE
  5
301
100
AcDbEntity
  8
Layer_1
 62
7
100
AcDbSpline
 70
8
 71
3
 72
8
 73
4
 74
0
 40
0
 40
0
 40
0
 40
0
 40
1
 40
1
 40
1
 40
1
 10
98.413406
 20
144.874021
 30
0.0
 10
97.810862
 20
145.456808
 30
0.0
 10
97.109539
 20
145.693874
 30
0.0
 10
96.141519
 20
145.693874
 30
0.0
  0
SPLINE
  5
302
100
AcDbEntity
  8
Layer_1
 62
7
100
AcDbSpline
 70
8
 71
3
 72
8
 73
4
 74
0
 40
0
 40
0
 40
0
 40
0
 40
1
 40
1
 40
1
 40
1
 10
96.141519
 20
145.693874
 30
0.0
 10
94.620342
 20
145.693874
 30
0.0
 10
93.691832
 20
144.814754
 30
0.0
 10
93.691832
 20
143.560277
 30
0.0
  0
SPLINE
  5
303
100
AcDbEntity
  8
Layer_1
 62
7
100
AcDbSpline
 70
8
 71
3
 72
8
 73
4
 74
0
 40
0
 40
0
 40
0
 40
0
 40
1
 40
1
 40
1
 40
1
 10
93.691832
 20
143.560277
 30
0.0
 10
93.691832
 20
142.967610
 30
0.0
 10
93.859755
 20
142.513234
 30
0.0
 10
94.195598
 20
142.177390
 30
0.0
  0
SPLINE
  5
304
100
AcDbEntity
  8
Layer_1
 62
7
100
AcDbSpline
 70
8
 71
3
 72
8
 73
4
 74
0
 40
0
 40
0
 40
0
 40
0
 40
1
 40
1
 40
1
 40
1
 10
94.195598
 20
142.177390
 30
0.0
 10
94.511685
 20
141.871180
 30
0.0
 10
94.956185
 20
141.683500
 30
0.0
 10
95.558729
 20
141.594600
 30
0.0
  0
LWPOLYLINE
  5
305
100
AcDbEntity
  8
Layer_1
 62
7
100
AcDbPolyline
 90
2
 70
0
 10
97.544162
 20
144.014654
 30
0.0
 10
98.413406
 20
144.874021
 30
0.0
  0
SPLINE
  5
306
100
AcDbEntity
  8
Layer_1
 62
7
100
AcDbSpline
 70
8
 71
3
 72
8
 73
4
 74
0
 40
0
 40
0
 40
0
 40
0
 40
1
 40
1
 40
1
 40
1
 10
96.408219
 20
141.476067
 30
0.0
 10
96.734185
 20
141.426680
 30
0.0
 10
96.892229
 20
141.357534
 30
0.0
 10
97.030516
 20
141.229123
 30
0.0
  0
SPLINE
  5
307
100
AcDbEntity
  8
Layer_1
 62
7
100
AcDbSpline
 70
8
 71
3
 72
8
 73
4
 74
0
 40
0
 40
0
 40
0
 40
0
 40
1
 40
1
 40
1
 40
1
 10
97.030516
 20
141.229123
 30
0.0
 10
97.178683
 20
141.090834
 30
0.0
 10
97.247829
 20
140.883403
 30
0.0
 10
97.247829
 20
140.636457
 30
0.0
  0
SPLINE
  5
308
100
AcDbEntity
  8
Layer_1
 62
7
100
AcDbSpline
 70
8
 71
3
 72
8
 73
4
 74
0
 40
0
 40
0
 40
0
 40
0
 40
1
 40
1
 40
1
 40
1
 10
97.247829
 20
140.636457
 30
0.0
 10
97.247829
 20
140.073423
 30
0.0
 10
96.813206
 20
139.767213
 30
0.0
 10
96.003229
 20
139.767213
 30
0.0
  0
SPLINE
  5
309
100
AcDbEntity
  8
Layer_1
 62
7
100
AcDbSpline
 70
8
 71
3
 72
8
 73
4
 74
0
 40
0
 40
0
 40
0
 40
0
 40
1
 40
1
 40
1
 40
1
 10
96.003229
 20
139.767213
 30
0.0
 10
95.351296
 20
139.767213
 30
0.0
 10
94.748752
 20
139.915380
 30
0.0
 10
94.304252
 20
140.359880
 30
0.0
  0
LWPOLYLINE
  5
30a
100
AcDbEntity
  8
Layer_1
 62
7
100
AcDbPolyline
 90
2
 70
0
 10
95.558729
 20
141.594600
 30
0.0
 10
96.408219
 20
141.476067
 30
0.0
  0
SPLINE
  5
30b
100
AcDbEntity
  8
Layer_1
 62
7
100
AcDbSpline
 70
8
 71
3
 72
8
 73
4
 74
0
 40
0
 40
0
 40
0
 40
0
 40
1
 40
1
 40
1
 40
1
 10
93.415255
 20
139.470880
 30
0.0
 10
94.106698
 20
138.769559
 30
0.0
 10
94.916675
 20
138.542370
 30
0.0
 10
95.983472
 20
138.542370
 30
0.0
  0
SPLINE
  5
30c
100
AcDbEntity
  8
Layer_1
 62
7
100
AcDbSpline
 70
8
 71
3
 72
8
 73
4
 74
0
 40
0
 40
0
 40
0
 40
0
 40
1
 40
1
 40
1
 40
1
 10
95.983472
 20
138.542370
 30
0.0
 10
97.455262
 20
138.542370
 30
0.0
 10
98.591206
 20
139.312836
 30
0.0
 10
98.591206
 20
140.675970
 30
0.0
  0
LWPOLYLINE
  5
30d
100
AcDbEntity
  8
Layer_1
 62
7
100
AcDbPolyline
 90
2
 70
0
 10
94.304252
 20
140.359880
 30
0.0
 10
93.415255
 20
139.470880
 30
0.0
  0
LWPOLYLINE
  5
30e
100
AcDbEntity
  8
Layer_1
 62
7
100
AcDbPolyline
 90
1
 70
1
 10
98.591206
 20
140.675970
 30
0.0
  0
LWPOLYLINE
  5
30f
100
AcDbEntity
  8
Layer_1
 62
7
100
AcDbPolyline
 90
4
 70
1
 10
84.594867
 20
138.602742
 30
0.0
 10
84.594867
 20
145.635714
 30
0.0
 10
83.221857
 20
145.635714
 30
0.0
 10
83.221857
 20
138.602742
 30
0.0
  0
LWPOLYLINE
  5
310
100
AcDbEntity
  8
Layer_1
 62
7
100
AcDbPolyline
 90
12
 70
1
 10
50.172481
 20
138.606325
 30
0.0
 10
50.172481
 20
139.831169
 30
0.0
 10
46.912817
 20
139.831169
 30
0.0
 10
46.912817
 20
141.540023
 30
0.0
 10
49.688468
 20
141.540023
 30
0.0
 10
49.688468
 20
142.764866
 30
0.0
 10
46.912817
 20
142.764866
 30
0.0
 10
46.912817
 20
144.414453
 30
0.0
 10
50.172481
 20
144.414453
 30
0.0
 10
50.172481
 20
145.639297
 30
0.0
 10
45.539807
 20
145.639297
 30
0.0
 10
45.539807
 20
138.606325
 30
0.0
  0
LWPOLYLINE
  5
311
100
AcDbEntity
  8
Layer_1
 62
7
100
AcDbPolyline
 90
13
 70
1
 10
63.066415
 20
138.602457
 30
0.0
 10
63.066415
 20
145.635429
 30
0.0
 10
61.713158
 20
145.635429
 30
0.0
 10
59.885771
 20
141.832488
 30
0.0
 10
58.048507
 20
145.635429
 30
0.0
 10
56.695254
 20
145.635429
 30
0.0
 10
56.695254
 20
138.602457
 30
0.0
 10
58.068264
 20
138.602457
 30
0.0
 10
58.068264
 20
142.701731
 30
0.0
 10
59.421518
 20
140.034734
 30
0.0
 10
60.350028
 20
140.034734
 30
0.0
 10
61.693405
 20
142.701731
 30
0.0
 10
61.693405
 20
138.602457
 30
0.0
  0
SPLINE
  5
312
100
AcDbEntity
  8
Layer_1
 62
7
100
AcDbSpline
 70
8
 71
3
 72
8
 73
4
 74
0
 40
0
 40
0
 40
0
 40
0
 40
1
 40
1
 40
1
 40
1
 10
11.228343
 20
181.553393
 30
0.0
 10
11.228343
 20
181.288177
 30
0.0
 10
11.122986
 20
181.033823
 30
0.0
 10
10.935450
 20
180.846286
 30
0.0
  0
SPLINE
  5
313
100
AcDbEntity
  8
Layer_1
 62
7
100
AcDbSpline
 70
8
 71
3
 72
8
 73
4
 74
0
 40
0
 40
0
 40
0
 40
0
 40
1
 40
1
 40
1
 40
1
 10
10.935450
 20
180.846286
 30
0.0
 10
10.747913
 20
180.658750
 30
0.0
 10
10.493559
 20
180.553393
 30
0.0
 10
10.228343
 20
180.553393
 30
0.0
  0
SPLINE
  5
314
100
AcDbEntity
  8
Layer_1
 62
7
100
AcDbSpline
 70
8
 71
3
 72
8
 73
4
 74
0
 40
0
 40
0
 40
0
 40
0
 40
1
 40
1
 40
1
 40
1
 10
10.228343
 20
180.553393
 30
0.0
 10
9.963127
 20
180.553393
 30
0.0
 10
9.708773
 20
180.658750
 30
0.0
 10
9.521236
 20
180.846286
 30
0.0
  0
SPLINE
  5
315
100
AcDbEntity
  8
Layer_1
 62
7
100
AcDbSpline
 70
8
 71
3
 72
8
 73
4
 74
0
 40
0
 40
0
 40
0
 40
0
 40
1
 40
1
 40
1
 40
1
 10
9.521236
 20
180.846286
 30
0.0
 10
9.333700
 20
181.033823
 30
0.0
 10
9.228343
 20
181.288177
 30
0.0
 10
9.228343
 20
181.553393
 30
0.0
  0
SPLINE
  5
316
100
AcDbEntity
  8
Layer_1
 62
7
100
AcDbSpline
 70
8
 71
3
 72
8
 73
4
 74
0
 40
0
 40
0
 40
0
 40
0
 40
1
 40
1
 40
1
 40
1
 10
9.228343
 20
181.553393
 30
0.0
 10
9.228343
 20
181.818609
 30
0.0
 10
9.333700
 20
182.072963
 30
0.0
 10
9.521236
 20
182.260500
 30
0.0
  0
SPLINE
  5
317
100
AcDbEntity
  8
Layer_1
 62
7
100
AcDbSpline
 70
8
 71
3
 72
8
 73
4
 74
0
 40
0
 40
0
 40
0
 40
0
 40
1
 40
1
 40
1
 40
1
 10
9.521236
 20
182.260500
 30
0.0
 10
9.708773
 20
182.448036
 30
0.0
 10
9.963127
 20
182.553393
 30
0.0
 10
10.228343
 20
182.553393
 30
0.0
  0
SPLINE
  5
318
100
AcDbEntity
  8
Layer_1
 62
7
100
AcDbSpline
 70
8
 71
3
 72
8
 73
4
 74
0
 40
0
 40
0
 40
0
 40
0
 40
1
 40
1
 40
1
 40
1
 10
10.228343
 20
182.553393
 30
0.0
 10
10.493559
 20
182.553393
 30
0.0
 10
10.747913
 20
182.448036
 30
0.0
 10
10.935450
 20
182.260500
 30
0.0
  0
SPLINE
  5
319
100
AcDbEntity
  8
Layer_1
 62
7
100
AcDbSpline
 70
8
 71
3
 72
8
 73
4
 74
0
 40
0
 40
0
 40
0
 40
0
 40
1
 40
1
 40
1
 40
1
 10
10.935450
 20
182.260500
 30
0.0
 10
11.122986
 20
182.072963
 30
0.0
 10
11.228343
 20
181.818609
 30
0.0
 10
11.228343
 20
181.553393
 30
0.0
  0
LWPOLYLINE
  5
31a
100
AcDbEntity
  8
Layer_1
 62
7
100
AcDbPolyline
 90
9
 70
1
 10
74.677309
 20
145.636164
 30
0.0
 10
73.185766
 20
145.636164
 30
0.0
 10
71.891779
 20
142.801246
 30
0.0
 10
70.578035
 20
145.636164
 30
0.0
 10
69.086491
 20
145.636164
 30
0.0
 10
71.200335
 20
141.487502
 30
0.0
 10
71.200335
 20
138.603192
 30
0.0
 10
72.563468
 20
138.603192
 30
0.0
 10
72.563468
 20
141.487502
 30
0.0
  0
SPLINE
  5
31b
100
AcDbEntity
  8
Layer_1
 62
7
100
AcDbSpline
 70
8
 71
3
 72
8
 73
4
 74
0
 40
0
 40
0
 40
0
 40
0
 40
1
 40
1
 40
1
 40
1
 10
11.228200
 20
10.130950
 30
0.0
 10
11.228200
 20
9.865734
 30
0.0
 10
11.122843
 20
9.611380
 30
0.0
 10
10.935307
 20
9.423843
 30
0.0
  0
SPLINE
  5
31c
100
AcDbEntity
  8
Layer_1
 62
7
100
AcDbSpline
 70
8
 71
3
 72
8
 73
4
 74
0
 40
0
 40
0
 40
0
 40
0
 40
1
 40
1
 40
1
 40
1
 10
10.935307
 20
9.423843
 30
0.0
 10
10.747770
 20
9.236307
 30
0.0
 10
10.493416
 20
9.130950
 30
0.0
 10
10.228200
 20
9.130950
 30
0.0
  0
SPLINE
  5
31d
100
AcDbEntity
  8
Layer_1
 62
7
100
AcDbSpline
 70
8
 71
3
 72
8
 73
4
 74
0
 40
0
 40
0
 40
0
 40
0
 40
1
 40
1
 40
1
 40
1
 10
10.228200
 20
9.130950
 30
0.0
 10
9.962984
 20
9.130950
 30
0.0
 10
9.708630
 20
9.236307
 30
0.0
 10
9.521093
 20
9.423843
 30
0.0
  0
SPLINE
  5
31e
100
AcDbEntity
  8
Layer_1
 62
7
100
AcDbSpline
 70
8
 71
3
 72
8
 73
4
 74
0
 40
0
 40
0
 40
0
 40
0
 40
1
 40
1
 40
1
 40
1
 10
9.521093
 20
9.423843
 30
0.0
 10
9.333557
 20
9.611380
 30
0.0
 10
9.228200
 20
9.865734
 30
0.0
 10
9.228200
 20
10.130950
 30
0.0
  0
SPLINE
  5
31f
100
AcDbEntity
  8
Layer_1
 62
7
100
AcDbSpline
 70
8
 71
3
 72
8
 73
4
 74
0
 40
0
 40
0
 40
0
 40
0
 40
1
 40
1
 40
1
 40
1
 10
9.228200
 20
10.130950
 30
0.0
 10
9.228200
 20
10.396166
 30
0.0
 10
9.333557
 20
10.650520
 30
0.0
 10
9.521093
 20
10.838057
 30
0.0
  0
SPLINE
  5
320
100
AcDbEntity
  8
Layer_1
 62
7
100
AcDbSpline
 70
8
 71
3
 72
8
 73
4
 74
0
 40
0
 40
0
 40
0
 40
0
 40
1
 40
1
 40
1
 40
1
 10
9.521093
 20
10.838057
 30
0.0
 10
9.708630
 20
11.025593
 30
0.0
 10
9.962984
 20
11.130950
 30
0.0
 10
10.228200
 20
11.130950
 30
0.0
  0
SPLINE
  5
321
100
AcDbEntity
  8
Layer_1
 62
7
100
AcDbSpline
 70
8
 71
3
 72
8
 73
4
 74
0
 40
0
 40
0
 40
0
 40
0
 40
1
 40
1
 40
1
 40
1
 10
10.228200
 20
11.130950
 30
0.0
 10
10.493416
 20
11.130950
 30
0.0
 10
10.747770
 20
11.025593
 30
0.0
 10
10.935307
 20
10.838057
 30
0.0
  0
SPLINE
  5
322
100
AcDbEntity
  8
Layer_1
 62
7
100
AcDbSpline
 70
8
 71
3
 72
8
 73
4
 74
0
 40
0
 40
0
 40
0
 40
0
 40
1
 40
1
 40
1
 40
1
 10
10.935307
 20
10.838057
 30
0.0
 10
11.122843
 20
10.650520
 30
0.0
 10
11.228200
 20
10.396166
 30
0.0
 10
11.228200
 20
10.130950
 30
0.0
  0
LWPOLYLINE
  5
323
100
AcDbEntity
  8
Layer_1
 62
7
100
AcDbPolyline
 90
1
 70
1
 10
11.228343
 20
181.553393
 30
0.0
  0
SPLINE
  5
324
100
AcDbEntity
  8
Layer_1
 62
7
100
AcDbSpline
 70
8
 71
3
 72
8
 73
4
 74
0
 40
0
 40
0
 40
0
 40
0
 40
1
 40
1
 40
1
 40
1
 10
182.292080
 20
181.553450
 30
0.0
 10
182.292080
 20
181.288234
 30
0.0
 10
182.186723
 20
181.033880
 30
0.0
 10
181.999187
 20
180.846343
 30
0.0
  0
SPLINE
  5
325
100
AcDbEntity
  8
Layer_1
 62
7
100
AcDbSpline
 70
8
 71
3
 72
8
 73
4
 74
0
 40
0
 40
0
 40
0
 40
0
 40
1
 40
1
 40
1
 40
1
 10
181.999187
 20
180.846343
 30
0.0
 10
181.811650
 20
180.658807
 30
0.0
 10
181.557296
 20
180.553450
 30
0.0
 10
181.292080
 20
180.553450
 30
0.0
  0
SPLINE
  5
326
100
AcDbEntity
  8
Layer_1
 62
7
100
AcDbSpline
 70
8
 71
3
 72
8
 73
4
 74
0
 40
0
 40
0
 40
0
 40
0
 40
1
 40
1
 40
1
 40
1
 10
181.292080
 20
180.553450
 30
0.0
 10
181.026864
 20
180.553450
 30
0.0
 10
180.772510
 20
180.658807
 30
0.0
 10
180.584973
 20
180.846343
 30
0.0
  0
SPLINE
  5
327
100
AcDbEntity
  8
Layer_1
 62
7
100
AcDbSpline
 70
8
 71
3
 72
8
 73
4
 74
0
 40
0
 40
0
 40
0
 40
0
 40
1
 40
1
 40
1
 40
1
 10
180.584973
 20
180.846343
 30
0.0
 10
180.397437
 20
181.033880
 30
0.0
 10
180.292080
 20
181.288234
 30
0.0
 10
180.292080
 20
181.553450
 30
0.0
  0
SPLINE
  5
328
100
AcDbEntity
  8
Layer_1
 62
7
100
AcDbSpline
 70
8
 71
3
 72
8
 73
4
 74
0
 40
0
 40
0
 40
0
 40
0
 40
1
 40
1
 40
1
 40
1
 10
180.292080
 20
181.553450
 30
0.0
 10
180.292080
 20
181.818666
 30
0.0
 10
180.397437
 20
182.073020
 30
0.0
 10
180.584973
 20
182.260557
 30
0.0
  0
SPLINE
  5
329
100
AcDbEntity
  8
Layer_1
 62
7
100
AcDbSpline
 70
8
 71
3
 72
8
 73
4
 74
0
 40
0
 40
0
 40
0
 40
0
 40
1
 40
1
 40
1
 40
1
 10
180.584973
 20
182.260557
 30
0.0
 10
180.772510
 20
182.448093
 30
0.0
 10
181.026864
 20
182.553450
 30
0.0
 10
181.292080
 20
182.553450
 30
0.0
  0
SPLINE
  5
32a
100
AcDbEntity
  8
Layer_1
 62
7
100
AcDbSpline
 70
8
 71
3
 72
8
 73
4
 74
0
 40
0
 40
0
 40
0
 40
0
 40
1
 40
1
 40
1
 40
1
 10
181.292080
 20
182.553450
 30
0.0
 10
181.557296
 20
182.553450
 30
0.0
 10
181.811650
 20
182.448093
 30
0.0
 10
181.999187
 20
182.260557
 30
0.0
  0
SPLINE
  5
32b
100
AcDbEntity
  8
Layer_1
 62
7
100
AcDbSpline
 70
8
 71
3
 72
8
 73
4
 74
0
 40
0
 40
0
 40
0
 40
0
 40
1
 40
1
 40
1
 40
1
 10
181.999187
 20
182.260557
 30
0.0
 10
182.186723
 20
182.073020
 30
0.0
 10
182.292080
 20
181.818666
 30
0.0
 10
182.292080
 20
181.553450
 30
0.0
  0
LWPOLYLINE
  5
32c
100
AcDbEntity
  8
Layer_1
 62
7
100
AcDbPolyline
 90
1
 70
1
 10
11.228200
 20
10.130950
 30
0.0
  0
SPLINE
  5
32d
100
AcDbEntity
  8
Layer_1
 62
7
100
AcDbSpline
 70
8
 71
3
 72
8
 73
4
 74
0
 40
0
 40
0
 40
0
 40
0
 40
1
 40
1
 40
1
 40
1
 10
182.292200
 20
10.131450
 30
0.0
 10
182.292200
 20
9.866234
 30
0.0
 10
182.186843
 20
9.611880
 30
0.0
 10
181.999307
 20
9.424343
 30
0.0
  0
SPLINE
  5
32e
100
AcDbEntity
  8
Layer_1
 62
7
100
AcDbSpline
 70
8
 71
3
 72
8
 73
4
 74
0
 40
0
 40
0
 40
0
 40
0
 40
1
 40
1
 40
1
 40
1
 10
181.999307
 20
9.424343
 30
0.0
 10
181.811770
 20
9.236807
 30
0.0
 10
181.557416
 20
9.131450
 30
0.0
 10
181.292200
 20
9.131450
 30
0.0
  0
SPLINE
  5
32f
100
AcDbEntity
  8
Layer_1
 62
7
100
AcDbSpline
 70
8
 71
3
 72
8
 73
4
 74
0
 40
0
 40
0
 40
0
 40
0
 40
1
 40
1
 40
1
 40
1
 10
181.292200
 20
9.131450
 30
0.0
 10
181.026984
 20
9.131450
 30
0.0
 10
180.772630
 20
9.236807
 30
0.0
 10
180.585093
 20
9.424343
 30
0.0
  0
SPLINE
  5
330
100
AcDbEntity
  8
Layer_1
 62
7
100
AcDbSpline
 70
8
 71
3
 72
8
 73
4
 74
0
 40
0
 40
0
 40
0
 40
0
 40
1
 40
1
 40
1
 40
1
 10
180.585093
 20
9.424343
 30
0.0
 10
180.397557
 20
9.611880
 30
0.0
 10
180.292200
 20
9.866234
 30
0.0
 10
180.292200
 20
10.131450
 30
0.0
  0
SPLINE
  5
331
100
AcDbEntity
  8
Layer_1
 62
7
100
AcDbSpline
 70
8
 71
3
 72
8
 73
4
 74
0
 40
0
 40
0
 40
0
 40
0
 40
1
 40
1
 40
1
 40
1
 10
180.292200
 20
10.131450
 30
0.0
 10
180.292200
 20
10.396666
 30
0.0
 10
180.397557
 20
10.651020
 30
0.0
 10
180.585093
 20
10.838557
 30
0.0
  0
SPLINE
  5
332
100
AcDbEntity
  8
Layer_1
 62
7
100
AcDbSpline
 70
8
 71
3
 72
8
 73
4
 74
0
 40
0
 40
0
 40
0
 40
0
 40
1
 40
1
 40
1
 40
1
 10
180.585093
 20
10.838557
 30
0.0
 10
180.772630
 20
11.026093
 30
0.0
 10
181.026984
 20
11.131450
 30
0.0
 10
181.292200
 20
11.131450
 30
0.0
  0
SPLINE
  5
333
100
AcDbEntity
  8
Layer_1
 62
7
100
AcDbSpline
 70
8
 71
3
 72
8
 73
4
 74
0
 40
0
 40
0
 40
0
 40
0
 40
1
 40
1
 40
1
 40
1
 10
181.292200
 20
11.131450
 30
0.0
 10
181.557416
 20
11.131450
 30
0.0
 10
181.811770
 20
11.026093
 30
0.0
 10
181.999307
 20
10.838557
 30
0.0
  0
SPLINE
  5
334
100
AcDbEntity
  8
Layer_1
 62
7
100
AcDbSpline
 70
8
 71
3
 72
8
 73
4
 74
0
 40
0
 40
0
 40
0
 40
0
 40
1
 40
1
 40
1
 40
1
 10
181.999307
 20
10.838557
 30
0.0
 10
182.186843
 20
10.651020
 30
0.0
 10
182.292200
 20
10.396666
 30
0.0
 10
182.292200
 20
10.131450
 30
0.0
  0
LWPOLYLINE
  5
335
100
AcDbEntity
  8
Layer_1
 62
7
100
AcDbPolyline
 90
1
 70
1
 10
182.292080
 20
181.553450
 30
0.0
  0
LWPOLYLINE
  5
336
100
AcDbEntity
  8
Layer_1
 62
7
100
AcDbPolyline
 90
1
 70
1
 10
182.292200
 20
10.131450
 30
0.0
  0
ENDSEC
  0
SECTION
  2
OBJECTS
  0
DICTIONARY
  5
C
330
0
100
AcDbDictionary
  3
ACAD_GROUP
350
D
  3
ACAD_MLINESTYLE
350
17
  0
DICTIONARY
  5
D
330
C
100
AcDbDictionary
  0
DICTIONARY
  5
1A
330
C
100
AcDbDictionary
  0
DICTIONARY
  5
17
330
C
100
AcDbDictionary
  3
STANDARD
350
18
  0
DICTIONARY
  5
19
330
C
100
AcDbDictionary
  0
ENDSEC
  0
EOF
